<svg width="42" height="42" viewBox="0 0 42 42" fill="none" xmlns="http://www.w3.org/2000/svg">
<rect width="42" height="42" rx="21" fill="white"/>
<g clip-path="url(#clip0_1402_3551)">
<path d="M23.4553 24.4259H13.2626C12.7422 24.4259 12.3203 24.0041 12.3203 23.4837V22.2977C12.3203 21.7773 12.7422 21.3555 13.2626 21.3555H23.4553C23.9757 21.3555 24.3975 21.7773 24.3975 22.2977V23.4837C24.3975 24.0041 23.9757 24.4259 23.4553 24.4259Z" fill="#F1E64C"/>
<path d="M15.2236 24.4259H13.2629C12.7422 24.4259 12.3203 24.004 12.3203 23.4838V22.2976C12.3203 21.7774 12.7423 21.3555 13.2629 21.3555H15.2236C14.7034 21.3555 14.2814 21.7774 14.2814 22.2976V23.4838C14.2814 24.004 14.7034 24.4259 15.2236 24.4259Z" fill="#FFC250"/>
<path d="M24.3975 22.7344V23.4838C24.3975 24.0041 23.9756 24.4256 23.4552 24.4256H13.2626C12.7423 24.4256 12.3203 24.0041 12.3203 23.4838V22.7344C12.3203 23.2547 12.7423 23.6767 13.2626 23.6767H23.4552C23.9756 23.6767 24.3975 23.2547 24.3975 22.7344Z" fill="#FFC250"/>
<path d="M25.2014 21.3556H15.0087C14.4883 21.3556 14.0664 20.9338 14.0664 20.4134V19.2274C14.0664 18.707 14.4883 18.2852 15.0087 18.2852H25.2014C25.7218 18.2852 26.1437 18.707 26.1437 19.2274V20.4134C26.1437 20.9338 25.7218 21.3556 25.2014 21.3556Z" fill="#F1E64C"/>
<path d="M16.9697 21.3556H15.009C14.4883 21.3556 14.0664 20.9337 14.0664 20.4135V19.2273C14.0664 18.7071 14.4884 18.2852 15.009 18.2852H16.9697C16.4495 18.2852 16.0275 18.7071 16.0275 19.2273V20.4135C16.0275 20.9337 16.4495 21.3556 16.9697 21.3556Z" fill="#FFC250"/>
<path d="M26.1436 19.6641V20.4134C26.1436 20.9338 25.7217 21.3553 25.2013 21.3553H15.0087C14.4884 21.3553 14.0664 20.9338 14.0664 20.4134V19.6641C14.0664 20.1844 14.4884 20.6064 15.0087 20.6064H25.2013C25.7217 20.6064 26.1436 20.1844 26.1436 19.6641Z" fill="#FFC250"/>
<path d="M23.9748 18.2843H13.7821C13.2617 18.2843 12.8398 17.8625 12.8398 17.3421V16.1561C12.8398 15.6357 13.2617 15.2139 13.7821 15.2139H23.9748C24.4952 15.2139 24.9171 15.6357 24.9171 16.1561V17.3421C24.9171 17.8625 24.4952 18.2843 23.9748 18.2843Z" fill="#F1E64C"/>
<path d="M15.7431 18.2843H13.7824C13.2618 18.2843 12.8398 17.8624 12.8398 17.3422V16.156C12.8398 15.6358 13.2618 15.2139 13.7824 15.2139H15.7431C15.2229 15.2139 14.801 15.6358 14.801 16.156V17.3422C14.8009 17.8624 15.2229 18.2843 15.7431 18.2843Z" fill="#FFC250"/>
<path d="M24.9171 16.5938V17.3431C24.9171 17.8635 24.4951 18.285 23.9748 18.285H13.7821C13.2618 18.285 12.8398 17.8635 12.8398 17.3431V16.5938C12.8398 17.1141 13.2618 17.5361 13.7821 17.5361H23.9748C24.4951 17.5361 24.9171 17.1141 24.9171 16.5938Z" fill="#FFC250"/>
<path d="M24.3147 27.4953H14.1219C13.6016 27.4953 13.1797 27.0734 13.1797 26.553V25.3671C13.1797 24.8467 13.6016 24.4248 14.1219 24.4248H24.3147C24.835 24.4248 25.2569 24.8467 25.2569 25.3671V26.553C25.2569 27.0734 24.835 27.4953 24.3147 27.4953Z" fill="#F1E64C"/>
<path d="M25.2569 25.8047V26.5541C25.2569 27.0744 24.835 27.4959 24.3146 27.4959H14.122C13.6016 27.4959 13.1797 27.0744 13.1797 26.5541V25.8047C13.1797 26.325 13.6016 26.747 14.122 26.747H24.3146C24.835 26.747 25.2569 26.325 25.2569 25.8047Z" fill="#FFC250"/>
<path d="M16.083 27.4962H14.1223C13.6016 27.4962 13.1797 27.0743 13.1797 26.5541V25.3679C13.1797 24.8477 13.6016 24.4258 14.1223 24.4258H16.083C15.5627 24.4258 15.1408 24.8477 15.1408 25.3679V26.5541C15.1408 27.0743 15.5628 27.4962 16.083 27.4962Z" fill="#FFC250"/>
<path d="M23.6701 30.5666H13.4774C12.957 30.5666 12.5352 30.1447 12.5352 29.6243V28.4384C12.5352 27.918 12.957 27.4961 13.4774 27.4961H23.6701C24.1905 27.4961 24.6124 27.918 24.6124 28.4384V29.6243C24.6124 30.1447 24.1905 30.5666 23.6701 30.5666Z" fill="#F1E64C"/>
<path d="M24.6124 28.875V29.6244C24.6124 30.1447 24.1904 30.5663 23.6701 30.5663H13.4775C12.9571 30.5663 12.5352 30.1447 12.5352 29.6244V28.875C12.5352 29.3954 12.9571 29.8173 13.4775 29.8173H23.6701C24.1904 29.8173 24.6124 29.3954 24.6124 28.875Z" fill="#FFC250"/>
<path d="M15.4384 30.5666H13.4778C12.9571 30.5666 12.5352 30.1446 12.5352 29.6244V28.4382C12.5352 27.918 12.9571 27.4961 13.4778 27.4961H15.4384C14.9182 27.4961 14.4963 27.918 14.4963 28.4382V29.6244C14.4963 30.1446 14.9182 30.5666 15.4384 30.5666Z" fill="#FFC250"/>
<path d="M27.6363 30.5665C30.9713 30.5665 33.6749 27.8629 33.6749 24.5279C33.6749 21.1928 30.9713 18.4893 27.6363 18.4893C24.3012 18.4893 21.5977 21.1928 21.5977 24.5279C21.5977 27.8629 24.3012 30.5665 27.6363 30.5665Z" fill="#F1E64C"/>
<path d="M28.147 30.5448C27.9788 30.5593 27.8084 30.5663 27.6362 30.5663C24.301 30.5663 21.5977 27.8629 21.5977 24.5278C21.5977 21.1926 24.301 18.4893 27.6362 18.4893C27.8084 18.4893 27.9788 18.4962 28.147 18.5108C25.0503 18.7697 22.6186 21.3643 22.6186 24.5278C22.6186 27.6913 25.0503 30.2859 28.147 30.5448Z" fill="#FFC250"/>
<path d="M27.6362 28.6054C29.8882 28.6054 31.7138 26.7798 31.7138 24.5278C31.7138 22.2758 29.8882 20.4502 27.6362 20.4502C25.3842 20.4502 23.5586 22.2758 23.5586 24.5278C23.5586 26.7798 25.3842 28.6054 27.6362 28.6054Z" fill="#FFC250"/>
<path d="M20.479 22.3207V17.3494H21.3287C22.3604 17.3494 23.0052 16.2325 22.4893 15.3391L19.7657 10.6222C19.2499 9.72884 17.9605 9.7288 17.4446 10.6221L14.7207 15.339C14.2047 16.2325 14.8495 17.3494 15.8812 17.3494H16.7314V22.3207C16.7314 22.7864 17.109 23.164 17.5747 23.164H19.6357C20.1014 23.164 20.479 22.7864 20.479 22.3207Z" fill="#95D6A4"/>
<path d="M18.3506 23.1637H17.5746C17.109 23.1637 16.7316 22.7863 16.7316 22.3207V17.3489H15.8811C14.8494 17.3489 14.2046 16.2322 14.7209 15.3386L17.4444 10.6218C17.7023 10.1752 18.1536 9.95215 18.605 9.95215C18.3027 9.95215 18.0003 10.1752 17.8278 10.6218L16.0031 15.3386C15.6572 16.2322 16.0894 17.3489 16.7804 17.3489H17.1297C17.4919 17.3489 17.7855 17.6425 17.7855 18.0046V22.3202C17.7855 22.786 18.0387 23.1637 18.3506 23.1637Z" fill="#78C2A4"/>
<path d="M28.0387 16.086L28.0141 15.994C27.9272 15.6696 28.1062 15.3332 28.424 15.2243L29.4012 14.8892C29.7513 14.7692 30.1297 14.9708 30.2255 15.3282L30.2867 15.5568C30.3825 15.9142 30.1555 16.278 29.7924 16.3491L28.7785 16.5475C28.449 16.6121 28.1257 16.4104 28.0387 16.086Z" fill="#F7F493"/>
<path d="M26.4771 13.3322L26.4098 13.2649C26.1723 13.0274 26.1592 12.6466 26.3799 12.3934L27.0587 11.6146C27.3019 11.3357 27.7304 11.321 27.9921 11.5826L28.1594 11.75C28.4211 12.0116 28.4064 12.4402 28.1274 12.6833L27.3486 13.3621C27.0955 13.5828 26.7146 13.5697 26.4771 13.3322Z" fill="#F7F493"/>
<path d="M23.7492 11.7283L23.6572 11.7036C23.3328 11.6167 23.1311 11.2934 23.1956 10.9638L23.3941 9.94992C23.4651 9.58675 23.829 9.35979 24.1864 9.45556L24.4149 9.51679C24.7723 9.61257 24.9739 9.99104 24.8539 10.3411L24.5188 11.3183C24.41 11.6361 24.0737 11.8152 23.7492 11.7283Z" fill="#F7F493"/>
<path d="M32.27 20.1679C32.148 20.0383 31.944 20.0323 31.8145 20.1543C31.6849 20.2763 31.6788 20.4803 31.8009 20.6098C32.8034 21.6741 33.3555 23.0657 33.3555 24.5285C33.3555 27.6806 30.791 30.245 27.6389 30.245C24.487 30.245 21.9228 27.6806 21.9228 24.5285C21.9228 21.3766 24.487 18.8123 27.6389 18.8123C28.8026 18.8123 29.9221 19.1598 30.8764 19.8172C31.023 19.9181 31.2237 19.8812 31.3246 19.7347C31.4256 19.5881 31.3886 19.3874 31.2421 19.2865C30.1798 18.5547 28.9338 18.1678 27.6389 18.1678C27.1143 18.1678 26.6046 18.2321 26.1166 18.3524C25.8804 18.1053 25.5531 17.9629 25.2035 17.9629H25.0769C25.1805 17.7796 25.24 17.5681 25.24 17.3429V16.157C25.24 15.4597 24.6727 14.8924 23.9754 14.8924H22.6045L20.0465 10.4621C19.7458 9.94157 19.2075 9.63086 18.6064 9.63086C18.6063 9.63086 18.6061 9.63086 18.6061 9.63086C18.0054 9.63099 17.4674 9.94161 17.1672 10.4617L14.6088 14.8924H13.7828C13.0855 14.8924 12.5182 15.4597 12.5182 16.157V17.3429C12.5182 18.0402 13.0855 18.6075 13.7828 18.6075H13.9093C13.8057 18.7908 13.7462 19.0023 13.7462 19.2275V20.4134C13.7462 20.6386 13.8057 20.8501 13.9093 21.0335H13.2646C12.5673 21.0335 12 21.6006 12 22.2976V23.4836C12 24.1023 12.4468 24.6184 13.0347 24.7268C12.9235 24.915 12.8594 25.1342 12.8594 25.3682V26.5541C12.8594 26.8086 12.9352 27.0457 13.0651 27.2443C12.5708 27.4162 12.2148 27.8866 12.2148 28.4388V29.6247C12.2148 30.322 12.7821 30.8893 13.4794 30.8893H23.672C24.1507 30.8893 24.5761 30.6181 24.79 30.2147C25.6476 30.6461 26.6153 30.8896 27.6389 30.8896C31.1464 30.8896 34 28.036 34 24.5285C34 22.9008 33.3856 21.3522 32.27 20.1679ZM13.5039 26.5541V25.3682C13.5039 25.0263 13.782 24.7482 14.1239 24.7482H21.2825C21.3119 25.6111 21.5139 26.431 21.8552 27.1742H14.1239C13.782 27.1742 13.5039 26.896 13.5039 26.5541ZM25.2966 18.6148C24.0768 19.0996 23.0415 19.9517 22.3272 21.0335H20.803V18.6075H23.9754H25.2034C25.235 18.6075 25.266 18.6101 25.2966 18.6148ZM24.5954 16.157V17.3429C24.5954 17.6848 24.3173 17.963 23.9754 17.963H20.803V17.6728H21.3302C21.9313 17.6728 22.4696 17.362 22.7701 16.8413C23.0041 16.4358 23.055 15.9693 22.9244 15.5369H23.9754C24.3173 15.537 24.5954 15.8151 24.5954 16.157ZM13.1627 17.3429V16.157C13.1627 15.8151 13.4409 15.537 13.7828 15.537H14.2887C14.2077 15.8069 14.1965 16.0932 14.259 16.3708C14.2981 16.5444 14.4707 16.6535 14.6443 16.6144C14.8179 16.5752 14.9269 16.4027 14.8878 16.2291C14.8486 16.055 14.8365 15.7873 15.0016 15.5012L17.7254 10.7841C17.9092 10.4657 18.2385 10.2755 18.6062 10.2754H18.6064C18.9745 10.2754 19.3043 10.4657 19.4884 10.7845L22.2118 15.5013C22.3958 15.8198 22.3959 16.2004 22.2119 16.5191C22.0278 16.8379 21.6983 17.0283 21.3302 17.0283H20.4807C20.3028 17.0283 20.1585 17.1726 20.1585 17.3505V22.3216C20.1585 22.609 19.9247 22.8428 19.6373 22.8428H17.5765C17.2891 22.8428 17.0553 22.609 17.0553 22.3216V17.3505C17.0553 17.1726 16.911 17.0283 16.733 17.0283H15.8831C15.7607 17.0283 15.6426 17.0079 15.5322 16.9678C15.3648 16.9069 15.18 16.9932 15.1192 17.1605C15.0583 17.3278 15.1446 17.5127 15.3119 17.5735C15.4931 17.6394 15.6853 17.6728 15.8831 17.6728H16.4107V17.963H15.0108H13.7828C13.4409 17.963 13.1627 17.6848 13.1627 17.3429ZM14.3908 20.4135V19.2275C14.3908 18.8856 14.6689 18.6075 15.0108 18.6075H16.4107V21.0335H15.0108C14.6689 21.0335 14.3908 20.7554 14.3908 20.4135ZM12.6445 23.4836V22.2977C12.6445 21.956 12.9227 21.6781 13.2646 21.6781H15.0108H16.4107V22.3216C16.4107 22.9644 16.9337 23.4873 17.5765 23.4873H19.6373C20.28 23.4873 20.803 22.9644 20.803 22.3216V21.6781H21.9538C21.5822 22.4164 21.3503 23.2365 21.2928 24.1036H14.1239H13.2646C12.9227 24.1036 12.6445 23.8255 12.6445 23.4836ZM23.672 30.2447H13.4794C13.1375 30.2447 12.8594 29.9666 12.8594 29.6247V28.4388C12.8594 28.0969 13.1375 27.8187 13.4794 27.8187H14.1239H22.197C22.7058 28.6572 23.4028 29.3692 24.2289 29.896C24.1275 30.1035 23.9139 30.2447 23.672 30.2447Z" fill="black"/>
<path d="M28.2734 24.1938C28.1593 24.1606 28.0425 24.1257 27.9261 24.0893V22.6613C28.2721 22.7124 28.4788 22.8581 28.4944 22.8695C28.636 22.9753 28.8367 22.9473 28.9439 22.8062C29.0515 22.6645 29.0239 22.4623 28.8822 22.3547C28.8614 22.3389 28.5053 22.075 27.9261 22.0128V21.7344C27.9261 21.5564 27.7819 21.4121 27.6038 21.4121C27.4258 21.4121 27.2816 21.5564 27.2816 21.7344V22.0334C27.2194 22.0439 27.1559 22.057 27.091 22.0731C26.5477 22.2079 26.142 22.6225 26.0576 23.1292C25.9863 23.5566 26.1607 23.9634 26.5126 24.1907C26.7062 24.3158 26.9483 24.4304 27.2816 24.5521V26.3609C26.947 26.3468 26.7259 26.2904 26.3619 26.0943C26.2052 26.0099 26.0097 26.0685 25.9254 26.2252C25.8409 26.3819 25.8995 26.5773 26.0562 26.6618C26.5373 26.921 26.8488 26.9905 27.2816 27.0058V27.3222C27.2816 27.5002 27.4259 27.6445 27.6039 27.6445C27.7819 27.6445 27.9261 27.5002 27.9261 27.3222V26.9849C28.7751 26.8581 29.2925 26.2553 29.3756 25.6609C29.4691 24.9918 29.0364 24.416 28.2734 24.1938ZM26.8624 23.6493C26.6684 23.524 26.6795 23.3179 26.6933 23.2351C26.7269 23.0338 26.8897 22.7871 27.2461 22.6987C27.2581 22.6957 27.2698 22.6933 27.2815 22.6906V23.8606C27.1217 23.7941 26.9777 23.7238 26.8624 23.6493ZM28.7372 25.5717C28.6919 25.8955 28.4046 26.2232 27.9261 26.3291V24.7632C27.9802 24.7795 28.0355 24.7959 28.0932 24.8127C28.5513 24.946 28.786 25.2227 28.7372 25.5717Z" fill="black"/>
<path d="M27.6381 20.1279C25.212 20.1279 23.2383 22.1017 23.2383 24.5278C23.2383 26.9539 25.212 28.9276 27.6381 28.9276C30.0642 28.9276 32.0379 26.9539 32.0379 24.5278C32.0379 22.1017 30.0642 20.1279 27.6381 20.1279ZM27.6381 28.2831C25.5674 28.2831 23.8828 26.5985 23.8828 24.5278C23.8828 22.4571 25.5674 20.7724 27.6381 20.7724C29.7088 20.7724 31.3934 22.4571 31.3934 24.5278C31.3934 26.5985 29.7088 28.2831 27.6381 28.2831Z" fill="black"/>
<path d="M27.7045 16.0769L27.7291 16.1689C27.7291 16.1689 27.7291 16.1689 27.7291 16.1689C27.8432 16.5945 28.232 16.8812 28.6585 16.8812C28.7191 16.8812 28.7806 16.8754 28.8421 16.8633L29.856 16.6649C30.1164 16.6139 30.3464 16.4555 30.4868 16.2304C30.6273 16.0053 30.6685 15.7292 30.5998 15.4729L30.5385 15.2443C30.4698 14.988 30.2961 14.7694 30.0619 14.6447C29.8277 14.52 29.5494 14.4979 29.2984 14.5839L28.3212 14.9189C27.8451 15.0822 27.5742 15.5908 27.7045 16.0769ZM28.5303 15.5287L29.5075 15.1937C29.5913 15.1649 29.6807 15.172 29.759 15.2137C29.8373 15.2554 29.8931 15.3255 29.916 15.4112L29.9772 15.6398C30.0002 15.7254 29.987 15.814 29.94 15.8893C29.8931 15.9646 29.8193 16.0154 29.7323 16.0325L28.7184 16.2309C28.5551 16.2628 28.3946 16.1623 28.3518 16.0022L28.3271 15.9102C28.2842 15.75 28.3734 15.5824 28.5303 15.5287Z" fill="black"/>
<path d="M26.2541 13.5602C26.4404 13.7465 26.6869 13.8406 26.9341 13.8406C27.159 13.8406 27.3844 13.7626 27.5652 13.6051L28.344 12.9263C28.544 12.7519 28.6639 12.4998 28.673 12.2346C28.6822 11.9694 28.5797 11.7097 28.3921 11.5221L28.2248 11.3548C28.0372 11.1672 27.7776 11.0645 27.5122 11.0738C27.247 11.0829 26.9949 11.2029 26.8206 11.4029L26.1418 12.1817C25.8112 12.5611 25.8309 13.137 26.1867 13.4928L26.2541 13.5602ZM26.6277 12.6052L27.3066 11.8264C27.3648 11.7595 27.4457 11.721 27.5344 11.718C27.5381 11.7179 27.5419 11.7178 27.5456 11.7178C27.6301 11.7178 27.709 11.7505 27.7691 11.8105L27.9364 11.9779C27.9991 12.0406 28.032 12.1239 28.0289 12.2126C28.0259 12.3012 27.9874 12.3821 27.9206 12.4404L27.1417 13.1192C27.0169 13.2281 26.8271 13.2216 26.7098 13.1044L26.6426 13.0371C26.5253 12.9199 26.5188 12.7301 26.6277 12.6052Z" fill="black"/>
<path d="M23.5756 12.0145L23.6676 12.0391C23.7499 12.0612 23.8329 12.0717 23.9147 12.0717C24.316 12.0717 24.6899 11.8179 24.8255 11.4224L25.1605 10.4452C25.2466 10.1942 25.2244 9.9159 25.0997 9.68168C24.9749 9.4475 24.7564 9.27378 24.5001 9.20511L24.2716 9.14388C24.0152 9.07517 23.7392 9.11634 23.514 9.25685C23.2889 9.39731 23.1306 9.62724 23.0796 9.88763L22.8811 10.9015C22.7845 11.3953 23.0896 11.8842 23.5756 12.0145ZM23.5137 11.0253L23.7121 10.0114C23.7292 9.92441 23.78 9.85059 23.8552 9.80367C23.9063 9.77178 23.9636 9.75546 24.022 9.75546C24.0495 9.75546 24.0773 9.75911 24.1048 9.76646L24.3333 9.82769C24.419 9.85063 24.4891 9.9064 24.5308 9.98465C24.5725 10.0629 24.5797 10.1523 24.5509 10.2362L24.2159 11.2134C24.1621 11.3702 23.9946 11.4594 23.8344 11.4166C23.8344 11.4166 23.8344 11.4166 23.8344 11.4166L23.7424 11.392C23.5823 11.349 23.4818 11.1879 23.5137 11.0253Z" fill="black"/>
</g>
<defs>
<clipPath id="clip0_1402_3551">
<rect width="22" height="22" fill="white" transform="translate(12 9)"/>
</clipPath>
</defs>
</svg>
