<svg width="40" height="40" viewBox="0 0 40 40" fill="none" xmlns="http://www.w3.org/2000/svg">
<rect width="40" height="40" rx="20" fill="#2E305C"/>
<g clip-path="url(#clip0_172_7544)">
<path d="M23.5547 17.1094C20.0007 17.1094 17.1094 20.0007 17.1094 23.5547C17.1094 27.1086 20.0007 30 23.5547 30C27.1086 30 30 27.1086 30 23.5547C30 20.0007 27.1086 17.1094 23.5547 17.1094ZM23.5547 22.9688C24.524 22.9688 25.3125 23.7573 25.3125 24.7266C25.3125 25.4895 24.8212 26.1337 24.1406 26.3764V27.6562H22.9688V26.3764C22.2882 26.1337 21.7969 25.4895 21.7969 24.7266H22.9688C22.9688 25.0498 23.2314 25.3125 23.5547 25.3125C23.878 25.3125 24.1406 25.0498 24.1406 24.7266C24.1406 24.4033 23.878 24.1406 23.5547 24.1406C22.5854 24.1406 21.7969 23.3521 21.7969 22.3828C21.7969 21.6199 22.2882 20.9756 22.9688 20.7329V19.4531H24.1406V20.7329C24.8212 20.9756 25.3125 21.6199 25.3125 22.3828H24.1406C24.1406 22.0595 23.878 21.7969 23.5547 21.7969C23.2314 21.7969 22.9688 22.0595 22.9688 22.3828C22.9688 22.7061 23.2314 22.9688 23.5547 22.9688Z" fill="white"/>
<path d="M16.5234 17.1094C20.1375 17.1094 22.9688 15.565 22.9688 13.5938C22.9688 11.6225 20.1375 10 16.5234 10C12.9094 10 10 11.6225 10 13.5938C10 15.565 12.9094 17.1094 16.5234 17.1094Z" fill="white"/>
<path d="M10 23.1855V24.1403C10 26.1115 12.9094 27.6559 16.5234 27.6559C16.7284 27.6559 16.9271 27.637 17.1289 27.6271C16.6795 26.9205 16.3443 26.1363 16.1469 25.298C13.5334 25.2259 11.2641 24.4228 10 23.1855Z" fill="white"/>
<path d="M15.9657 24.1104C15.9522 23.9261 15.9375 23.742 15.9375 23.5543C15.9375 22.9435 16.0175 22.3523 16.154 21.7827C13.5373 21.7118 11.2653 20.9083 10 19.6699V20.6246C10 22.4913 12.6274 23.9583 15.9657 24.1104Z" fill="white"/>
<path d="M16.5234 20.6246C16.5241 20.6246 16.5246 20.6246 16.5252 20.6246C16.9117 19.701 17.4734 18.8684 18.1711 18.1708C17.6419 18.2377 17.095 18.2809 16.5234 18.2809C13.7415 18.2809 11.3252 17.4513 10 16.1543V17.109C10 19.0803 12.9094 20.6246 16.5234 20.6246Z" fill="white"/>
</g>
<defs>
<clipPath id="clip0_172_7544">
<rect width="20" height="20" fill="white" transform="translate(10 10)"/>
</clipPath>
</defs>
</svg>
