<svg width="42" height="42" viewBox="0 0 42 42" fill="none" xmlns="http://www.w3.org/2000/svg">
<rect width="42" height="42" rx="21" fill="white"/>
<g clip-path="url(#clip0_1402_3593)">
<path d="M24.2757 21.6247C27.9337 21.6247 30.8991 18.6593 30.8991 15.0013C30.8991 11.3433 27.9337 8.37793 24.2757 8.37793C20.6177 8.37793 17.6523 11.3433 17.6523 15.0013C17.6523 18.6593 20.6177 21.6247 24.2757 21.6247Z" fill="#FBD307"/>
<path d="M24.2785 20.1283C27.1096 20.1283 29.4047 17.8332 29.4047 15.0021C29.4047 12.171 27.1096 9.87598 24.2785 9.87598C21.4474 9.87598 19.1523 12.171 19.1523 15.0021C19.1523 17.8332 21.4474 20.1283 24.2785 20.1283Z" fill="#FBE77B"/>
<path d="M24.2755 9.87598C23.9215 9.87598 23.5759 9.91188 23.2422 9.98018C25.578 10.4582 27.335 12.525 27.335 15.0021C27.335 17.4793 25.578 19.546 23.2422 20.0241C23.576 20.0924 23.9215 20.1283 24.2755 20.1283C27.1066 20.1283 29.4016 17.8332 29.4016 15.0021C29.4016 12.171 27.1065 9.87598 24.2755 9.87598Z" fill="#FCDD2E"/>
<path d="M22.8123 23.4667C22.6972 23.4653 22.5862 23.4822 22.4821 23.5147C22.3038 23.5704 22.1218 23.443 22.1218 23.2562V17.2682C22.1218 16.6923 21.674 16.2018 21.0984 16.1814C20.4942 16.1599 19.9976 16.6433 19.9976 17.2428V22.3892C19.9976 21.7898 19.501 21.3063 18.8968 21.3278C18.3212 21.3483 17.8734 21.8388 17.8734 22.4147V23.4382C17.8734 22.8388 17.3768 22.3553 16.7726 22.3768C16.197 22.3972 15.7492 22.8877 15.7492 23.4636V24.0519C15.7492 23.4525 15.2526 22.9691 14.6483 22.9906C14.0728 23.011 13.625 23.5015 13.625 24.0774V27.5203C13.625 28.0972 13.7423 28.6682 13.9697 29.1984L14.8738 31.3355C15.0516 31.756 15.1433 32.2079 15.1433 32.6645V33.104H21.6972C21.7525 32.2853 22.0428 31.4976 22.5373 30.8377L23.0102 30.2066C23.5623 29.4699 23.8608 28.5741 23.8608 27.6534V24.5545C23.8609 23.9774 23.3894 23.4739 22.8123 23.4667Z" fill="#FFECE3"/>
<path d="M22.8086 23.4666C22.6943 23.4654 22.5842 23.4824 22.4808 23.5147C22.3024 23.5706 22.12 23.4434 22.12 23.2564V17.2669C22.12 16.7163 21.7106 16.2391 21.1627 16.1858C20.9296 16.1631 20.7111 16.2172 20.5269 16.3239C20.8441 16.5076 21.058 16.8498 21.058 17.2427V24.1561C21.058 24.6438 21.2297 25.1065 21.5298 25.4711C21.6957 25.6728 21.7925 25.9225 21.7925 26.1837V27.6533C21.7925 28.574 21.4941 29.4698 20.9419 30.2066L20.469 30.8376C19.9744 31.4975 19.6842 32.2852 19.6289 33.1039H21.6956C21.7509 32.2852 22.0411 31.4975 22.5356 30.8376L23.0086 30.2065C23.5607 29.4698 23.8591 28.574 23.8591 27.6533V24.5548C23.8591 23.9684 23.3949 23.4728 22.8086 23.4666Z" fill="#FFDDCE"/>
<path d="M18.906 21.3275C18.7235 21.3322 18.5536 21.3842 18.4062 21.4712C18.7219 21.6553 18.934 21.9975 18.934 22.3892V23.3687C18.934 23.9552 19.4095 24.4308 19.9961 24.4308V22.3892C19.9961 21.7933 19.5054 21.3121 18.906 21.3275Z" fill="#FFDDCE"/>
<path d="M17.875 23.4381C17.875 22.8422 17.3843 22.3609 16.7849 22.3763C16.6024 22.3811 16.4325 22.4331 16.2852 22.52C16.6008 22.7041 16.8129 23.0463 16.8129 23.4381V23.8262C16.8129 24.4128 17.2884 24.8883 17.875 24.8883V23.4381Z" fill="#FFDDCE"/>
<path d="M14.6599 22.9896C14.4774 22.9943 14.3075 23.0463 14.1602 23.1333C14.4758 23.3174 14.6879 23.6596 14.6879 24.0513V24.2832C14.6879 24.8698 15.1634 25.3453 15.75 25.3453V24.0513C15.7501 23.4554 15.2593 22.9742 14.6599 22.9896Z" fill="#FFDDCE"/>
<path d="M15.0041 33.6176H21.9388C22.3056 33.6176 22.603 33.3201 22.603 32.9533V32.257C22.603 31.8901 22.3056 31.5928 21.9388 31.5928H15.0041C14.6372 31.5928 14.3398 31.8902 14.3398 32.257V32.9533C14.3398 33.3201 14.6372 33.6176 15.0041 33.6176Z" fill="#7BA0B0"/>
<path d="M21.9377 31.5928H20.5354V32.9533C20.5354 33.3202 20.2379 33.6176 19.8711 33.6176H21.9377C22.3046 33.6176 22.602 33.3201 22.602 32.9533V32.257C22.602 31.8902 22.3045 31.5928 21.9377 31.5928Z" fill="#688B96"/>
<path d="M13.5727 13.6717H13.954V14.0531C13.954 14.2637 14.1248 14.4344 14.3354 14.4344C14.5459 14.4344 14.7167 14.2637 14.7167 14.0531V13.6717H15.098C15.3086 13.6717 15.4793 13.501 15.4793 13.2904C15.4793 13.0798 15.3086 12.9091 15.098 12.9091H14.7167V12.5278C14.7167 12.3172 14.5459 12.1465 14.3354 12.1465C14.1248 12.1465 13.954 12.3172 13.954 12.5278V12.9091H13.5727C13.3621 12.9091 13.1914 13.0798 13.1914 13.2904C13.1914 13.501 13.3621 13.6717 13.5727 13.6717Z" fill="black"/>
<path d="M28.6292 23.6806H28.2479V23.2993C28.2479 23.0886 28.0772 22.918 27.8666 22.918C27.656 22.918 27.4853 23.0887 27.4853 23.2993V23.6806H27.104C26.8933 23.6806 26.7227 23.8513 26.7227 24.0619C26.7227 24.2726 26.8934 24.4432 27.104 24.4432H27.4853V24.8246C27.4853 25.0352 27.656 25.2059 27.8666 25.2059C28.0772 25.2059 28.2479 25.0351 28.2479 24.8246V24.4432H28.6292C28.8399 24.4432 29.0106 24.2725 29.0106 24.0619C29.0106 23.8513 28.8398 23.6806 28.6292 23.6806Z" fill="black"/>
<path d="M32.4222 8.76166H32.0409V8.38034C32.0409 8.1697 31.8702 7.99902 31.6596 7.99902C31.449 7.99902 31.2783 8.16975 31.2783 8.38034V8.76166H30.8969C30.6863 8.76166 30.5156 8.93238 30.5156 9.14297C30.5156 9.35356 30.6864 9.52429 30.8969 9.52429H31.2783V9.90561C31.2783 10.1162 31.449 10.2869 31.6596 10.2869C31.8702 10.2869 32.0409 10.1162 32.0409 9.90561V9.52429H32.4222C32.6328 9.52429 32.8035 9.35356 32.8035 9.14297C32.8035 8.93238 32.6328 8.76166 32.4222 8.76166Z" fill="black"/>
<path d="M22.8157 23.0855C22.7099 23.084 22.6045 23.0943 22.5017 23.1158V20.2194C23.0698 20.413 23.6637 20.5111 24.2741 20.5111C27.3109 20.5111 29.7815 18.0404 29.7815 15.0036C29.7815 11.9667 27.3109 9.49609 24.2741 9.49609C21.2372 9.49609 18.7666 11.9668 18.7666 15.0036C18.7666 16.0484 19.06 17.0605 19.6148 17.9392V21.1156C19.3927 20.9963 19.1419 20.9373 18.8818 20.9469C18.1944 20.9713 17.622 21.5025 17.5103 22.1754C17.2833 22.0489 17.0255 21.9865 16.7575 21.9957C16.201 22.0155 15.7198 22.3675 15.4975 22.8581C15.2454 22.6857 14.946 22.5981 14.6333 22.6095C13.8662 22.6369 13.2422 23.2954 13.2422 24.0775V25.524C13.2422 25.7346 13.4129 25.9053 13.6235 25.9053C13.8341 25.9053 14.0048 25.7346 14.0048 25.524V24.0775C14.0048 23.7012 14.2989 23.3846 14.6604 23.3717C15.0471 23.3582 15.3664 23.6659 15.3664 24.052C15.3664 24.2626 15.5371 24.4333 15.7477 24.4333C15.9583 24.4333 16.129 24.2626 16.129 24.052V23.4637C16.129 23.0874 16.4231 22.7707 16.7846 22.7579C16.9717 22.7508 17.1484 22.8189 17.2824 22.9483C17.4167 23.0778 17.4905 23.2518 17.4905 23.4382C17.4905 23.6489 17.6613 23.8196 17.8719 23.8196C18.0825 23.8196 18.2532 23.6488 18.2532 23.4382V22.4147C18.2532 22.0385 18.5473 21.7218 18.9088 21.709C19.2973 21.696 19.6147 22.0045 19.6147 22.3892C19.6147 22.5999 19.7855 22.7706 19.996 22.7706C20.2066 22.7706 20.3774 22.5998 20.3774 22.3892C20.3774 21.7889 20.3774 18.6639 20.3774 17.2429C20.3774 16.8586 20.6943 16.5494 21.0833 16.5626C21.4448 16.5754 21.7389 16.892 21.7389 17.2684V23.2563C21.7389 23.704 22.1737 24.0101 22.5943 23.8788C22.6623 23.8575 22.7337 23.8478 22.8059 23.8481C23.1702 23.8527 23.4779 24.1762 23.4779 24.5546V27.6534C23.4779 28.4861 23.2029 29.3116 22.7035 29.9779C22.3259 30.4977 22.1046 30.7298 21.8485 31.2114H15.2336C15.2302 31.2034 15.227 31.195 15.2236 31.187L14.3187 29.0481C13.9497 28.1878 14.0118 27.4057 14.0049 27.3252C14.0049 27.1146 13.8342 26.9439 13.6236 26.9439C13.413 26.9439 13.2423 27.1146 13.2423 27.3252C13.2531 27.4481 13.1692 28.3027 13.6171 29.347L14.4682 31.3588C14.1617 31.5414 13.9552 31.8751 13.9552 32.257V32.9533C13.9552 33.5298 14.4243 33.9989 15.0008 33.9989H21.9355C22.5121 33.9989 22.9811 33.5298 22.9811 32.9533V32.257C22.9811 31.9292 22.8292 31.6364 22.5923 31.4445C22.7805 31.1199 22.901 30.9969 23.314 30.4353C23.9116 29.6379 24.2408 28.6499 24.2408 27.6534V24.5546C24.2407 23.7679 23.5882 23.0952 22.8157 23.0855ZM21.1106 15.8004C20.5352 15.7802 20.0394 16.0942 19.7889 16.5541C19.6178 16.0591 19.5293 15.5363 19.5293 15.0036C19.5293 12.3873 21.6578 10.2588 24.2741 10.2588C26.8904 10.2588 29.0189 12.3873 29.0189 15.0036C29.0189 17.6199 26.8904 19.7484 24.2741 19.7484C23.6593 19.7484 23.0643 19.6332 22.5017 19.406V17.4572C22.5291 17.4972 22.5646 17.5328 22.6077 17.561C23.095 17.8797 23.4249 17.9702 23.8585 17.9916V18.3844C23.8585 18.5951 24.0292 18.7658 24.2398 18.7658C24.4504 18.7658 24.6211 18.595 24.6211 18.3844V17.9519C25.4361 17.7732 25.9127 17.093 26.0197 16.4567C26.1595 15.6247 25.7244 14.9012 24.9111 14.6138C24.8157 14.5801 24.7184 14.545 24.6211 14.5086V12.7609C24.8693 12.83 25.0164 12.9546 25.0302 12.9667C25.1852 13.1069 25.4245 13.0964 25.5664 12.9425C25.7092 12.7877 25.6995 12.5464 25.5447 12.4037C25.5239 12.3845 25.1822 12.0771 24.6212 11.9807V11.6228C24.6212 11.4122 24.4505 11.2415 24.2399 11.2415C24.0293 11.2415 23.8586 11.4122 23.8586 11.6228V11.9965C23.7947 12.0097 23.7294 12.026 23.6628 12.0461C23.1268 12.2076 22.7263 12.6662 22.6176 13.243C22.4385 14.1935 22.9834 14.6376 23.8586 15.0225V17.2283C23.5455 17.2089 23.3563 17.1393 23.0253 16.9228C22.849 16.8075 22.6128 16.8569 22.4974 17.0332C22.4932 17.0396 22.4897 17.0464 22.4859 17.053C22.384 16.3687 21.8061 15.8251 21.1106 15.8004ZM24.6211 15.32C25.1387 15.5045 25.3437 15.8777 25.2676 16.3303C25.2129 16.6557 24.9933 17.0008 24.6211 17.1537V15.32ZM23.8585 14.1762C23.5025 13.9862 23.2828 13.8311 23.367 13.3842C23.4096 13.1584 23.5612 12.8862 23.8585 12.7847V14.1762ZM22.2184 32.9533C22.2184 33.1093 22.0915 33.2362 21.9355 33.2362H15.0008C14.8448 33.2362 14.7179 33.1093 14.7179 32.9533V32.257C14.7179 32.1005 14.8454 31.9741 15.0008 31.9741H21.9355C22.0892 31.9741 22.2184 32.0993 22.2184 32.257V32.9533Z" fill="black"/>
<path d="M24.2742 7.99902C20.4118 7.99902 17.2695 11.1413 17.2695 15.0037C17.2695 16.3334 17.6439 17.6275 18.3522 18.7459C18.4649 18.9237 18.7004 18.9768 18.8784 18.864C19.0563 18.7513 19.1092 18.5157 18.9965 18.3378C18.3656 17.3417 18.0322 16.1888 18.0322 15.0038C18.0322 11.5619 20.8323 8.76171 24.2742 8.76171C27.7161 8.76171 30.5163 11.5619 30.5163 15.0038C30.5163 18.4457 27.7161 21.2459 24.2742 21.2459C24.1403 21.2459 24.0046 21.2416 23.8709 21.233C23.6595 21.2189 23.4795 21.3791 23.4661 21.5892C23.4526 21.7994 23.6121 21.9807 23.8222 21.9941C23.972 22.0037 24.1241 22.0086 24.2742 22.0086C28.1366 22.0086 31.2789 18.8663 31.2789 15.0038C31.2789 11.1414 28.1366 7.99902 24.2742 7.99902V7.99902Z" fill="black"/>
</g>
<defs>
<clipPath id="clip0_1402_3593">
<rect width="26" height="26" fill="white" transform="translate(10 8)"/>
</clipPath>
</defs>
</svg>
