<svg width="112" height="112" viewBox="0 0 112 112" fill="none" xmlns="http://www.w3.org/2000/svg">
<rect width="112" height="112" rx="56" fill="#FFEDED"/>
<g clip-path="url(#clip0_160_5587)">
<path d="M54.2812 94.2812C75.4234 94.2812 92.5625 77.1422 92.5625 56C92.5625 34.8578 75.4234 17.7188 54.2812 17.7188C33.1391 17.7188 16 34.8578 16 56C16 77.1422 33.1391 94.2812 54.2812 94.2812Z" fill="#FFE177"/>
<path d="M72.2497 19.125C64.8581 19.125 58.3895 23.0734 54.8359 28.9758C56.5711 29.0109 58.2666 29.2106 59.9075 29.5594C62.8084 25.9422 67.2628 23.6216 72.2497 23.6216C80.9706 23.6216 88.0658 30.7166 88.0658 39.4375C88.0658 44.8856 85.2967 49.6991 81.0922 52.5447C81.2372 53.6763 81.3122 54.8295 81.3122 56C81.3122 56.5525 81.2934 57.1008 81.2606 57.6453C87.9577 54.3245 92.5622 47.4192 92.5622 39.4375C92.5622 28.2192 83.468 19.125 72.2497 19.125Z" fill="#FFF0AD"/>
<path d="M45.975 74.6522L52.6466 57.6413H81.418C81.4503 57.0981 81.4688 56.5513 81.4688 56C81.4688 54.7947 81.3894 53.6081 81.2373 52.4442C78.6834 54.2144 75.5861 55.2534 72.25 55.2534C63.5291 55.2534 56.4339 48.1584 56.4339 39.4375C56.4339 35.6397 57.7798 32.1506 60.0192 29.4213C58.1692 29.0238 56.25 28.8125 54.2812 28.8125C39.2659 28.8125 27.0938 40.9847 27.0938 56C27.0938 71.0153 39.2659 83.1875 54.2812 83.1875C62.0755 83.1875 69.1025 79.9069 74.0598 74.6522H45.975Z" fill="#AF66DA"/>
<path d="M36.3125 56C36.3125 42.558 46.0683 31.3961 58.8853 29.2044C57.3886 28.9486 55.8509 28.8125 54.2812 28.8125C39.2659 28.8125 27.0938 40.9847 27.0938 56C27.0938 71.0153 39.2659 83.1875 54.2812 83.1875C55.8509 83.1875 57.3886 83.0514 58.8853 82.7956C46.0683 80.6039 36.3125 69.442 36.3125 56Z" fill="#9857BD"/>
<path d="M34.488 50.8438V46.1562C34.488 45.7248 34.8378 45.375 35.2692 45.375H33.3438C32.9123 45.375 32.5625 45.7248 32.5625 46.1562V50.8438C32.5625 51.2752 32.9123 51.625 33.3438 51.625H35.2692C34.8378 51.625 34.488 51.2752 34.488 50.8438Z" fill="#814AA0"/>
<path d="M39.0895 75.0947L48.2945 51.625H46.369L37.164 75.0947C36.9631 75.6072 37.3409 76.1613 37.8914 76.1613H39.8169C39.2664 76.1613 38.8886 75.6072 39.0895 75.0947Z" fill="#814AA0"/>
<path d="M55.8425 88.8122C55.8425 89.2436 55.4927 89.5935 55.0613 89.5935H54.28C53.1899 89.5935 52.0899 89.5407 51.0108 89.4363L50.2332 89.3611C49.8036 89.3196 49.4891 88.9379 49.5307 88.5083L49.681 86.953C49.7225 86.5235 50.1043 86.2091 50.5338 86.2505L51.3114 86.3257C52.2911 86.4205 53.2899 86.4685 54.28 86.4685H55.0613C55.4927 86.4685 55.8425 86.8183 55.8425 87.2497V88.8122ZM45.3385 88.3996L43.0569 87.7133C43.0324 87.706 43.0083 87.6974 42.9847 87.6877L40.7805 86.7808C40.3814 86.6166 40.1911 86.16 40.3552 85.7611L40.9497 84.3161C41.1139 83.9171 41.5705 83.7268 41.9694 83.8908L44.0332 84.7399C44.0568 84.7496 44.081 84.7582 44.1054 84.7655L46.2385 85.4071C46.6516 85.5313 46.8858 85.9671 46.7616 86.3802L46.3116 87.8764C46.1874 88.2896 45.7518 88.5238 45.3385 88.3996ZM36.3747 84.4397L34.3896 83.1219C34.3685 83.1079 34.348 83.0929 34.3283 83.0769L32.4805 81.5725C32.146 81.3002 32.0955 80.808 32.3679 80.4735L33.3543 79.2618C33.6266 78.9272 34.1188 78.8768 34.4533 79.1491L36.1836 80.5579C36.2033 80.5738 36.2238 80.5889 36.2449 80.6029L38.1029 81.836C38.4624 82.0746 38.5604 82.5594 38.3218 82.9189L37.4575 84.2207C37.2189 84.5804 36.7341 84.6783 36.3747 84.4397ZM28.9361 78.065L27.4141 76.2347C27.3979 76.2154 27.3827 76.195 27.3685 76.1741L26.0286 74.2011C25.7863 73.8441 25.8791 73.3583 26.2361 73.116L27.5288 72.2383C27.8858 71.996 28.3716 72.0888 28.6139 72.4458L29.8661 74.29C29.8804 74.311 29.8955 74.3311 29.9118 74.3507L31.3391 76.0672C31.615 76.3989 31.5696 76.8916 31.2379 77.1674L30.0363 78.1663C29.7046 78.4421 29.2121 78.3968 28.9361 78.065ZM23.6421 69.8204L22.7119 67.626C22.7019 67.6024 22.6932 67.5785 22.6855 67.5539L21.9752 65.2799C21.8466 64.868 22.0761 64.4299 22.488 64.3013L23.9794 63.8355C24.3913 63.7069 24.8294 63.9365 24.958 64.3483L25.6225 66.4757C25.6302 66.5 25.6389 66.5241 25.649 66.5475L26.5193 68.6008C26.6877 68.998 26.5021 69.4566 26.1049 69.625L24.6663 70.2347C24.2689 70.4032 23.8105 70.2175 23.6421 69.8204ZM21.8221 61.0886C21.393 61.1346 21.008 60.8241 20.9621 60.395L20.8788 59.6183C20.7633 58.5404 20.6991 57.441 20.6879 56.3508L20.6797 55.5696C20.6752 55.1382 21.0214 54.7847 21.4529 54.7804L23.0152 54.7643C23.4466 54.7599 23.8 55.106 23.8044 55.5374L23.8124 56.3186C23.8225 57.3086 23.881 58.3068 23.9858 59.2854L24.0694 60.0622C24.1154 60.4913 23.8049 60.8763 23.3758 60.9222L21.8221 61.0886ZM23.2704 51.7991L21.7341 51.5141C21.3099 51.4354 21.0297 51.0277 21.1085 50.6035L21.251 49.8352C21.4496 48.7644 21.7035 47.6919 22.0057 46.6475L22.2227 45.8971C22.3425 45.4825 22.7758 45.2438 23.1902 45.3636L24.6913 45.7979C25.1058 45.9177 25.3446 46.351 25.2247 46.7654L25.0077 47.5158C24.7338 48.4625 24.5036 49.4347 24.3235 50.4055L24.181 51.1736C24.1022 51.5977 23.6946 51.8777 23.2704 51.7991ZM25.7949 43.0346L24.4074 42.3158C24.0243 42.1174 23.8746 41.646 24.073 41.2629L24.4322 40.5691C24.9327 39.6029 25.4869 38.6502 26.0793 37.7372L26.5046 37.0819C26.7394 36.72 27.2233 36.6171 27.5852 36.8519L28.8958 37.7025C29.2577 37.9374 29.3607 38.4213 29.1258 38.7832L27.9118 40.654C27.8979 40.6754 27.885 40.6972 27.8735 40.7199L26.8477 42.7C26.6494 43.0833 26.178 43.233 25.7949 43.0346ZM30.7516 35.374L29.6296 34.2865C29.3197 33.9861 29.3121 33.4916 29.6124 33.1818L31.2702 31.4715C31.2879 31.4533 31.3063 31.436 31.3255 31.4197L33.1422 29.8769C33.4711 29.5977 33.9641 29.6379 34.2435 29.9668L35.2549 31.1577C35.5343 31.4866 35.4939 31.9796 35.165 32.259L33.4647 33.7029C33.4455 33.7193 33.4271 33.7365 33.4094 33.7546L31.8564 35.3569C31.556 35.6666 31.0613 35.6743 30.7516 35.374ZM37.6999 29.4599L36.9379 28.0958C36.7274 27.7191 36.8622 27.2432 37.2389 27.0327L39.3188 25.8708C39.341 25.8583 39.3639 25.8471 39.3872 25.8369L41.5716 24.8835C41.9671 24.7108 42.4275 24.8916 42.6002 25.2871L43.2252 26.7191C43.3979 27.1146 43.2171 27.575 42.8216 27.7477L40.7793 28.6391C40.7558 28.6493 40.733 28.6607 40.7108 28.673L38.7629 29.761C38.3861 29.9713 37.9104 29.8366 37.6999 29.4599ZM46.0555 25.8024L45.7222 24.2758C45.6302 23.8543 45.8972 23.4379 46.3188 23.3458L47.0822 23.1791C48.1433 22.9475 49.2302 22.7654 50.3124 22.6379L51.0883 22.5465C51.5168 22.496 51.9052 22.8024 51.9557 23.231L52.1385 24.7827C52.1889 25.2111 51.8825 25.5996 51.4539 25.65L50.678 25.7415C49.6964 25.8571 48.711 26.0222 47.7488 26.2324L46.9855 26.399C46.5639 26.491 46.1475 26.224 46.0555 25.8024Z" fill="#AF66DA"/>
<path d="M78.3727 74.6523C77.9148 75.2431 77.4348 75.8197 76.931 76.3792C72.0973 81.7483 65.5605 85.2116 58.4548 86.1855C58.0355 86.243 57.7391 86.6242 57.7862 87.0447L57.9596 88.5981C58.0083 89.0353 58.4085 89.3456 58.8443 89.2864C66.6951 88.2188 73.9168 84.3978 79.2535 78.4702C80.3402 77.2631 81.3299 75.9864 82.2215 74.6523H78.3727Z" fill="#AF66DA"/>
<path d="M87.3386 57.4854H52.5403L45.7461 74.8088H87.3387C92.1225 74.8088 96.0005 70.9308 96.0005 66.1471C96.0003 61.3633 92.1223 57.4854 87.3386 57.4854Z" fill="#FFD15B"/>
<path d="M72.2495 55.4092C81.0707 55.4092 88.2217 48.2582 88.2217 39.437C88.2217 30.6158 81.0707 23.4648 72.2495 23.4648C63.4283 23.4648 56.2773 30.6158 56.2773 39.437C56.2773 48.2582 63.4283 55.4092 72.2495 55.4092Z" fill="#00F2A6"/>
<path d="M64.0552 39.4372C64.0552 31.9575 69.1969 25.6794 76.1384 23.9427C74.8934 23.6312 73.5911 23.4648 72.2495 23.4648C63.4283 23.4648 56.2773 30.6158 56.2773 39.437C56.2773 48.2583 63.4283 55.4094 72.2495 55.4094C73.5909 55.4094 74.8934 55.2431 76.1384 54.9316C69.1969 53.195 64.0552 46.9169 64.0552 39.4372Z" fill="#05E39C"/>
<path d="M80.2188 40.9997H72.25C71.387 40.9997 70.6875 40.3001 70.6875 39.4371V28.9248C70.6875 28.4934 71.0373 28.1436 71.4688 28.1436H73.0312C73.4627 28.1436 73.8125 28.4934 73.8125 28.9248V37.8746H80.2188C80.6502 37.8746 81 38.2245 81 38.6559V40.2184C81 40.6498 80.6502 40.9997 80.2188 40.9997Z" fill="#00C285"/>
<path d="M55.0633 46.268C54.4656 45.6792 53.6436 45.375 52.8047 45.375H35.2695C34.8381 45.375 34.4883 45.7248 34.4883 46.1562V50.8438C34.4883 51.2752 34.8381 51.625 35.2695 51.625H48.293L39.088 75.0947C38.887 75.6072 39.2648 76.1613 39.8153 76.1613H44.5308C45.045 76.1613 45.5067 75.8464 45.6945 75.3677L55.7845 49.6411C56.2355 48.4911 55.9722 47.1634 55.0633 46.268Z" fill="white"/>
<path d="M68.8309 66.4824V63.7362C68.8309 63.1095 68.3211 62.5996 67.6944 62.5996H66.8664C66.7891 62.5996 66.7136 62.6076 66.6406 62.6223C67.1595 62.7273 67.5516 63.1868 67.5516 63.7362V66.4824H68.8309Z" fill="#F6AB31"/>
<path d="M68.8302 71.3309V68.9004H67.5508V71.3309C67.5508 71.7623 67.9006 72.1121 68.332 72.1121H69.1881C69.262 72.1121 69.332 72.0985 69.3998 72.0795C69.0719 71.9866 68.8302 71.6885 68.8302 71.3309Z" fill="#F6AB31"/>
<path d="M63.3108 71.3311V63.7358C63.3108 61.8482 64.782 60.305 66.6403 60.1885C66.5656 60.1838 66.4905 60.1807 66.4145 60.1807H65.5866C63.8281 60.1807 62.3689 61.4575 62.083 63.1346C62.1898 63.5 62.2483 63.886 62.2483 64.2854V68.0075C62.2483 68.4671 62.1713 68.9088 62.0312 69.3218V71.3311C62.0312 71.7625 62.3811 72.1124 62.8125 72.1124H63.6686C63.7425 72.1124 63.8125 72.0988 63.8803 72.0797C63.5525 71.9869 63.3108 71.6888 63.3108 71.3311Z" fill="#F6AB31"/>
<path d="M56.8633 69.6941H58.1427C59.0723 69.6941 59.8288 68.9377 59.8288 68.0079V64.2857C59.8288 63.356 59.0723 62.5996 58.1427 62.5996H56.8633C57.793 62.5996 58.5494 63.356 58.5494 64.2857V68.0079C58.5494 68.9377 57.793 69.6941 56.8633 69.6941Z" fill="#F6AB31"/>
<path d="M54.3106 70.9032V61.39C54.3106 60.7222 54.852 60.1807 55.52 60.1807H54.2406C53.5728 60.1807 53.0312 60.7221 53.0312 61.39V70.9032C53.0312 71.571 53.5727 72.1125 54.2406 72.1125H55.52C54.8522 72.1124 54.3106 71.571 54.3106 70.9032Z" fill="#F6AB31"/>
<path d="M76.2805 63.5714L77.882 60.5919C77.9936 60.3843 78.1917 60.2424 78.4178 60.1974C78.3678 60.1875 78.3166 60.1807 78.2627 60.1807H77.2906C77.003 60.1807 76.7386 60.3386 76.6025 60.5921L75.6406 62.3816L76.2805 63.5714Z" fill="#F6AB31"/>
<path d="M75.0714 71.331V66.4299L72.3308 61.3318C72.0764 60.8586 72.3655 60.2963 72.8638 60.1974C72.8139 60.1874 72.7633 60.1807 72.7114 60.1807H71.7394C71.1485 60.1807 70.7714 60.8113 71.0513 61.3318L73.7919 66.4299V71.331C73.7919 71.7624 74.1417 72.1122 74.5731 72.1122H75.4292C75.5031 72.1122 75.5731 72.0986 75.641 72.0796C75.3131 71.9868 75.0714 71.6886 75.0714 71.331Z" fill="#F6AB31"/>
<path d="M84.8867 69.6934H86.1661C86.5362 69.6934 86.8362 69.3934 86.8362 69.0233V68.0256C86.8362 67.6555 86.5362 67.3555 86.1661 67.3555H84.8867C85.2569 67.3555 85.5569 67.6555 85.5569 68.0256V69.0233C85.5569 69.3934 85.2569 69.6934 84.8867 69.6934Z" fill="#F6AB31"/>
<path d="M83.1239 67.3558H84.4033C82.6973 67.3558 81.3145 65.973 81.3145 64.2671V63.2694C81.3145 61.5635 82.6973 60.1807 84.4033 60.1807H83.1239C81.418 60.1807 80.0352 61.5635 80.0352 63.2694V64.2671C80.0352 65.973 81.4181 67.3558 83.1239 67.3558Z" fill="#F6AB31"/>
<path d="M81.5958 71.3307V70.4746C81.5958 70.0432 81.9456 69.6934 82.377 69.6934H81.0977C80.6663 69.6934 80.3164 70.0432 80.3164 70.4746V71.3307C80.3164 71.7621 80.6663 72.112 81.0977 72.112H82.377C81.9455 72.112 81.5958 71.7623 81.5958 71.3307Z" fill="#F6AB31"/>
<path d="M67.6956 60.1807H66.8677C64.9042 60.1807 63.3125 61.7724 63.3125 63.7358V71.3311C63.3125 71.7625 63.6623 72.1124 64.0937 72.1124H64.9498C65.3813 72.1124 65.7311 71.7625 65.7311 71.3311V68.9007H68.8323V71.3311C68.8323 71.7625 69.1822 72.1124 69.6136 72.1124H70.4697C70.9011 72.1124 71.2509 71.7625 71.2509 71.3311V63.7358C71.2509 61.7724 69.6592 60.1807 67.6956 60.1807ZM65.7311 66.4821V63.7358C65.7311 63.1091 66.2411 62.5993 66.8678 62.5993H67.6958C68.3225 62.5993 68.8323 63.1091 68.8323 63.7358V66.4821H65.7311Z" fill="white"/>
<path d="M58.1462 60.1807H55.5219C54.8541 60.1807 54.3125 60.7221 54.3125 61.39V70.9032C54.3125 71.571 54.8539 72.1125 55.5219 72.1125H58.1462C60.4095 72.1125 62.2509 70.2711 62.2509 68.0079V64.2857C62.2509 62.0221 60.4095 60.1807 58.1462 60.1807ZM59.8323 68.0077C59.8323 68.9374 59.0759 69.6938 58.1462 69.6938H56.7311V62.5993H58.1462C59.0759 62.5993 59.8323 63.3557 59.8323 64.2854V68.0077Z" fill="white"/>
<path d="M77.8841 60.5922L76.2825 63.5718L74.6808 60.5922C74.5445 60.3389 74.2803 60.1808 73.9927 60.1808H73.0206C72.4297 60.1808 72.0527 60.8114 72.3325 61.3319L75.0731 66.43V71.3311C75.0731 71.7625 75.423 72.1124 75.8544 72.1124H76.7105C77.1419 72.1124 77.4917 71.7625 77.4917 71.3311V66.43L80.2324 61.3318C80.5122 60.8113 80.1352 60.1807 79.5442 60.1807H78.5722C78.2847 60.1808 78.0203 60.3388 77.8841 60.5922Z" fill="white"/>
<path d="M86.1661 64.9372H84.4052C84.035 64.9372 83.735 64.6372 83.735 64.2671V63.2694C83.735 62.8993 84.035 62.5993 84.4052 62.5993H88.193C88.6244 62.5993 88.9742 62.2494 88.9742 61.818V60.9619C88.9742 60.5305 88.6244 60.1807 88.193 60.1807H84.4052C82.6992 60.1807 81.3164 61.5635 81.3164 63.2694V64.2671C81.3164 65.973 82.6992 67.3558 84.4052 67.3558H86.1661C86.5362 67.3558 86.8362 67.6558 86.8362 68.026V69.0236C86.8362 69.3938 86.5362 69.6938 86.1661 69.6938H82.3783C81.9469 69.6938 81.597 70.0436 81.597 70.475V71.3311C81.597 71.7625 81.9469 72.1124 82.3783 72.1124H86.1661C87.872 72.1124 89.2548 70.7296 89.2548 69.0236V68.026C89.2548 66.3202 87.8719 64.9372 86.1661 64.9372Z" fill="white"/>
</g>
<defs>
<clipPath id="clip0_160_5587">
<rect width="80" height="80" fill="white" transform="translate(16 16)"/>
</clipPath>
</defs>
</svg>
