<svg xmlns="http://www.w3.org/2000/svg" width="40" height="40" viewBox="0 0 40 40">
  <g id="Group_1978" data-name="Group 1978" transform="translate(-6482 -266)">
    <rect id="Rectangle_633" data-name="Rectangle 633" width="40" height="40" rx="20" transform="translate(6482 266)"/>
    <path id="attach_money_FILL0_wght400_GRAD0_opsz48" d="M20.768,33.212V30.038a6.839,6.839,0,0,1-3.534-1.644A7.141,7.141,0,0,1,15.25,25.2l2.117-.869a5.515,5.515,0,0,0,1.852,2.7,4.781,4.781,0,0,0,2.91.888,4.735,4.735,0,0,0,2.986-.907,2.981,2.981,0,0,0,1.172-2.494,3.229,3.229,0,0,0-1.039-2.57A12.119,12.119,0,0,0,21.335,20.1a9.354,9.354,0,0,1-4.063-2.305A5.056,5.056,0,0,1,15.93,14.2a4.826,4.826,0,0,1,1.342-3.477,5.3,5.3,0,0,1,3.5-1.587V6h2.268V9.137a5.835,5.835,0,0,1,2.929,1.115,5.947,5.947,0,0,1,1.871,2.362l-2.117.907A3.741,3.741,0,0,0,24.3,11.764a4.378,4.378,0,0,0-2.324-.548,4.38,4.38,0,0,0-2.759.794,2.584,2.584,0,0,0-1.02,2.154,2.813,2.813,0,0,0,1.134,2.324,14.1,14.1,0,0,0,4.2,1.833,7.716,7.716,0,0,1,3.8,2.287,5.723,5.723,0,0,1,1.228,3.761,5.3,5.3,0,0,1-1.4,3.836,6.993,6.993,0,0,1-4.12,1.871v3.137Z" transform="translate(6480.098 266.394)" fill="#fff"/>
  </g>
</svg>
