<svg width="25" height="25" viewBox="0 0 25 25" fill="none" xmlns="http://www.w3.org/2000/svg">
<circle cx="12.5" cy="12.5" r="12.5" fill="white"/>
<path d="M20 7.41882C19.4489 7.66129 18.8561 7.82294 18.2307 7.89953C18.8664 7.52471 19.3558 6.92682 19.5853 6.22024C18.9905 6.56647 18.3313 6.82094 17.6302 6.95506C17.0701 6.36565 16.2713 6 15.3865 6C13.6869 6 12.3088 7.35635 12.3088 9.02894C12.3088 9.26576 12.3369 9.49624 12.3891 9.72C9.83204 9.59259 7.56384 8.38518 6.0465 6.55271C5.77999 7.00059 5.63003 7.52471 5.63003 8.07812C5.63003 9.12953 6.17194 10.0553 6.99848 10.6006C6.49389 10.5854 6.01914 10.446 5.60338 10.2222C5.60338 10.2314 5.60338 10.2448 5.60338 10.2579C5.60338 11.7272 6.66446 12.9508 8.07093 13.2293C7.81401 13.2992 7.54217 13.338 7.26215 13.338C7.06351 13.338 6.86985 13.3158 6.68222 13.2822C7.07382 14.4829 8.20987 15.3607 9.55593 15.3868C8.50268 16.1979 7.17616 16.6835 5.7338 16.6835C5.4847 16.6835 5.24093 16.6694 5 16.6405C6.36347 17.4978 7.98138 18 9.71833 18C15.378 18 18.4745 13.3839 18.4745 9.37906C18.4745 9.24776 18.4702 9.11718 18.4642 8.988C19.0683 8.56412 19.5889 8.02976 20 7.41882Z" fill="url(#paint0_linear_467_8)"/>
<defs>
<linearGradient id="paint0_linear_467_8" x1="7.29129" y1="6.46306" x2="18.0406" y2="17.2857" gradientUnits="userSpaceOnUse">
<stop stop-color="#2AA4F4"/>
<stop offset="1" stop-color="#007AD9"/>
</linearGradient>
</defs>
</svg>
