<svg xmlns="http://www.w3.org/2000/svg" width="25" height="25" viewBox="0 0 25 25">
  <g id="Group_7" data-name="Group 7" transform="translate(-2745 -1138)">
    <rect id="Rectangle_3" data-name="Rectangle 3" width="25" height="25" rx="12.5" transform="translate(2745 1138)" fill="#fff"/>
    <g id="youtube-svgrepo-com" transform="translate(2750 1077.607)">
      <path id="Path_1" data-name="Path 1" d="M11.482,67.393H3.01A3.01,3.01,0,0,0,0,70.4v4.235a3.01,3.01,0,0,0,3.01,3.01h8.472a3.01,3.01,0,0,0,3.01-3.01V70.4A3.01,3.01,0,0,0,11.482,67.393ZM9.447,72.726l-3.963,1.89a.159.159,0,0,1-.228-.144v-3.9a.159.159,0,0,1,.231-.142L9.45,72.441A.159.159,0,0,1,9.447,72.726Z" transform="translate(0 0)" fill="#f61c0d"/>
    </g>
  </g>
</svg>
