<svg width="86" height="64" viewBox="0 0 86 64" fill="none" xmlns="http://www.w3.org/2000/svg">
<rect x="10" width="64" height="64" rx="32" fill="#FFE4E4"/>
<g clip-path="url(#clip0_1402_1966)">
<path d="M46.9951 32.9522C52.5692 32.9522 57.0879 28.4335 57.0879 22.8594C57.0879 17.2853 52.5692 12.7666 46.9951 12.7666C41.421 12.7666 36.9023 17.2853 36.9023 22.8594C36.9023 28.4335 41.421 32.9522 46.9951 32.9522Z" fill="#FBD307"/>
<path d="M46.9949 30.6724C51.3089 30.6724 54.8062 27.1752 54.8062 22.8611C54.8062 18.547 51.3089 15.0498 46.9949 15.0498C42.6808 15.0498 39.1836 18.547 39.1836 22.8611C39.1836 27.1752 42.6808 30.6724 46.9949 30.6724Z" fill="#FBE77B"/>
<path d="M46.9964 15.0488C46.4571 15.0488 45.9304 15.1035 45.4219 15.2076C48.9812 15.9361 51.6585 19.0854 51.6585 22.8601C51.6585 26.6348 48.9812 29.7842 45.4219 30.5126C45.9305 30.6167 46.4571 30.6714 46.9964 30.6714C51.3105 30.6714 54.8077 27.1742 54.8077 22.8601C54.8076 18.5461 51.3104 15.0488 46.9964 15.0488Z" fill="#FCDD2E"/>
<path d="M44.7654 35.7588C44.5899 35.7566 44.4207 35.7824 44.2621 35.832C43.9905 35.9168 43.7132 35.7226 43.7132 35.4381V26.3135C43.7132 25.4359 43.0307 24.6885 42.1537 24.6573C41.2329 24.6246 40.4762 25.3612 40.4762 26.2747V34.1169C40.4762 33.2035 39.7195 32.4668 38.7988 32.4995C37.9217 32.5307 37.2394 33.2782 37.2394 34.1557V35.7153C37.2394 34.8019 36.4827 34.0652 35.5619 34.0979C34.6849 34.1291 34.0025 34.8765 34.0025 35.7541V36.6506C34.0025 35.7372 33.2458 35.0005 32.325 35.0332C31.448 35.0644 30.7656 35.8118 30.7656 36.6894V41.9357C30.7656 42.8148 30.9443 43.6848 31.2908 44.4927L32.6685 47.7494C32.9396 48.3901 33.0792 49.0787 33.0792 49.7745V50.4442H43.0661C43.1504 49.1967 43.5927 47.9964 44.3462 46.9908L45.0669 46.0291C45.9082 44.9065 46.363 43.5414 46.363 42.1386V37.4164C46.3631 36.5371 45.6447 35.7697 44.7654 35.7588Z" fill="#FFECE3"/>
<path d="M44.7632 35.7587C44.589 35.7568 44.4212 35.7827 44.2638 35.832C43.9918 35.9172 43.714 35.7232 43.714 35.4383V26.3115C43.714 25.4725 43.09 24.7453 42.2551 24.664C41.8999 24.6294 41.567 24.7119 41.2864 24.8745C41.7696 25.1545 42.0956 25.6759 42.0956 26.2746V36.8094C42.0956 37.5525 42.3573 38.2576 42.8145 38.8131C43.0674 39.1205 43.2149 39.5009 43.2149 39.899V42.1384C43.2149 43.5413 42.7601 44.9064 41.9187 46.0291L41.1981 46.9907C40.4445 47.9963 40.0022 49.1965 39.918 50.444H43.0671C43.1514 49.1965 43.5937 47.9963 44.3473 46.9907L45.068 46.029C45.9093 44.9064 46.364 43.5413 46.364 42.1384V37.4169C46.364 36.5232 45.6567 35.7681 44.7632 35.7587Z" fill="#FFDDCE"/>
<path d="M38.8162 32.4986C38.5382 32.5058 38.2792 32.585 38.0547 32.7175C38.5357 32.998 38.8589 33.5195 38.8589 34.1164V35.6089C38.8589 36.5028 39.5835 37.2273 40.4773 37.2273V34.1165C40.4773 33.2084 39.7296 32.4751 38.8162 32.4986Z" fill="#FFDDCE"/>
<path d="M37.239 35.7151C37.239 34.807 36.4912 34.0737 35.5779 34.0972C35.2999 34.1044 35.041 34.1837 34.8164 34.3161C35.2974 34.5967 35.6206 35.1181 35.6206 35.7151V36.3065C35.6206 37.2004 36.3452 37.925 37.239 37.925V35.7151Z" fill="#FFDDCE"/>
<path d="M32.3396 35.0318C32.0616 35.039 31.8027 35.1182 31.5781 35.2507C32.0591 35.5312 32.3823 36.0527 32.3823 36.6496V37.003C32.3823 37.8968 33.1069 38.6214 34.0008 38.6214V36.6496C34.0008 35.7416 33.253 35.0083 32.3396 35.0318Z" fill="#FFDDCE"/>
<path d="M32.8638 51.227H43.4308C43.9899 51.227 44.4431 50.7738 44.4431 50.2148V49.1538C44.4431 48.5947 43.9898 48.1416 43.4308 48.1416H32.8638C32.3047 48.1416 31.8516 48.5948 31.8516 49.1538V50.2148C31.8516 50.7738 32.3047 51.227 32.8638 51.227Z" fill="#7BA0B0"/>
<path d="M43.4303 48.1416H41.2935V50.2148C41.2935 50.7739 40.8403 51.227 40.2812 51.227H43.4304C43.9895 51.227 44.4426 50.7738 44.4426 50.2148V49.1538C44.4426 48.5948 43.9893 48.1416 43.4303 48.1416Z" fill="#688B96"/>
<path d="M30.6865 20.833H31.2676V21.4141C31.2676 21.735 31.5277 21.9951 31.8486 21.9951C32.1695 21.9951 32.4297 21.735 32.4297 21.4141V20.833H33.0107C33.3316 20.833 33.5918 20.5728 33.5918 20.2519C33.5918 19.931 33.3316 19.6709 33.0107 19.6709H32.4297V19.0898C32.4297 18.7689 32.1695 18.5088 31.8486 18.5088C31.5277 18.5088 31.2676 18.7689 31.2676 19.0898V19.6709H30.6865C30.3656 19.6709 30.1055 19.9311 30.1055 20.2519C30.1055 20.5728 30.3656 20.833 30.6865 20.833Z" fill="black"/>
<path d="M53.6318 36.084H53.0508V35.5029C53.0508 35.182 52.7906 34.9219 52.4697 34.9219C52.1488 34.9219 51.8887 35.182 51.8887 35.5029V36.084H51.3076C50.9866 36.084 50.7266 36.3441 50.7266 36.665C50.7266 36.986 50.9867 37.2461 51.3076 37.2461H51.8887V37.8271C51.8887 38.1481 52.1488 38.4082 52.4697 38.4082C52.7906 38.4082 53.0508 38.148 53.0508 37.8271V37.2461H53.6318C53.9528 37.2461 54.2129 36.9859 54.2129 36.665C54.2129 36.3441 53.9527 36.084 53.6318 36.084Z" fill="black"/>
<path d="M59.4092 13.3506H58.8281V12.7695C58.8281 12.4486 58.568 12.1885 58.2471 12.1885C57.9262 12.1885 57.666 12.4486 57.666 12.7695V13.3506H57.085C56.764 13.3506 56.5039 13.6107 56.5039 13.9316C56.5039 14.2525 56.7641 14.5127 57.085 14.5127H57.666V15.0937C57.666 15.4147 57.9262 15.6748 58.2471 15.6748C58.568 15.6748 58.8281 15.4146 58.8281 15.0937V14.5127H59.4092C59.7301 14.5127 59.9902 14.2525 59.9902 13.9316C59.9902 13.6107 59.7301 13.3506 59.4092 13.3506Z" fill="black"/>
<path d="M44.7679 35.1774C44.6067 35.1752 44.4461 35.1909 44.2895 35.2235V30.81C45.1551 31.1051 46.06 31.2544 46.9902 31.2544C51.6177 31.2544 55.3825 27.4897 55.3825 22.8621C55.3825 18.2345 51.6178 14.4697 46.9902 14.4697C42.3626 14.4697 38.5978 18.2345 38.5978 22.8622C38.5978 24.4543 39.045 25.9965 39.8904 27.3354V32.1756C39.5518 31.9939 39.1697 31.9039 38.7733 31.9185C37.726 31.9557 36.8536 32.7652 36.6835 33.7905C36.3376 33.5978 35.9448 33.5027 35.5364 33.5168C34.6884 33.5469 33.955 34.0833 33.6163 34.8308C33.2321 34.5681 32.776 34.4346 32.2995 34.4521C31.1306 34.4938 30.1797 35.4972 30.1797 36.689V38.8932C30.1797 39.2141 30.4398 39.4742 30.7607 39.4742C31.0816 39.4742 31.3418 39.2141 31.3418 38.8932V36.689C31.3418 36.1156 31.79 35.6331 32.3408 35.6135C32.93 35.5929 33.4165 36.0618 33.4165 36.6501C33.4165 36.9711 33.6767 37.2312 33.9976 37.2312C34.3185 37.2312 34.5786 36.971 34.5786 36.6501V35.7537C34.5786 35.1803 35.0268 34.6977 35.5776 34.6782C35.8627 34.6674 36.132 34.7711 36.3363 34.9683C36.5408 35.1657 36.6534 35.4308 36.6534 35.7149C36.6534 36.0359 36.9135 36.296 37.2344 36.296C37.5553 36.296 37.8155 36.0358 37.8155 35.7149V34.1553C37.8155 33.5819 38.2636 33.0994 38.8145 33.0798C39.4065 33.06 39.8902 33.5302 39.8902 34.1164C39.8902 34.4374 40.1504 34.6975 40.4713 34.6975C40.7922 34.6975 41.0523 34.4373 41.0523 34.1164C41.0523 33.2016 41.0523 28.4397 41.0523 26.2743C41.0523 25.6887 41.5353 25.2176 42.1281 25.2377C42.679 25.2573 43.1271 25.7397 43.1271 26.3132V35.4377C43.1271 36.1198 43.7897 36.5864 44.4306 36.3863C44.5342 36.3538 44.643 36.339 44.753 36.3394C45.3081 36.3464 45.777 36.8394 45.777 37.416V42.1381C45.777 43.4069 45.3579 44.6648 44.5969 45.6802C44.0215 46.4722 43.6843 46.8258 43.2941 47.5598H33.2142C33.2091 47.5475 33.2041 47.5348 33.1989 47.5226L31.8201 44.2633C31.2578 42.9523 31.3524 41.7606 31.3419 41.6379C31.3419 41.317 31.0818 41.0569 30.7609 41.0569C30.44 41.0569 30.1798 41.317 30.1798 41.6379C30.1962 41.8251 30.0685 43.1275 30.751 44.7187L32.0479 47.7844C31.5808 48.0625 31.2662 48.571 31.2662 49.153V50.214C31.2662 51.0926 31.981 51.8074 32.8595 51.8074H43.4266C44.3052 51.8074 45.02 51.0926 45.02 50.214V49.153C45.02 48.6535 44.7884 48.2074 44.4275 47.9149C44.7143 47.4202 44.8979 47.2329 45.5273 46.3771C46.4379 45.162 46.9395 43.6565 46.9395 42.138V37.416C46.9394 36.2173 45.945 35.1921 44.7679 35.1774ZM42.1696 24.0763C41.2929 24.0455 40.5374 24.524 40.1556 25.2248C39.8949 24.4705 39.76 23.6739 39.76 22.8622C39.76 18.8753 43.0034 15.6319 46.9902 15.6319C50.9769 15.6319 54.2203 18.8753 54.2203 22.8622C54.2203 26.8489 50.9769 30.0923 46.9902 30.0923C46.0534 30.0923 45.1467 29.9167 44.2895 29.5705V26.6009C44.3312 26.6619 44.3852 26.7162 44.451 26.7591C45.1935 27.2448 45.6963 27.3826 46.357 27.4153V28.0139C46.357 28.3348 46.6171 28.5949 46.938 28.5949C47.2589 28.5949 47.5191 28.3348 47.5191 28.0139V27.3548C48.7609 27.0824 49.4872 26.0459 49.6501 25.0763C49.8632 23.8085 49.2002 22.7062 47.9608 22.2681C47.8156 22.2168 47.6673 22.1633 47.5191 22.1078V19.4446C47.8971 19.55 48.1213 19.7398 48.1424 19.7583C48.3785 19.972 48.7431 19.9559 48.9595 19.7214C49.1771 19.4855 49.1622 19.1178 48.9264 18.9003C48.8947 18.8712 48.374 18.4026 47.5191 18.2558V17.7104C47.5191 17.3895 47.259 17.1294 46.9381 17.1294C46.6172 17.1294 46.357 17.3895 46.357 17.7104V18.2798C46.2597 18.3 46.1602 18.3248 46.0587 18.3554C45.242 18.6015 44.6317 19.3003 44.4661 20.1793C44.1931 21.6276 45.0234 22.3044 46.3571 22.8909V26.2521C45.8799 26.2226 45.5917 26.1165 45.0873 25.7866C44.8186 25.611 44.4586 25.6862 44.2829 25.9548C44.2765 25.9647 44.2711 25.9749 44.2653 25.9849C44.11 24.9423 43.2294 24.1139 42.1696 24.0763ZM47.5191 23.3443C48.3076 23.6254 48.6201 24.194 48.5041 24.8837C48.4208 25.3796 48.0862 25.9055 47.5191 26.1385V23.3443ZM46.357 21.6014C45.8145 21.3118 45.4797 21.0755 45.608 20.3944C45.6728 20.0504 45.904 19.6356 46.357 19.481V21.6014ZM43.8578 50.214C43.8578 50.4517 43.6643 50.6452 43.4266 50.6452H32.8595C32.6218 50.6452 32.4284 50.4517 32.4284 50.214V49.153C32.4284 48.9145 32.6226 48.7219 32.8595 48.7219H43.4266C43.6608 48.7219 43.8578 48.9127 43.8578 49.153V50.214Z" fill="black"/>
<path d="M46.9902 12.1885C41.1046 12.1885 36.3164 16.9767 36.3164 22.8623C36.3164 24.8885 36.8869 26.8604 37.9662 28.5646C38.1379 28.8357 38.4968 28.9165 38.768 28.7446C39.0391 28.5729 39.1197 28.2139 38.948 27.9429C37.9867 26.4249 37.4785 24.6681 37.4785 22.8624C37.4785 17.6176 41.7455 13.3507 46.9902 13.3507C52.235 13.3507 56.5019 17.6176 56.5019 22.8624C56.5019 28.1072 52.235 32.3741 46.9902 32.3741C46.7861 32.3741 46.5794 32.3676 46.3757 32.3546C46.0536 32.3331 45.7792 32.5771 45.7587 32.8973C45.7382 33.2176 45.9813 33.4939 46.3015 33.5143C46.5298 33.5289 46.7614 33.5363 46.9902 33.5363C52.8758 33.5363 57.664 28.7481 57.664 22.8625C57.664 16.9769 52.8758 12.1885 46.9902 12.1885V12.1885Z" fill="black"/>
</g>
<path d="M4.16667 12.6667H3.33334V11.8333C3.33334 11.373 2.96023 11 2.5 11C2.03978 11 1.66667 11.3731 1.66667 11.8333V12.6667H0.833334C0.372997 12.6667 0 13.0398 0 13.5C0 13.9603 0.373108 14.3333 0.833334 14.3333H1.66667V15.1667C1.66667 15.627 2.03978 16 2.5 16C2.96023 16 3.33334 15.6269 3.33334 15.1667V14.3333H4.16667C4.62701 14.3333 5 13.9602 5 13.5C5 13.0398 4.62689 12.6667 4.16667 12.6667Z" fill="#2E305C"/>
<path d="M79.5 52H79V51.5C79 51.2238 78.7761 51 78.5 51C78.2239 51 78 51.2239 78 51.5V52H77.5C77.2238 52 77 52.2239 77 52.5C77 52.7762 77.2239 53 77.5 53H78V53.5C78 53.7762 78.2239 54 78.5 54C78.7761 54 79 53.7761 79 53.5V53H79.5C79.7762 53 80 52.7761 80 52.5C80 52.2239 79.7761 52 79.5 52Z" fill="#2E305C"/>
<path d="M8.5 7H8V6.5C8 6.2238 7.77614 6 7.5 6C7.22387 6 7 6.22386 7 6.5V7H6.5C6.2238 7 6 7.22386 6 7.5C6 7.7762 6.22386 8 6.5 8H7V8.5C7 8.7762 7.22387 9 7.5 9C7.77614 9 8 8.77614 8 8.5V8H8.5C8.7762 8 9 7.77614 9 7.5C9 7.22386 8.77614 7 8.5 7Z" fill="#2E305C"/>
<path d="M85.1667 45.6667H84.3333V44.8333C84.3333 44.373 83.9602 44 83.5 44C83.0398 44 82.6667 44.3731 82.6667 44.8333V45.6667H81.8333C81.373 45.6667 81 46.0398 81 46.5C81 46.9603 81.3731 47.3333 81.8333 47.3333H82.6667V48.1667C82.6667 48.627 83.0398 49 83.5 49C83.9602 49 84.3333 48.6269 84.3333 48.1667V47.3333H85.1667C85.627 47.3333 86 46.9602 86 46.5C86 46.0398 85.6269 45.6667 85.1667 45.6667Z" fill="#2E305C"/>
<defs>
<clipPath id="clip0_1402_1966">
<rect width="39.619" height="39.619" fill="white" transform="translate(25.2383 12.1904)"/>
</clipPath>
</defs>
</svg>
