<svg width="124" height="124" viewBox="0 0 124 124" fill="none" xmlns="http://www.w3.org/2000/svg">
<path fill-rule="evenodd" clip-rule="evenodd" d="M67.3047 55.6216H78.9947V33.7696C78.9947 16.3981 64.8029 2.2063 47.4314 2.2063C30.06 2.2063 15.8682 16.3979 15.8682 33.7696V55.6216H27.5582V33.7696C27.5582 22.8511 36.5127 13.8966 47.4312 13.8966C58.3497 13.8966 67.3044 22.8511 67.3044 33.7696V55.6216H67.3047Z" fill="#E3EAEF"/>
<path fill-rule="evenodd" clip-rule="evenodd" d="M78.9954 55.6218H67.3053H27.5589H15.8688H8.58496V109.037H69.8304C61.865 94.9778 70.6376 76.5048 86.2792 73.5891V55.6218H78.9954ZM47.4321 67.6401C57.0819 67.6753 60.7091 80.2455 52.7736 85.4634V92.1624C52.7736 94.8331 50.5884 97.0183 47.9177 97.0183C45.2469 97.0183 43.0618 94.8331 43.0618 92.1624V86.0265C34.0636 81.4498 37.1854 67.7232 47.4321 67.6401Z" fill="#FFC144"/>
<path fill-rule="evenodd" clip-rule="evenodd" d="M57.1431 77.3517C57.1431 71.9882 52.7949 67.64 47.4314 67.64C37.1806 67.7237 34.0665 81.4535 43.0611 86.0263V92.1622C43.0611 94.8329 45.2462 97.0181 47.917 97.0181C50.5877 97.0181 52.7728 94.8329 52.7728 92.1622V85.4633C55.4055 83.7261 57.1431 80.7421 57.1431 77.3517Z" fill="#6D91AC"/>
<path fill-rule="evenodd" clip-rule="evenodd" d="M86.2798 73.5887C70.6344 76.5063 61.8673 94.9808 69.831 109.037C81.7828 130.755 115.246 122.56 115.415 97.382C115.595 82.2105 101.077 70.4226 86.2798 73.5887Z" fill="#66E0F7"/>
<path d="M47.4327 65.2119C35.5129 65.2457 30.8015 80.7736 40.6344 87.4126V92.1621C41.0018 101.814 54.8381 101.807 55.2021 92.1621V86.6801C63.8679 79.488 58.7238 65.2132 47.4327 65.2119ZM51.4368 83.4366C50.7558 83.886 50.3462 84.6472 50.3462 85.4632V92.1621C50.2238 95.3794 45.6117 95.377 45.4903 92.1621V86.0262C45.4903 85.1099 44.9744 84.2716 44.1566 83.8588C37.3586 80.3868 39.8014 70.1244 47.4329 70.0678C54.6208 70.0948 57.4283 79.471 51.4368 83.4366Z" fill="black"/>
<path d="M91.1353 70.6748C90.3168 70.6748 89.5071 70.712 88.7073 70.7843V55.6216C88.7073 54.2806 87.6201 53.1936 86.2794 53.1936H81.4235V33.7696C79.7091 -11.2736 15.1392 -11.2394 13.4411 33.7696V53.1936H8.58517C7.24446 53.1936 6.15723 54.2806 6.15723 55.6216V109.036C6.15723 110.377 7.24446 111.464 8.58517 111.464H68.45C82.4542 133.984 117.696 124.267 117.842 97.3817C117.843 82.6558 105.862 70.6748 91.1353 70.6748ZM18.297 33.7696C19.7663 -4.83886 75.1121 -4.80948 76.5676 33.7696V53.1936H69.7334V33.7696C68.6088 4.21737 26.2453 4.23971 25.1314 33.7696V53.1936H18.297V33.7696ZM11.0131 106.608V58.0495H36.5058C39.7238 57.9301 39.7214 53.3119 36.5058 53.1936H29.987V33.7696C30.8669 10.6522 64.0059 10.6696 64.8773 33.7696V53.1936H58.3573C55.1393 53.3131 55.1417 57.9313 58.3573 58.0495H83.8515V71.6844C69.4134 75.4642 60.4922 92.3035 66.0706 106.608H11.0131ZM91.1353 119.234C79.0864 119.234 69.2838 109.431 69.2838 97.3822C70.3824 68.4331 111.893 68.4409 112.987 97.3825C112.987 109.431 103.184 119.234 91.1353 119.234Z" fill="black"/>
<path d="M91.136 82.8148C86.8167 82.8148 83.3027 86.3287 83.3027 90.648C83.3027 91.989 84.39 93.076 85.7307 93.076C87.0714 93.076 88.1586 91.989 88.1586 90.648C88.1586 89.0063 89.4942 87.6707 91.136 87.6707C93.7159 87.6386 95.096 90.8624 93.2903 92.7031C89.5086 96.6652 88.7081 97.6371 88.7081 101.458C88.7081 102.799 89.7953 103.886 91.136 103.886C92.4767 103.886 93.564 102.799 93.564 101.458C93.564 100.158 93.6298 99.8322 93.8415 99.4552C94.2241 98.7724 95.2162 97.7187 96.8033 96.0558C101.548 91.1645 97.9532 82.7684 91.136 82.8148Z" fill="black"/>
<path d="M91.1357 107.094H91.1343C89.7935 107.094 88.707 108.181 88.707 109.522C88.8265 112.739 93.4449 112.739 93.5636 109.522C93.5636 108.181 92.4764 107.094 91.1357 107.094Z" fill="black"/>
<path d="M47.433 58.0495C50.651 57.93 50.6486 53.3118 47.433 53.1936H47.4311C44.2131 53.3135 44.2177 57.9317 47.433 58.0495Z" fill="black"/>
</svg>
