<svg width="112" height="112" viewBox="0 0 112 112" fill="none" xmlns="http://www.w3.org/2000/svg">
<path d="M56 4.81055C26.4012 4.81055 2.40625 28.8055 2.40625 58.4052C2.40625 69.5358 5.80029 79.8734 11.6083 88.4406L49.6622 111.624C51.7412 111.869 53.8552 111.999 56 111.999C85.5996 111.999 109.595 88.0039 109.595 58.4052C109.595 28.8055 85.5996 4.81055 56 4.81055Z" fill="#15D4F0"/>
<path d="M55.8759 111.998H56.1237C62.4255 111.985 68.4702 110.881 74.0842 108.869C76.5956 106.62 78.1781 103.354 78.1772 99.7167L78.173 12.2799C78.173 5.4978 72.6743 0 65.8922 0L23.6393 0.00170898C16.8563 0.00256349 11.3585 5.50037 11.3594 12.2833L11.3628 88.0742C20.9459 102.464 37.3 111.956 55.8759 111.998Z" fill="#6244BD"/>
<path d="M23.6393 0.00170898C16.8563 0.00256349 11.3585 5.50037 11.3594 12.2833L11.3628 88.0734C14.8987 93.3832 19.3566 98.0239 24.5074 101.772C24.3947 101.104 24.3331 100.419 24.3331 99.7201L24.3297 12.2833C24.3289 5.50037 29.8267 0.00256349 36.6088 0.00170898V0.000854492C36.6011 0.000854492 36.6173 0 36.6088 0L23.6393 0.00170898Z" fill="#4E2AA5"/>
<path d="M30.546 105.581L65.8972 105.579C69.1349 105.578 71.759 102.954 71.759 99.7175L71.7548 12.2799C71.7539 9.04309 69.1298 6.41895 65.8929 6.41895H58.0573C57.254 6.41895 56.5251 6.88037 56.1714 7.60242C55.3989 9.18066 53.778 10.2676 51.9015 10.2676L37.6306 10.2684C35.755 10.2684 34.134 9.18152 33.3607 7.60327C33.0078 6.88123 32.2781 6.42065 31.4749 6.42065H23.6392C20.4015 6.42065 17.7773 9.04565 17.7773 12.2825L17.7816 95.974C21.5192 99.7765 25.8181 103.024 30.546 105.581Z" fill="#E6FCFF"/>
<path d="M23.6392 6.4209C20.4015 6.4209 17.7773 9.0459 17.7773 12.2827L17.7816 95.9743C19.8572 98.0857 22.1053 100.025 24.5048 101.77C24.3928 101.104 24.333 100.419 24.333 99.7203L24.3287 12.2836C24.3287 10.1602 24.8679 8.16321 25.8156 6.4209H23.6392Z" fill="#CCEBFF"/>
<path d="M63.2485 38.5732H26.2823C25.2031 38.5732 24.3281 39.4482 24.3281 40.5275V64.1602C24.3281 65.2394 25.2031 66.1144 26.2823 66.1144H63.2485C64.3278 66.1144 65.2028 65.2394 65.2028 64.1602V40.5266C65.2028 39.4482 64.3278 38.5732 63.2485 38.5732Z" fill="#5F83FA"/>
<path d="M35.5613 64.1602V40.5266C35.5613 39.4482 36.4354 38.5732 37.5155 38.5732H26.2823C25.2031 38.5732 24.3281 39.4482 24.3281 40.5266V64.1602C24.3281 65.2394 25.2031 66.1135 26.2823 66.1135H37.5155C36.4354 66.1135 35.5613 65.2394 35.5613 64.1602Z" fill="#4070EA"/>
<path d="M48.9962 94.9805H40.5376C38.7654 94.9805 37.3281 93.5432 37.3281 91.771C37.3281 89.9979 38.7654 88.5615 40.5376 88.5615H48.9962C50.7693 88.5615 52.2057 89.9979 52.2057 91.771C52.2057 93.5432 50.7693 94.9805 48.9962 94.9805Z" fill="#A5C013"/>
<path d="M44.1641 91.771C44.1641 89.9979 45.6013 88.5615 47.3735 88.5615H40.5376C38.7654 88.5615 37.3281 89.9979 37.3281 91.771C37.3281 93.5432 38.7654 94.9805 40.5376 94.9805H47.3735C45.6005 94.9805 44.1641 93.5432 44.1641 91.771Z" fill="#8DAE16"/>
<path d="M24.3281 44.666H65.2028V52.3436H24.3281V44.666Z" fill="#6244BD"/>
<path d="M24.3281 44.666H35.5613V52.3436H24.3281V44.666Z" fill="#4E2AA5"/>
<path d="M62.5184 23.8965H34.0493C32.2771 23.8965 30.8398 22.4601 30.8398 20.687C30.8398 18.9148 32.2762 17.4775 34.0493 17.4775H62.5184C64.2915 17.4775 65.7279 18.9148 65.7279 20.687C65.7279 22.4601 64.2906 23.8965 62.5184 23.8965Z" fill="#CCEBFF"/>
<path d="M44.5126 20.687C44.5126 18.9148 45.949 17.4775 47.722 17.4775H34.0493C32.2771 17.4775 30.8398 18.9148 30.8398 20.687C30.8398 22.4601 32.2762 23.8965 34.0493 23.8965H47.722C45.949 23.8965 44.5126 22.4601 44.5126 20.687Z" fill="#B8DFF4"/>
<path d="M34.0505 23.8965H27.0181C25.2458 23.8965 23.8086 22.4601 23.8086 20.687C23.8086 18.9148 25.2458 17.4775 27.0181 17.4775H34.0505C35.8228 17.4775 37.26 18.9148 37.26 20.687C37.26 22.4601 35.8228 23.8965 34.0505 23.8965Z" fill="#FE4675"/>
<path d="M30.7932 20.687C30.7932 18.9148 32.2296 17.4775 34.0027 17.4775H27.0181C25.2458 17.4775 23.8086 18.9148 23.8086 20.687C23.8086 22.4601 25.2458 23.8965 27.0181 23.8965H34.0027C32.2296 23.8965 30.7932 22.4601 30.7932 20.687Z" fill="#EC3969"/>
<path d="M61.9561 38.574V32.9283C61.9561 32.0209 61.2203 31.2852 60.3129 31.2852H29.2222C28.3147 31.2852 27.5781 32.0209 27.5781 32.9283V38.574H61.9561Z" fill="#4070EA"/>
<path d="M40.4553 31.2852H29.2222C28.3147 31.2852 27.5781 32.0209 27.5781 32.9283V38.574H38.8113V32.9283C38.8113 32.0209 39.547 31.2852 40.4553 31.2852Z" fill="#205DD9"/>
<path d="M36.6936 76.5941H34.1575C33.1731 76.5941 32.375 75.796 32.375 74.8108C32.375 73.8264 33.1731 73.0283 34.1575 73.0283H36.6936C37.678 73.0283 38.4769 73.8264 38.4769 74.8108C38.4769 75.796 37.678 76.5941 36.6936 76.5941Z" fill="#CCEBFF"/>
<path d="M46.0374 76.5941H43.5021C42.5168 76.5941 41.7188 75.796 41.7188 74.8108C41.7188 73.8264 42.5168 73.0283 43.5021 73.0283H46.0374C47.0226 73.0283 47.8207 73.8264 47.8207 74.8108C47.8207 75.796 47.0226 76.5941 46.0374 76.5941Z" fill="#CCEBFF"/>
<path d="M55.382 76.5941H52.8458C51.8606 76.5941 51.0625 75.796 51.0625 74.8108C51.0625 73.8264 51.8606 73.0283 52.8458 73.0283H55.382C56.3663 73.0283 57.1644 73.8264 57.1644 74.8108C57.1644 75.796 56.3663 76.5941 55.382 76.5941Z" fill="#CCEBFF"/>
<path d="M97.6252 78.2994C91.4224 67.5559 77.6847 63.8748 66.9412 70.0775C56.1985 76.2811 52.5174 90.018 58.7201 100.761C64.9229 111.505 78.6606 115.185 89.4041 108.983C100.147 102.78 103.828 89.0421 97.6252 78.2994Z" fill="#A5C013"/>
<path d="M80.8893 101.714C78.5915 97.7334 79.0085 92.9337 81.5626 89.4508L80.4475 87.5179C76.1545 87.9888 71.4147 85.3031 69.1169 81.3229C66.7004 77.1376 67.2849 72.0431 70.2021 68.5303C69.093 68.9524 68.0027 69.4668 66.9414 70.0795C56.1979 76.2822 52.5176 90.0199 58.7203 100.763C64.9231 111.507 78.6607 115.188 89.4043 108.985C90.3169 108.459 91.1765 107.876 91.9857 107.247C87.6483 107.779 83.2118 105.737 80.8893 101.714Z" fill="#8DAE16"/>
<path d="M75.8403 99.873C74.9892 99.873 74.1723 99.5346 73.5707 98.9331L66.7442 92.1057C65.4915 90.853 65.4915 88.8202 66.7442 87.5675C67.9977 86.3139 70.0306 86.3139 71.2833 87.5675L75.8403 92.1245L85.7267 82.238C86.9803 80.9845 89.0123 80.9845 90.2658 82.238C91.5193 83.4915 91.5193 85.5235 90.2658 86.7771L78.1098 98.9331C77.5082 99.5346 76.6913 99.873 75.8403 99.873Z" fill="#E6FCFF"/>
</svg>
