<svg width="112" height="112" viewBox="0 0 112 112" fill="none" xmlns="http://www.w3.org/2000/svg">
<rect width="112" height="112" rx="56" fill="#FFF9C4"/>
<path d="M72.1659 52.5359C70.7216 50.9851 69.0571 49.6551 67.2259 48.5884L74.8909 35.0159C75.4248 34.0708 75.7017 33.0024 75.694 31.917C75.6863 30.8316 75.3944 29.7672 74.8472 28.8297C74.3 27.8923 73.5167 27.1147 72.5754 26.5742C71.6341 26.0338 70.5676 25.7495 69.4822 25.7496H46.8659C46.0428 25.738 45.2255 25.89 44.4616 26.197C43.6977 26.5039 43.0024 26.9596 42.4162 27.5376C41.8299 28.1156 41.3644 28.8043 41.0467 29.5638C40.7289 30.3232 40.5653 31.1383 40.5653 31.9615C40.5653 32.7848 40.7289 33.5998 41.0467 34.3593C41.3644 35.1187 41.8299 35.8075 42.4162 36.3855C43.0024 36.9635 43.6977 37.4192 44.4616 37.7261C45.2255 38.033 46.0428 38.1851 46.8659 38.1734H58.8397L52.9147 48.6634C52.8234 48.8134 52.7397 48.9684 52.6647 49.1259C52.1755 50.0686 51.9363 51.1211 51.9699 52.1827C52.0035 53.2443 52.3089 54.2795 52.8567 55.1894C53.4046 56.0993 54.1767 56.8535 55.0992 57.3799C56.0217 57.9062 57.0638 58.1872 58.1259 58.1959C62.2047 59.1246 65.1972 62.4684 65.1972 66.2584C65.1972 70.8446 60.9884 74.5759 55.8222 74.5759C51.2259 74.5759 47.3359 71.6646 46.5722 67.6521C46.2447 66.0528 45.3008 64.6466 43.9446 63.7377C42.5885 62.8288 40.929 62.4903 39.3252 62.7953C37.7214 63.1003 36.3021 64.0244 35.3743 65.3677C34.4465 66.7109 34.0847 68.3655 34.3672 69.9734C36.2334 79.8396 45.2559 86.9996 55.8109 86.9996C67.8334 86.9996 77.6159 77.6946 77.6159 66.2584C77.6159 61.1971 75.6797 56.3234 72.1659 52.5359Z" fill="#F46969"/>
<path d="M64.0442 85.4649C61.4193 86.484 58.6274 87.0045 55.8117 86.9999C45.2567 86.9999 36.2342 79.8399 34.3592 69.9737C34.155 68.8992 34.2382 67.7898 34.6002 66.7578C34.9622 65.7257 35.5903 64.8075 36.4209 64.096C37.2515 63.3844 38.2553 62.9048 39.3307 62.7055C40.4061 62.5063 41.515 62.5945 42.5454 62.9612C47.7099 72.1475 55.1032 79.8864 64.0442 85.4649Z" fill="#E05555"/>
<path d="M53.6162 48.1787C53.4873 48.1789 53.3606 48.1453 53.2487 48.0812C53.0755 47.9836 52.9482 47.8211 52.8948 47.6296C52.8413 47.4381 52.8661 47.2332 52.9637 47.06L53.5987 45.935C53.6965 45.7618 53.8591 45.6345 54.0507 45.5812C54.2424 45.5278 54.4473 45.5528 54.6206 45.6506C54.7938 45.7484 54.9211 45.911 54.9744 46.1027C55.0277 46.2943 55.0027 46.4993 54.9049 46.6725L54.2699 47.7975C54.2046 47.9133 54.1096 48.0096 53.9947 48.0766C53.8798 48.1436 53.7492 48.1789 53.6162 48.1787Z" fill="black"/>
<path d="M55.8112 87.75C44.8962 87.75 35.5612 80.3325 33.6225 70.1138C33.2777 68.2998 33.6676 66.4232 34.7064 64.8968C35.7453 63.3704 37.3479 62.3192 39.1619 61.9744C40.9758 61.6296 42.8524 62.0195 44.3788 63.0583C45.9052 64.0972 46.9565 65.6998 47.3012 67.5137C47.9962 71.1712 51.5762 73.8262 55.8112 73.8262C60.5712 73.8262 64.4362 70.4313 64.4362 66.2588C64.4362 62.8838 61.745 59.8213 58.0262 58.945C56.9118 58.9231 55.8189 58.6338 54.8395 58.1016C53.8601 57.5694 53.0229 56.8098 52.3982 55.8867C51.7734 54.9635 51.3795 53.9039 51.2495 52.7968C51.1196 51.6898 51.2573 50.5677 51.6512 49.525C51.6861 49.4328 51.7388 49.3484 51.8063 49.2766C51.8738 49.2048 51.9548 49.147 52.0446 49.1065C52.1345 49.066 52.2314 49.0436 52.3299 49.0405C52.4284 49.0375 52.5266 49.0539 52.6187 49.0888C52.7109 49.1236 52.7953 49.1763 52.8671 49.2438C52.9389 49.3113 52.9967 49.3923 53.0372 49.4821C53.0777 49.572 53.1002 49.6689 53.1032 49.7674C53.1063 49.8659 53.0899 49.9641 53.055 50.0562C52.7446 50.8791 52.6375 51.7647 52.7428 52.6378C52.8481 53.5109 53.1625 54.3456 53.6595 55.0711C54.1565 55.7966 54.8214 56.3914 55.5975 56.8049C56.3736 57.2184 57.2381 57.4384 58.1175 57.4463C58.1714 57.4462 58.2251 57.4525 58.2775 57.465C62.7125 58.465 65.9312 62.1688 65.9312 66.2588C65.9312 71.2588 61.3875 75.3262 55.8062 75.3262C50.8512 75.3262 46.6525 72.1575 45.8225 67.7938C45.6885 67.0891 45.4171 66.4178 45.0237 65.8181C44.6303 65.2183 44.1226 64.702 43.5297 64.2984C42.9367 63.8949 42.2701 63.6121 41.5678 63.4662C40.8656 63.3203 40.1415 63.3142 39.4369 63.4481C38.7322 63.5821 38.0609 63.8535 37.4612 64.2469C36.8614 64.6403 36.3451 65.148 35.9415 65.7409C35.538 66.3339 35.2552 67.0005 35.1093 67.7028C34.9634 68.405 34.9573 69.1291 35.0912 69.8338C36.9037 79.345 45.6162 86.25 55.8112 86.25C67.4212 86.25 76.8662 77.2812 76.8662 66.2588C76.8662 61.3838 75.0025 56.695 71.6162 53.0462C70.222 51.5493 68.6153 50.2656 66.8475 49.2362C66.6776 49.1367 66.5536 48.9743 66.5024 48.7842C66.4512 48.5941 66.4768 48.3914 66.5737 48.22L74.24 34.6488C74.709 33.8176 74.9521 32.8781 74.9451 31.9238C74.9381 30.9695 74.6813 30.0337 74.2002 29.2095C73.7192 28.3853 73.0306 27.7015 72.2031 27.2261C71.3756 26.7507 70.4381 26.5004 69.4837 26.5H46.8675C46.1433 26.489 45.4241 26.6222 44.7518 26.8918C44.0796 27.1614 43.4676 27.5619 42.9516 28.0702C42.4356 28.5785 42.0258 29.1843 41.7461 29.8524C41.4664 30.5205 41.3224 31.2376 41.3224 31.9619C41.3224 32.6862 41.4664 33.4032 41.7461 34.0714C42.0258 34.7395 42.4356 35.3453 42.9516 35.8535C43.4676 36.3618 44.0796 36.7624 44.7518 37.032C45.4241 37.3015 46.1433 37.4347 46.8675 37.4237H58.8412C58.9732 37.423 59.1031 37.4571 59.2177 37.5226C59.3323 37.5882 59.4276 37.6828 59.4939 37.7969C59.5603 37.9111 59.5953 38.0407 59.5955 38.1727C59.5957 38.3047 59.561 38.4344 59.495 38.5487L56.2375 44.3162C56.1397 44.4895 55.9771 44.6167 55.7854 44.6701C55.5938 44.7234 55.3888 44.6984 55.2156 44.6006C55.0424 44.5028 54.9151 44.3402 54.8618 44.1486C54.8085 43.9569 54.8334 43.752 54.9312 43.5788L57.5562 38.93H46.8675C45.9528 38.93 45.0471 38.7498 44.2021 38.3998C43.3571 38.0498 42.5892 37.5368 41.9425 36.89C41.2957 36.2432 40.7827 35.4754 40.4327 34.6304C40.0826 33.7854 39.9025 32.8797 39.9025 31.965C39.9025 31.0503 40.0826 30.1446 40.4327 29.2996C40.7827 28.4546 41.2957 27.6868 41.9425 27.04C42.5892 26.3932 43.3571 25.8802 44.2021 25.5302C45.0471 25.1802 45.9528 25 46.8675 25H69.4837C70.7003 25 71.8956 25.3188 72.9506 25.9246C74.0056 26.5303 74.8835 27.402 75.4968 28.4526C76.1101 29.5033 76.4373 30.6963 76.446 31.9128C76.4547 33.1294 76.1445 34.3269 75.5462 35.3862L68.2387 48.3237C69.8861 49.3572 71.3913 50.6015 72.7162 52.025C76.36 55.9525 78.3662 61.0075 78.3662 66.2588C78.3662 78.1087 68.2487 87.75 55.8112 87.75Z" fill="black"/>
</svg>
