<svg width="112" height="112" viewBox="0 0 112 112" fill="none" xmlns="http://www.w3.org/2000/svg">
<rect width="112" height="112" rx="56" fill="#E3FFEE"/>
<path d="M53.3869 43.2887C51.5359 43.2868 49.6921 43.519 47.8994 43.98V35.6387H68.2507C69.5484 35.6181 70.786 35.0881 71.6964 34.1631C72.6068 33.2381 73.1171 31.9923 73.1171 30.6944C73.1171 29.3965 72.6068 28.1506 71.6964 27.2256C70.786 26.3006 69.5484 25.7706 68.2507 25.75H42.9544C41.6433 25.75 40.3858 26.2709 39.4587 27.198C38.5315 28.1251 38.0107 29.3826 38.0107 30.6937V51.3837C38.0106 52.3486 38.2928 53.2925 38.8226 54.099C39.3523 54.9054 40.1064 55.5393 40.9919 55.9225L41.3669 56.085C42.1623 56.429 43.0341 56.5578 43.895 56.4587C44.7559 56.3595 45.5756 56.0358 46.2719 55.52C48.1225 54.1519 50.3283 53.3463 52.6251 53.2C54.9218 53.0536 57.2121 53.5725 59.2214 54.6946C61.2307 55.8167 62.8739 57.4944 63.954 59.5266C65.0341 61.5588 65.5053 63.8593 65.3112 66.1526C65.1171 68.4458 64.2659 70.6344 62.8596 72.4561C61.4533 74.2779 59.5515 75.6555 57.3822 76.4239C55.2129 77.1923 52.868 77.319 50.6285 76.7886C48.389 76.2583 46.35 75.0935 44.7557 73.4337C44.3118 72.9427 43.7738 72.5458 43.1736 72.2666C42.5734 71.9873 41.9232 71.8315 41.2617 71.8083C40.6001 71.7851 39.9406 71.8949 39.3223 72.1314C38.704 72.3679 38.1395 72.7261 37.6623 73.1848C37.1851 73.6436 36.8048 74.1935 36.5441 74.8019C36.2834 75.4104 36.1475 76.065 36.1446 76.727C36.1416 77.3889 36.2717 78.0447 36.5269 78.6555C36.7822 79.2663 37.1575 79.8195 37.6307 80.2825C39.6624 82.4144 42.1076 84.1097 44.8167 85.2647C47.5258 86.4197 50.4419 87.0101 53.3869 87C65.4394 87 75.2444 77.1962 75.2444 65.1462C75.2444 53.0963 65.4394 43.2887 53.3869 43.2887Z" fill="#E9986B"/>
<path d="M63.7928 84.3614C59.5866 86.6409 54.7484 87.4766 50.0213 86.7399C45.2942 86.0033 40.9396 83.7352 37.6265 80.2839C36.7383 79.3343 36.2599 78.0731 36.2947 76.7734C36.3296 75.4737 36.8749 74.24 37.8127 73.3394C38.7504 72.4388 40.0052 71.9437 41.3052 71.9614C42.6053 71.9791 43.8461 72.5081 44.759 73.4339C45.8711 74.6011 47.2095 75.5294 48.6925 76.1619C50.1754 76.7944 51.7718 77.1179 53.384 77.1126C53.6228 77.1126 53.859 77.1051 54.094 77.0914C57.0848 79.8219 60.3329 82.2566 63.7928 84.3614Z" fill="#D38A66"/>
<path d="M38.0117 42.21C37.8128 42.21 37.622 42.1309 37.4814 41.9903C37.3407 41.8496 37.2617 41.6589 37.2617 41.46V40.335C37.2617 40.136 37.3407 39.9453 37.4814 39.8046C37.622 39.664 37.8128 39.585 38.0117 39.585C38.2106 39.585 38.4014 39.664 38.542 39.8046C38.6827 39.9453 38.7617 40.136 38.7617 40.335V41.46C38.7617 41.6589 38.6827 41.8496 38.542 41.9903C38.4014 42.1309 38.2106 42.21 38.0117 42.21Z" fill="black"/>
<path d="M53.3874 87.75C50.3409 87.7606 47.3242 87.15 44.5217 85.9554C41.7191 84.7609 39.1895 83.0076 37.0874 80.8025C36.0413 79.7133 35.4707 78.2531 35.5012 76.7432C35.5316 75.2333 36.1607 73.7974 37.2499 72.7512C38.3391 71.7051 39.7993 71.1346 41.3092 71.165C42.8191 71.1955 44.255 71.8245 45.3011 72.9137C46.3437 74.0082 47.5985 74.8785 48.9888 75.4715C50.3792 76.0645 51.8759 76.3677 53.3874 76.3625C56.3624 76.3625 59.2157 75.1807 61.3193 73.077C63.423 70.9733 64.6049 68.1201 64.6049 65.145C64.6049 62.1699 63.423 59.3167 61.3193 57.213C59.2157 55.1093 56.3624 53.9275 53.3874 53.9275C50.987 53.9205 48.649 54.6915 46.7236 56.125C45.9203 56.717 44.9759 57.0884 43.9844 57.2022C42.993 57.3161 41.989 57.1683 41.0724 56.7737L40.6974 56.6112C39.6771 56.171 38.808 55.4416 38.1976 54.513C37.5872 53.5845 37.262 52.4975 37.2624 51.3862V43.8237C37.2624 43.6248 37.3414 43.4341 37.482 43.2934C37.6227 43.1528 37.8135 43.0737 38.0124 43.0737C38.2113 43.0737 38.4021 43.1528 38.5427 43.2934C38.6834 43.4341 38.7624 43.6248 38.7624 43.8237V51.3862C38.7626 52.2047 39.0024 53.0051 39.4522 53.6888C39.902 54.3725 40.5421 54.9096 41.2936 55.2337L41.6686 55.3962C42.3441 55.6868 43.0838 55.7954 43.8143 55.7115C44.5447 55.6275 45.2405 55.3537 45.8324 54.9175C48.0162 53.2933 50.6671 52.4197 53.3886 52.4275C55.0587 52.4275 56.7124 52.7564 58.2554 53.3956C59.7984 54.0347 61.2003 54.9714 62.3813 56.1524C63.5622 57.3333 64.499 58.7353 65.1381 60.2782C65.7772 61.8212 66.1061 63.4749 66.1061 65.145C66.1061 66.8151 65.7772 68.4688 65.1381 70.0118C64.499 71.5547 63.5622 72.9567 62.3813 74.1376C61.2003 75.3186 59.7984 76.2553 58.2554 76.8944C56.7124 77.5336 55.0587 77.8625 53.3886 77.8625C51.675 77.8685 49.9781 77.5248 48.4018 76.8525C46.8255 76.1802 45.403 75.1934 44.2211 73.9525C43.8396 73.5551 43.3834 73.2367 42.8788 73.0156C42.3742 72.7944 41.831 72.6749 41.2802 72.6637C40.7293 72.6525 40.1817 72.7499 39.6685 72.9503C39.1553 73.1507 38.6867 73.4503 38.2893 73.8319C37.8918 74.2134 37.5735 74.6696 37.3523 75.1742C37.1312 75.6788 37.0116 76.222 37.0004 76.7728C36.9892 77.3237 37.0866 77.8713 37.2871 78.3845C37.4875 78.8977 37.7871 79.3663 38.1686 79.7637C40.1315 81.8223 42.4933 83.4592 45.1099 84.5744C47.7265 85.6896 50.543 86.2598 53.3874 86.25C65.0261 86.25 74.4949 76.7825 74.4949 65.1462C74.4949 53.51 65.0261 44.0387 53.3874 44.0387C51.6 44.0371 49.8196 44.2618 48.0886 44.7075C47.9777 44.7363 47.8617 44.7394 47.7494 44.7164C47.6371 44.6934 47.5316 44.645 47.441 44.5748C47.3503 44.5047 47.2769 44.4147 47.2265 44.3118C47.176 44.2089 47.1498 44.0959 47.1499 43.9812V35.6387C47.1499 35.4398 47.2289 35.2491 47.3695 35.1084C47.5102 34.9678 47.701 34.8887 47.8999 34.8887H68.2524C69.3523 34.8698 70.4007 34.4195 71.1718 33.635C71.9429 32.8504 72.375 31.7944 72.375 30.6944C72.375 29.5943 71.9429 28.5383 71.1718 27.7538C70.4007 26.9692 69.3523 26.519 68.2524 26.5H42.9561C41.8442 26.5017 40.7782 26.9442 39.9921 27.7306C39.2059 28.517 38.7637 29.583 38.7624 30.695V37.9725C38.7624 38.1714 38.6834 38.3622 38.5427 38.5028C38.4021 38.6435 38.2113 38.7225 38.0124 38.7225C37.8135 38.7225 37.6227 38.6435 37.482 38.5028C37.3414 38.3622 37.2624 38.1714 37.2624 37.9725V30.695C37.264 29.1853 37.8644 27.7379 38.9318 26.6703C39.9992 25.6027 41.4464 25.002 42.9561 25H68.2524C69.748 25.0222 71.1749 25.6319 72.2247 26.6973C73.2745 27.7628 73.863 29.1986 73.863 30.6944C73.863 32.1902 73.2745 33.6259 72.2247 34.6914C71.1749 35.7569 69.748 36.3666 68.2524 36.3887H48.6499V43.0337C50.2072 42.7021 51.7951 42.5345 53.3874 42.5337C65.8536 42.5337 75.9949 52.675 75.9949 65.1412C75.9949 77.6075 65.8536 87.75 53.3874 87.75Z" fill="black"/>
</svg>
