<svg xmlns="http://www.w3.org/2000/svg" width="40" height="40" viewBox="0 0 40 40">
  <path id="help_FILL0_wght400_GRAD0_opsz48" d="M24.2,35.65a1.878,1.878,0,1,0-1.35-.55A1.835,1.835,0,0,0,24.2,35.65Zm-1.75-7.3H25.4a8.183,8.183,0,0,1,.325-2.375A5.887,5.887,0,0,1,27.75,23.5a8.748,8.748,0,0,0,2.2-2.55,5.87,5.87,0,0,0,.65-2.75,5.521,5.521,0,0,0-1.725-4.25,6.46,6.46,0,0,0-4.575-1.6,7.729,7.729,0,0,0-4.325,1.225A7,7,0,0,0,17.25,16.95l2.65,1a4.665,4.665,0,0,1,1.65-2.175A4.4,4.4,0,0,1,24.15,15a4.007,4.007,0,0,1,2.75.925A3.022,3.022,0,0,1,27.95,18.3a3.676,3.676,0,0,1-.65,2.075A9.961,9.961,0,0,1,25.4,22.4a10.169,10.169,0,0,0-2.225,2.575,6.806,6.806,0,0,0-.725,3.375ZM24,44a19.352,19.352,0,0,1-7.75-1.575A20.15,20.15,0,0,1,5.575,31.75a19.978,19.978,0,0,1,0-15.55,19.988,19.988,0,0,1,4.3-6.35A20.5,20.5,0,0,1,16.25,5.575a19.978,19.978,0,0,1,15.55,0A19.969,19.969,0,0,1,42.425,16.2a19.978,19.978,0,0,1,0,15.55,20.5,20.5,0,0,1-4.275,6.375,19.988,19.988,0,0,1-6.35,4.3A19.475,19.475,0,0,1,24,44Zm0-3a16.359,16.359,0,0,0,12.05-4.975A16.424,16.424,0,0,0,41,24a16.4,16.4,0,0,0-4.95-12.05A16.4,16.4,0,0,0,24,7a16.424,16.424,0,0,0-12.025,4.95A16.359,16.359,0,0,0,7,24a16.383,16.383,0,0,0,4.975,12.025A16.382,16.382,0,0,0,24,41ZM24,24Z" transform="translate(-4 -4)" fill="#fa8c28"/>
</svg>
