<svg width="40" height="40" viewBox="0 0 40 40" fill="none" xmlns="http://www.w3.org/2000/svg">
<rect width="40" height="40" rx="20" fill="#2E305C"/>
<g clip-path="url(#clip0_172_7554)">
<path d="M11.1171 23.1041H17.8503C17.9805 23.1046 18.0999 23.0313 18.1582 22.9148C18.4295 22.3714 19.1926 20.846 19.1926 20.846C19.2466 20.7391 19.2413 20.6118 19.1785 20.5098C19.1157 20.4078 19.0045 20.3457 18.8847 20.3457H12.1514C12.0209 20.3458 11.9015 20.4196 11.8432 20.5364L10.8088 22.6052C10.7554 22.7121 10.7611 22.8389 10.8239 22.9406C10.8867 23.0421 10.9976 23.1041 11.1171 23.1041Z" fill="white"/>
<path d="M12.4151 30.0005H19.6559V21.4619L18.6804 23.4148C18.5638 23.6484 18.3246 23.7955 18.0636 23.7941H12.0703V29.6556C12.0703 29.8461 12.2247 30.0005 12.4151 30.0005Z" fill="white"/>
<path d="M27.9303 29.6556V23.7941H21.937C21.6755 23.7951 21.4361 23.6472 21.3201 23.4128L20.3447 21.4619V30.0005H27.5855C27.7759 30.0004 27.9303 29.8461 27.9303 29.6556Z" fill="white"/>
<path d="M27.8493 20.3457H21.1161C20.9966 20.3458 20.8857 20.4077 20.823 20.5093C20.7602 20.6109 20.7544 20.7378 20.8078 20.8446L21.8422 22.9134C21.9006 23.0302 22.0199 23.1041 22.1505 23.1041H28.8837C29.0031 23.1041 29.1141 23.0422 29.1768 22.9406C29.2396 22.8389 29.2453 22.7121 29.1919 22.6052L28.1575 20.5364C28.0991 20.4196 27.9798 20.3458 27.8493 20.3457Z" fill="white"/>
<path d="M17.2147 17.8718C17.165 18.1027 17.2524 18.3416 17.4392 18.486C17.626 18.6304 17.8792 18.6548 18.0901 18.5487L19.7217 17.6563C19.8952 17.5608 20.1055 17.5608 20.2789 17.6563L21.9105 18.548C22.1214 18.6541 22.3746 18.6297 22.5614 18.4853C22.7482 18.3409 22.8355 18.102 22.7859 17.8711L22.4787 16.0092C22.4435 15.8017 22.5093 15.5899 22.6559 15.4389L23.9509 14.1262C24.1192 13.9567 24.1807 13.7084 24.1109 13.4799C24.0412 13.2515 23.8515 13.0798 23.6172 13.0332L21.8118 12.7602C21.612 12.7282 21.4412 12.5989 21.356 12.4154L20.5419 10.6993C20.4471 10.4849 20.2347 10.3467 20.0003 10.3467C19.7658 10.3467 19.5535 10.4849 19.4586 10.6993L18.6445 12.4154C18.5594 12.5989 18.3885 12.7281 18.1887 12.7602L16.3834 13.0329C16.1491 13.0795 15.9594 13.2512 15.8896 13.4796C15.8199 13.7081 15.8813 13.9564 16.0496 14.1259L17.3453 15.4389C17.4919 15.5899 17.5577 15.8017 17.5226 16.0092L17.2147 17.8718Z" fill="white"/>
<path d="M12.1217 17.0308C12.195 17.1062 12.2278 17.2119 12.2103 17.3156L12.0565 18.2465C12.0319 18.362 12.0756 18.4813 12.1691 18.5534C12.2625 18.6256 12.389 18.6378 12.4944 18.5848L13.3116 18.1393C13.3983 18.0917 13.5034 18.0917 13.5902 18.1393L14.406 18.5851C14.5114 18.6382 14.6379 18.626 14.7313 18.5538C14.8247 18.4817 14.8685 18.3624 14.8439 18.2469L14.6901 17.316C14.6725 17.2124 14.7054 17.1066 14.7787 17.0312L15.4262 16.3761C15.5105 16.2914 15.5413 16.1672 15.5064 16.0529C15.4715 15.9386 15.3766 15.8528 15.2594 15.8296L14.3567 15.6917C14.2568 15.6757 14.1714 15.6111 14.1288 15.5192L13.7219 14.6621C13.6746 14.5546 13.5682 14.4854 13.4509 14.4854C13.3335 14.4854 13.2273 14.5546 13.1799 14.6621L12.7717 15.5189C12.7291 15.6107 12.6437 15.6753 12.5438 15.6913L11.6411 15.8292C11.5238 15.8524 11.4289 15.9382 11.394 16.0525C11.3591 16.1668 11.3899 16.291 11.4742 16.3757L12.1217 17.0308Z" fill="white"/>
<path d="M26.2801 14.6611L25.8732 15.5189C25.8307 15.6107 25.7452 15.6754 25.6453 15.6913L24.7426 15.8293C24.6254 15.8525 24.5305 15.9383 24.4956 16.0526C24.4607 16.1668 24.4915 16.2911 24.5758 16.3758L25.2233 17.0309C25.2966 17.1063 25.3295 17.212 25.3119 17.3157L25.1581 18.2466C25.1335 18.362 25.1772 18.4814 25.2707 18.5535C25.3641 18.6257 25.4906 18.6378 25.596 18.5849L26.4132 18.1394C26.4999 18.0918 26.605 18.0918 26.6918 18.1394L27.5076 18.5852C27.613 18.6382 27.7396 18.626 27.8329 18.5539C27.9263 18.4818 27.9701 18.3624 27.9455 18.247L27.7917 17.3161C27.7741 17.2125 27.807 17.1066 27.8803 17.0313L28.5278 16.3762C28.6121 16.2914 28.6429 16.1672 28.608 16.0529C28.5731 15.9387 28.4782 15.8528 28.361 15.8296L27.4583 15.6917C27.3584 15.6758 27.273 15.6112 27.2304 15.5193L26.8235 14.6622C26.7767 14.5539 26.6701 14.4836 26.5522 14.4834C26.4342 14.4831 26.3273 14.553 26.2801 14.6611Z" fill="white"/>
<path d="M17.5866 11.3813C17.7064 11.382 17.8179 11.3204 17.8812 11.2187C17.9445 11.1169 17.9504 10.9896 17.8969 10.8824L17.5521 10.1928C17.467 10.0224 17.2598 9.95326 17.0893 10.0384C16.9189 10.1235 16.8497 10.3306 16.9349 10.5011L17.2797 11.1907C17.3378 11.307 17.4565 11.3807 17.5866 11.3813Z" fill="white"/>
<path d="M16.4516 11.9692C16.5862 11.8345 16.5862 11.6163 16.4516 11.4816L16.1068 11.1368C15.9715 11.0062 15.7564 11.008 15.6235 11.141C15.4905 11.274 15.4886 11.4891 15.6192 11.6244L15.964 11.9692C16.0987 12.1038 16.317 12.1038 16.4516 11.9692Z" fill="white"/>
<path d="M22.4141 11.381C22.5454 11.3817 22.6657 11.3078 22.7244 11.1903L23.0692 10.5007C23.1543 10.3293 23.0844 10.1214 22.913 10.0362C22.7416 9.95113 22.5337 10.021 22.4486 10.1924L22.1037 10.882C22.0502 10.9892 22.0561 11.1165 22.1194 11.2182C22.1827 11.32 22.2942 11.3816 22.4141 11.381Z" fill="white"/>
<path d="M24.0372 11.9699L24.382 11.6251C24.4716 11.5385 24.5076 11.4103 24.476 11.2897C24.4444 11.1692 24.3503 11.075 24.2297 11.0435C24.1092 11.0119 23.981 11.0479 23.8944 11.1375L23.5496 11.4823C23.46 11.5689 23.424 11.6971 23.4556 11.8176C23.4871 11.9382 23.5813 12.0323 23.7019 12.0639C23.8224 12.0955 23.9506 12.0595 24.0372 11.9699Z" fill="white"/>
</g>
<defs>
<clipPath id="clip0_172_7554">
<rect width="20" height="20" fill="white" transform="translate(10 10)"/>
</clipPath>
</defs>
</svg>
