<svg xmlns="http://www.w3.org/2000/svg" width="122.529" height="98.791" viewBox="0 0 122.529 98.791">
  <g id="undraw_savings_re_eq4w" transform="translate(0 0)">
    <path id="Path_2937" data-name="Path 2937" d="M520.068,666.533a5.758,5.758,0,0,0-3.436-2.379,16.738,16.738,0,0,0-3.828-.225l-16.161.125a2.647,2.647,0,1,0,0,5.294l14.2-.109c1.116-.009,2.233-.029,3.349-.025.251,0,.5.014.751.017.061,0,.1,0,.135,0l.024.007c.131.036.265.061.4.095-.046,0,.085.083.151.111.009.018.028.05.061.1.045.084.178.341.184.332a11.867,11.867,0,0,1,.494,1.554,8.7,8.7,0,0,1,.419,2.5,2.647,2.647,0,0,0,5.294,0C522,671.432,521.563,668.627,520.068,666.533Z" transform="translate(-450.265 -579.135)" fill="#fa8c28"/>
    <path id="Path_2938" data-name="Path 2938" d="M422.5,481.808c-.3-1.839-.6-3.68-.911-5.519a7.606,7.606,0,0,0-2.407-4.8c-.388-.327-.79-.632-1.194-.937-.142-.107-.284-.214-.424-.323l-.021-.016-.059-.05c-.6-.512-1.189-1.047-1.746-1.615q-.742-.757-1.419-1.579-.169-.205-.334-.414l-.188-.241-.2-.268q-.193-.272-.378-.55a25.831,25.831,0,0,1-2.182-3.989q-.09-.207-.177-.416l-.062-.17c-.123-.337-.245-.674-.357-1.015q-.357-1.087-.614-2.206-.127-.553-.229-1.111-.052-.287-.1-.575c-.005-.032-.035-.239-.052-.356s-.037-.326-.04-.358q-.029-.291-.052-.582-.051-.655-.069-1.312-.031-1.168.042-2.336c.027-.437.067-.874.115-1.309l.007-.067.01-.069c.036-.241.073-.481.115-.721a26.379,26.379,0,0,1,.619-2.7q.18-.63.391-1.25.094-.275.194-.548c0,.012.2-.5.2-.516.793-1.874,2.091-3.583,2.092-5.712a2.649,2.649,0,1,0-5.294,0c0,.032,0,.06,0,.087l-.034.115c-.155.336-.344.656-.514.983-.465.9-.862,1.824-1.239,2.764a26.439,26.439,0,0,0-1.411,4.736,30.123,30.123,0,0,0-.16,10.76,27.765,27.765,0,0,0,9.116,16.268c.408.349.827.687,1.249,1.018.175.137.351.271.528.4.084.063.43.336.278.2a1.685,1.685,0,0,1,.55.627l.051.2c.059.232.116.464.163.7.41,2.06.694,4.154,1.036,6.227a2.648,2.648,0,0,0,3.256,1.925A2.85,2.85,0,0,0,422.5,481.808Z" transform="translate(-375.177 -388.437)" fill="#fa8c28"/>
    <path id="Path_2939" data-name="Path 2939" d="M433.22,412.734a4.2,4.2,0,0,1-4.209-4.177v-3.019a114.274,114.274,0,0,1-17.089-.227v3.125a4.209,4.209,0,1,1-8.417,0V402.3a27,27,0,0,1,11.13-50.472c.732-.057,1.469-.086,2.19-.086,2.54,0,14,.392,16.873,1.219l6.556-6.5a.688.688,0,0,1,.753-.15.678.678,0,0,1,.428.636v1.034l1.277-1.264a.687.687,0,0,1,.752-.15.679.679,0,0,1,.428.637v11.558a26.925,26.925,0,0,1-6.463,44.313v5.487A4.2,4.2,0,0,1,433.22,412.734Zm-3.878-7.572v3.395a3.878,3.878,0,1,0,7.755,0v-5.7l.094-.045a26.875,26.875,0,0,0,11.006-9.625,26.522,26.522,0,0,0-4.582-34.237l-.055-.049V347.2a.348.348,0,0,0-.222-.33.356.356,0,0,0-.394.078L441.1,348.77v-1.828a.348.348,0,0,0-.222-.33.357.357,0,0,0-.395.079l-6.7,6.644-.1-.03c-2.673-.836-14.312-1.233-16.871-1.233-.712,0-1.44.029-2.164.086a26.812,26.812,0,0,0-14.6,5.748,26.548,26.548,0,0,0,3.686,44.152l.085.047v6.331a3.878,3.878,0,1,0,7.755,0v-3.521l.2.037c2.788.525,14.53.607,17.368.235Z" transform="translate(-363.15 -314.021)" fill="#e6e6e6"/>
    <path id="Path_2940" data-name="Path 2940" d="M416.985,270.3l-18.32,5.506a2.3,2.3,0,1,0,1.322,4.4l16.032-4.819.336-.1a11.168,11.168,0,0,1,1.371-4.94,1.02,1.02,0,0,0-.331-.086A1.054,1.054,0,0,0,416.985,270.3Z" transform="translate(-369.342 -250.591)" fill="#fa8c28"/>
    <path id="Path_2941" data-name="Path 2941" d="M401.378,283.439a1.16,1.16,0,0,1-1.1-.794l-1.146-3.457a1.158,1.158,0,0,1,.735-1.464l14.91-4.941a1.158,1.158,0,0,1,1.464.735l1.146,3.457a1.154,1.154,0,0,1-.694,1.449l-.042.015-14.91,4.941A1.158,1.158,0,0,1,401.378,283.439Z" transform="translate(-371.049 -252.655)" fill="#2f2e41"/>
    <path id="Path_2942" data-name="Path 2942" d="M523.37,233.42a11.585,11.585,0,0,0-11.575,11.224c0,.117,0,.237,0,.356a11.58,11.58,0,1,0,11.58-11.58Zm0,22.829A11.261,11.261,0,0,1,512.121,245q0-.231.01-.457a11.249,11.249,0,1,1,11.239,11.706Z" transform="translate(-465.118 -219.854)" fill="#3f3d56"/>
    <path id="Path_2943" data-name="Path 2943" d="M542.311,254.179a9.76,9.76,0,1,1-19.521,0c0-.309.015-.614.043-.915a9.76,9.76,0,0,1,19.478.915Z" transform="translate(-474.298 -229.033)" fill="#e6e6e6"/>
    <path id="Path_2944" data-name="Path 2944" d="M568.172,274.917a2.323,2.323,0,0,0-.9-.716,8.791,8.791,0,0,0-1.36-.447V271.1a3.87,3.87,0,0,1,1.934.882l.539-1.15a3.565,3.565,0,0,0-1.052-.65,5.171,5.171,0,0,0-1.335-.342V268.49h-1.249v1.36a3.419,3.419,0,0,0-1.365.458,2.713,2.713,0,0,0-.925.907,2.279,2.279,0,0,0-.329,1.206,2.062,2.062,0,0,0,.379,1.29,2.4,2.4,0,0,0,.943.748,8.715,8.715,0,0,0,1.383.458v2.546a4.134,4.134,0,0,1-2.3-.918l-.539,1.151a4.069,4.069,0,0,0,1.231.7,5.654,5.654,0,0,0,1.524.318v1.335h1.249v-1.36a3.233,3.233,0,0,0,1.854-.85,2.248,2.248,0,0,0,.691-1.671,1.994,1.994,0,0,0-.367-1.249Zm-3.342-1.444a2.4,2.4,0,0,1-.832-.447.88.88,0,0,1-.294-.692,1.112,1.112,0,0,1,.3-.8,1.522,1.522,0,0,1,.826-.428Zm1.861,3.52a1.416,1.416,0,0,1-.784.409v-2.19a2.191,2.191,0,0,1,.784.392.771.771,0,0,1,.27.612,1.125,1.125,0,0,1-.27.778Z" transform="translate(-507.013 -249.122)" fill="#fa8c28"/>
    <path id="Path_2945" data-name="Path 2945" d="M407.215,372.364a1.162,1.162,0,0,1-1.121-.863l-.624-2.361a1.159,1.159,0,0,1,.823-1.415l19.676-5.2a1.161,1.161,0,0,1,1.415.825l.528,2-.1.008a26.5,26.5,0,0,0-13.914,5.272l-.029.014-6.362,1.681A1.15,1.15,0,0,1,407.215,372.364Z" transform="translate(-376.354 -327.57)" fill="#2f2e41"/>
    <path id="Path_2946" data-name="Path 2946" d="M335.168,422.939a16.229,16.229,0,0,1-6.472-2.447,15.8,15.8,0,0,1-2.676-2.188,8.209,8.209,0,0,1-1.958-2.825,4.185,4.185,0,0,1,.055-3.105A4.026,4.026,0,0,1,326.3,410.2a4.156,4.156,0,0,1,3.152,0,2.827,2.827,0,0,1,1.152.927,1.89,1.89,0,0,1,.3.622,1.269,1.269,0,0,1,.015.622,1.492,1.492,0,0,1-.79.947,3.983,3.983,0,0,1-1.349.411,1.861,1.861,0,0,1-1.533-.257.772.772,0,0,1-.181-.266.515.515,0,0,1-.029-.241c-.006.036.023-.078.021-.074s-.032.058,0-.005a.56.56,0,0,1,.039-.06c-.013.016-.04.043.009,0a.325.325,0,0,1,.151-.093l.069-.018c.058-.016-.058,0,0,0h.069c.059,0-.058-.016,0,0l.065.018c.047.015-.033-.034,0,0s-.039-.042,0,0a.763.763,0,0,1,.059.065.39.39,0,0,0,.548,0,.4.4,0,0,0,0-.548,1.051,1.051,0,0,0-1.524.044,1.261,1.261,0,0,0,.182,1.767,2.441,2.441,0,0,0,2.011.455,4.932,4.932,0,0,0,1.7-.48,2.382,2.382,0,0,0,1.162-1.255,2.179,2.179,0,0,0-.175-1.781,3.844,3.844,0,0,0-3.157-1.857,4.932,4.932,0,0,0-3.609,1.185,4.988,4.988,0,0,0-1.636,3.321,5.688,5.688,0,0,0,1.151,3.675,14,14,0,0,0,2.776,2.871,16.953,16.953,0,0,0,7.082,3.34q.462.1.929.163a.4.4,0,0,0,.477-.271.391.391,0,0,0-.271-.477Z" transform="translate(-307.566 -366.485)" fill="#e6e6e6"/>
    <path id="Path_2947" data-name="Path 2947" d="M558.067,390.729q-5.073-.072-10.113.257c-1.149.075-2.142.481-2.142,1.163,0,.57.986,1.239,2.142,1.163q5.038-.329,10.113-.257C560.825,393.1,560.824,390.768,558.067,390.729Z" transform="translate(-493.511 -351.129)" fill="#ccc"/>
    <path id="Path_2948" data-name="Path 2948" d="M544.527,392.06c-.366,0-8.951-.014-8.951-1.2s8.585-1.2,8.951-1.2,8.951.014,8.951,1.2S544.892,392.06,544.527,392.06Zm-8.615-1.2c.235.359,3.391.869,8.615.869s8.38-.509,8.615-.869c-.235-.359-3.391-.869-8.615-.869s-8.38.509-8.615.869Z" transform="translate(-484.969 -350.247)" fill="#3f3d56"/>
    <path id="Path_2949" data-name="Path 2949" d="M754.174,493.871c1.9-.053,4.266-.119,6.088-1.45a4.675,4.675,0,0,0,1.84-3.491,3.145,3.145,0,0,0-1.069-2.583,4.059,4.059,0,0,0-3.839-.553l1.552-11.34-1.139-.156-1.824,13.331.951-.436c1.1-.506,2.617-.763,3.557.032a2.021,2.021,0,0,1,.663,1.665,3.534,3.534,0,0,1-1.369,2.6c-1.418,1.036-3.3,1.169-5.442,1.229Z" transform="translate(-667.378 -420.883)" fill="#e6e6e6"/>
    <rect id="Rectangle_636" data-name="Rectangle 636" width="6.192" height="1.15" transform="translate(77.454 54.549)" fill="#e6e6e6"/>
    <path id="Path_2950" data-name="Path 2950" d="M425.409,414.4a1.16,1.16,0,0,1-1.142-.979l-.378-2.412a1.159,1.159,0,0,1,.965-1.323l20.1-3.15a1.159,1.159,0,0,1,1.323.965l.378,2.412a1.159,1.159,0,0,1-.965,1.323l-20.1,3.15A1.181,1.181,0,0,1,425.409,414.4Z" transform="translate(-391.746 -364.322)" fill="#2f2e41"/>
    <circle id="Ellipse_299" data-name="Ellipse 299" cx="8.437" cy="8.437" r="8.437" transform="translate(16.905 4.939)" fill="#fff"/>
    <path id="Path_2951" data-name="Path 2951" d="M406.652,217.77a2,2,0,0,0,.722-.443,1.346,1.346,0,0,0,.373-1.072.905.905,0,0,0-.416-.689,1.171,1.171,0,0,0-1.116.008l-.047-3.293-.331,0,.055,3.872.252-.165a1,1,0,0,1,1.014-.144.581.581,0,0,1,.26.445,1.017,1.017,0,0,1-.277.8,2.735,2.735,0,0,1-1.5.584l.059.326A5.451,5.451,0,0,0,406.652,217.77Z" transform="translate(-376.533 -202.212)" fill="#2f2e41"/>
    <rect id="Rectangle_637" data-name="Rectangle 637" width="1.782" height="0.331" transform="matrix(0.989, -0.15, 0.15, 0.989, 31.281, 10.105)" fill="#2f2e41"/>
    <rect id="Rectangle_638" data-name="Rectangle 638" width="1.782" height="0.331" transform="matrix(0.989, -0.15, 0.15, 0.989, 25.72, 10.947)" fill="#2f2e41"/>
    <path id="Path_2952" data-name="Path 2952" d="M377.721,310.484a1.494,1.494,0,0,1-1.4-.969l-5.817-15.578a7.7,7.7,0,0,1,4.514-9.893l4.73-1.766a1.482,1.482,0,0,1,1.138.039,1.461,1.461,0,0,1,.773.825l10.775,20.345a1.489,1.489,0,0,1-.87,1.925l-13.328,4.977A1.485,1.485,0,0,1,377.721,310.484Z" transform="translate(-346.803 -260.55)" fill="#2f2e41"/>
    <path id="Path_2953" data-name="Path 2953" d="M420.158,282.3l10.691,14.3-7.234-14.147a1.337,1.337,0,0,0-1.712-.8Z" transform="translate(-388.644 -260.039)" fill="#e6e6e6"/>
    <path id="Path_2954" data-name="Path 2954" d="M415.345,322.283l-19.09-1.23a2.3,2.3,0,0,1,.3-4.583l19.09,1.23a1.075,1.075,0,0,1,1,1.142l-.157,2.437A1.075,1.075,0,0,1,415.345,322.283Z" transform="translate(-366.903 -289.162)" fill="#fa8c28"/>
    <path id="Path_2955" data-name="Path 2955" d="M406.725,318.621l-.076,0h0l-15.675-1.01a1.158,1.158,0,0,1-1.081-1.23l.268-4.162a1.158,1.158,0,0,1,1.23-1.081l15.675,1.01a1.159,1.159,0,0,1,1.081,1.23l-.268,4.162a1.161,1.161,0,0,1-.752,1.011A1.145,1.145,0,0,1,406.725,318.621Z" transform="translate(-363.384 -284.711)" fill="#2f2e41"/>
    <path id="Path_2956" data-name="Path 2956" d="M332.793,159.178c1.11-.955,2.634-.1,3.907-.25a3.017,3.017,0,0,0,2.425-2.4,3.734,3.734,0,0,0-1.452-3.554,5.376,5.376,0,0,0-4.065-1.019,10.164,10.164,0,0,0-4.469,1.879,20.16,20.16,0,0,0-3.547,3.006,7.756,7.756,0,0,0-2.015,3.717,5.1,5.1,0,0,0,.7,3.8,4,4,0,0,0,1.567,1.291c.651.32,1.346.549,1.977.91a2.8,2.8,0,0,1,1.583,2.86,1.619,1.619,0,0,1-.368.693c-.213.237-.6-.076-.385-.314a1.366,1.366,0,0,0,.161-1.472,2.692,2.692,0,0,0-1.2-1.316c-.661-.378-1.39-.611-2.067-.955a4.471,4.471,0,0,1-1.64-1.359,5.529,5.529,0,0,1-.869-3.947,7.82,7.82,0,0,1,1.9-3.917,19.534,19.534,0,0,1,3.582-3.17,11.532,11.532,0,0,1,4.607-2.134,6.178,6.178,0,0,1,4.341.7,4.563,4.563,0,0,1,2.208,3.465,3.678,3.678,0,0,1-1.717,3.3,3.16,3.16,0,0,1-1.888.437,14.414,14.414,0,0,0-2.12-.2,1.479,1.479,0,0,0-.871.352c-.242.209-.532-.2-.291-.4Z" transform="translate(-307.548 -151.412)" fill="#2f2e41"/>
    <path id="Path_2957" data-name="Path 2957" d="M351.995,746.6H229.859a.2.2,0,0,1,0-.394H351.995a.2.2,0,0,1,0,.394Z" transform="translate(-229.662 -647.81)" fill="#e6e6e6"/>
  </g>
</svg>
