<svg width="65" height="64" viewBox="0 0 65 64" fill="none" xmlns="http://www.w3.org/2000/svg">
<g clip-path="url(#clip0_105_3050)">
<rect x="0.5" width="64" height="64" rx="32" fill="#F6FFDE"/>
<path d="M21.5 44.5L28.5 62.5L30.5 68L53.5 64.5L67 34L51.5 28.5L50 32L42.5 32.5L21.5 44.5Z" fill="#23232B" fill-opacity="0.03"/>
<g clip-path="url(#clip1_105_3050)">
<path d="M41.1189 51.3161H23.683C22.7389 51.3161 21.9736 50.5508 21.9736 49.6067V14.393C21.9736 13.4489 22.7389 12.6836 23.683 12.6836H41.1189C42.063 12.6836 42.8283 13.4489 42.8283 14.393V49.6067C42.8283 50.5508 42.063 51.3161 41.1189 51.3161Z" fill="#EEEEEE"/>
<path d="M28.5548 40.8308C28.5548 43.0773 27.4284 45.0599 25.7105 46.2474L25.7179 46.2582H27.9538C29.2881 44.7871 30.0506 42.8582 30.0506 40.8308C30.0506 36.3772 26.4272 32.7539 21.9736 32.7539V34.2496C25.6083 34.2496 28.5548 37.1961 28.5548 40.8308Z" fill="#CACACA"/>
<path d="M28.9823 30.1185V17.8108C28.9823 16.8667 29.7476 16.1014 30.6917 16.1014H42.8284V14.6484H30.6917C28.9479 14.6484 27.5293 16.0671 27.5293 17.8108V30.1185C27.5293 31.8623 28.9479 33.2809 30.6917 33.2809H42.8284V31.8279H30.6917C29.7476 31.8279 28.9823 31.0626 28.9823 30.1185Z" fill="#CACACA"/>
<path d="M33.0453 49.4964H31.756C31.3784 49.4964 31.0723 49.1903 31.0723 48.8127C31.0723 48.4351 31.3784 48.1289 31.756 48.1289H33.0453C33.4229 48.1289 33.729 48.4351 33.729 48.8127C33.729 49.1903 33.4229 49.4964 33.0453 49.4964Z" fill="#333333"/>
<path d="M49.9226 31.83H30.6918C29.7477 31.83 28.9824 31.0647 28.9824 30.1206V17.8129C28.9824 16.8688 29.7477 16.1035 30.6918 16.1035H49.9226C50.8667 16.1035 51.632 16.8688 51.632 17.8129V30.1206C51.632 31.0647 50.8667 31.83 49.9226 31.83Z" fill="#4CDDBF"/>
<path d="M47.7818 24.8206H39.4093C39.0317 24.8206 38.7256 24.5145 38.7256 24.1369C38.7256 23.7593 39.0317 23.4531 39.4093 23.4531H47.7818C48.1594 23.4531 48.4656 23.7593 48.4656 24.1369C48.4656 24.5145 48.1594 24.8206 47.7818 24.8206Z" fill="#333333"/>
<path d="M47.7818 28.5824H39.4093C39.0317 28.5824 38.7256 28.2762 38.7256 27.8986C38.7256 27.521 39.0317 27.2148 39.4093 27.2148H47.7818C48.1594 27.2148 48.4656 27.521 48.4656 27.8986C48.4656 28.2762 48.1594 28.5824 47.7818 28.5824Z" fill="#333333"/>
<path d="M21.9738 47.4124C25.6085 47.4124 28.555 44.4659 28.555 40.8312C28.555 37.1965 25.6085 34.25 21.9738 34.25C18.3391 34.25 15.3926 37.1965 15.3926 40.8312C15.3926 44.4659 18.3391 47.4124 21.9738 47.4124Z" fill="#FCCD57"/>
<path d="M17.2729 40.8312C17.2729 37.5158 19.7248 34.7743 22.9139 34.3179C22.6068 34.274 22.2931 34.25 21.9738 34.25C18.3391 34.25 15.3926 37.1965 15.3926 40.8312C15.3926 44.4659 18.3391 47.4124 21.9738 47.4124C22.2931 47.4124 22.6068 47.3884 22.9139 47.3444C19.7248 46.888 17.2729 44.1465 17.2729 40.8312Z" fill="#FAB951"/>
<path d="M22.4253 40.0754C21.5088 39.6955 21.2438 39.473 21.2438 39.0836C21.2438 38.7615 21.4756 38.4172 22.1263 38.4172C22.6813 38.4559 23.1848 38.6198 23.6367 38.909L24.1011 37.6804C23.6568 37.3997 23.1647 37.2274 22.6246 37.1635V36.0898H21.4107V37.2399C20.3973 37.4904 19.769 38.2449 19.769 39.2143C19.769 40.4132 20.7124 40.949 21.7313 41.3493C22.4843 41.6552 22.7914 41.9582 22.7914 42.3951C22.7914 42.8719 22.38 43.1922 21.7676 43.1922C21.123 43.151 20.5553 42.946 20.0643 42.5771L19.6182 43.8251C20.1073 44.2002 20.6794 44.4115 21.3347 44.4592V45.5739H22.5594V44.3906C23.6038 44.1293 24.2771 43.3186 24.2771 42.3188C24.2771 41.2769 23.7232 40.6058 22.4253 40.0754Z" fill="#333333"/>
<path d="M49.9227 15.4188H43.5124V14.3932C43.5124 13.0736 42.4388 12 41.1192 12H23.6833C22.3638 12 21.2902 13.0736 21.2902 14.3932V33.5999C17.6039 33.9458 14.709 37.0565 14.709 40.8317C14.709 44.6069 17.6039 47.7176 21.2902 48.0635V49.6068C21.2902 50.9264 22.3638 52 23.6833 52H41.1192C42.4388 52 43.5124 50.9264 43.5124 49.6068V32.5128H49.9227C51.2422 32.5128 52.3158 31.4392 52.3158 30.1197V17.812C52.3158 16.4924 51.2422 15.4188 49.9227 15.4188ZM50.9483 17.812V19.6068H29.6663V17.812C29.6663 17.2464 30.1263 16.7863 30.6919 16.7863H49.9227C50.4882 16.7863 50.9483 17.2464 50.9483 17.812ZM16.0765 40.8317C16.0765 37.5798 18.7221 34.9343 21.9739 34.9343C25.2258 34.9343 27.8714 37.5798 27.8714 40.8317C27.8714 44.0836 25.2258 46.7291 21.9739 46.7291C18.7221 46.7291 16.0765 44.0835 16.0765 40.8317ZM41.1192 50.6325H23.6833C23.1178 50.6325 22.6577 50.1724 22.6577 49.6068V48.0635C23.8486 47.9518 24.9561 47.5556 25.9108 46.9573H42.1449V49.6068C42.1449 50.1724 41.6848 50.6325 41.1192 50.6325ZM42.1449 45.5897H27.4783C28.5741 44.3077 29.2389 42.6511 29.2389 40.844C29.2389 37.0688 26.344 33.9458 22.6577 33.5999V14.3932C22.6577 13.8276 23.1178 13.3675 23.6833 13.3675H41.1192C41.6848 13.3675 42.1449 13.8276 42.1449 14.3932V15.4188H30.6919C29.3723 15.4188 28.2987 16.4924 28.2987 17.812V30.1197C28.2987 31.4392 29.3723 32.5128 30.6919 32.5128H42.1449V45.5897ZM49.9227 31.1453H30.6919C30.1263 31.1453 29.6663 30.6852 29.6663 30.1197V20.9744H50.9483V30.1197C50.9483 30.6852 50.4882 31.1453 49.9227 31.1453Z" fill="#333333"/>
<path d="M49.5812 44.3106C49.2036 44.3106 48.8975 44.0044 48.8975 43.6268V42.5978C48.8975 42.2202 49.2036 41.9141 49.5812 41.9141C49.9588 41.9141 50.265 42.2202 50.265 42.5978V43.6268C50.265 44.0044 49.9588 44.3106 49.5812 44.3106Z" fill="#333333"/>
<path d="M49.5812 48.752C49.2036 48.752 48.8975 48.4458 48.8975 48.0682V47.0392C48.8975 46.6616 49.2036 46.3555 49.5812 46.3555C49.9588 46.3555 50.265 46.6616 50.265 47.0392V48.0682C50.265 48.4458 49.9588 48.752 49.5812 48.752Z" fill="#333333"/>
<path d="M52.3162 46.016H51.2873C50.9097 46.016 50.6035 45.7098 50.6035 45.3322C50.6035 44.9546 50.9097 44.6484 51.2873 44.6484H52.3162C52.6938 44.6484 52.9999 44.9546 52.9999 45.3322C52.9999 45.7098 52.6938 46.016 52.3162 46.016Z" fill="#333333"/>
<path d="M47.8748 46.016H46.8459C46.4683 46.016 46.1621 45.7098 46.1621 45.3322C46.1621 44.9546 46.4683 44.6484 46.8459 44.6484H47.8748C48.2524 44.6484 48.5585 44.9546 48.5585 45.3322C48.5585 45.7098 48.2524 46.016 47.8748 46.016Z" fill="#333333"/>
<path d="M16.4191 19.8672C16.0415 19.8672 15.7354 19.561 15.7354 19.1834V18.1545C15.7354 17.7769 16.0415 17.4707 16.4191 17.4707C16.7967 17.4707 17.1029 17.7769 17.1029 18.1545V19.1834C17.1029 19.561 16.7967 19.8672 16.4191 19.8672Z" fill="#333333"/>
<path d="M16.4191 24.3086C16.0415 24.3086 15.7354 24.0025 15.7354 23.6248V22.5959C15.7354 22.2183 16.0415 21.9121 16.4191 21.9121C16.7967 21.9121 17.1029 22.2183 17.1029 22.5959V23.6248C17.1029 24.0025 16.7967 24.3086 16.4191 24.3086Z" fill="#333333"/>
<path d="M19.1541 21.5726H18.1252C17.7476 21.5726 17.4414 21.2664 17.4414 20.8888C17.4414 20.5112 17.7476 20.2051 18.1252 20.2051H19.1541C19.5317 20.2051 19.8378 20.5112 19.8378 20.8888C19.8378 21.2664 19.5317 21.5726 19.1541 21.5726Z" fill="#333333"/>
<path d="M14.7126 21.5726H13.6838C13.3062 21.5726 13 21.2664 13 20.8888C13 20.5112 13.3062 20.2051 13.6838 20.2051H14.7126C15.0903 20.2051 15.3964 20.5112 15.3964 20.8888C15.3964 21.2664 15.0903 21.5726 14.7126 21.5726Z" fill="#333333"/>
</g>
</g>
<defs>
<clipPath id="clip0_105_3050">
<rect x="0.5" width="64" height="64" rx="32" fill="white"/>
</clipPath>
<clipPath id="clip1_105_3050">
<rect width="40" height="40" fill="white" transform="translate(13 12)"/>
</clipPath>
</defs>
</svg>
