<svg width="65" height="64" viewBox="0 0 65 64" fill="none" xmlns="http://www.w3.org/2000/svg">
<g clip-path="url(#clip0_105_3070)">
<rect x="0.5" width="64" height="64" rx="32" fill="#FFF0E1"/>
<path d="M13 46L24 67.5L30.5 68L53.5 64.5L67 34L41.5 29.5L39 31.5L33 32L13 46Z" fill="#23232B" fill-opacity="0.03"/>
<g clip-path="url(#clip1_105_3070)">
<path d="M38.0781 13.361C38.0781 12.933 37.7313 12.5859 37.3033 12.5859H14.3608C13.9328 12.5859 13.5859 12.933 13.5859 13.361V46.3376C13.5859 46.7656 13.9328 47.1127 14.3608 47.1127H32.6639L38.0781 41.724V13.361Z" fill="#FFF9E9"/>
<path d="M37.3035 12.5859H34.1785C34.6064 12.5859 34.9534 12.933 34.9534 13.361V41.724L32.6641 47.1127L38.0784 41.724V13.361C38.0784 12.933 37.7315 12.5859 37.3035 12.5859Z" fill="#FFF4D6"/>
<path d="M32.6641 47.1128V42.4489C32.6641 42.0209 33.0109 41.6738 33.4389 41.6738H38.0784L32.6641 47.1128Z" fill="#FFEEC2"/>
<path d="M30.5674 50.6321V30.3281C30.5674 29.8966 30.9171 29.5469 31.3486 29.5469H41.3417C41.7732 29.5469 42.1229 29.8966 42.1229 30.3281V50.6321C42.1229 51.0636 41.7732 51.4134 41.3417 51.4134H31.3486C30.9172 51.4134 30.5674 51.0636 30.5674 50.6321Z" fill="#A1FFA1"/>
<path d="M36.345 43.4733C37.9977 43.4733 39.3375 42.1335 39.3375 40.4808C39.3375 38.8281 37.9977 37.4883 36.345 37.4883C34.6923 37.4883 33.3525 38.8281 33.3525 40.4808C33.3525 42.1335 34.6923 43.4733 36.345 43.4733Z" fill="#74D674"/>
<path d="M38.7451 51.413C38.7451 49.5459 40.256 48.0352 42.123 48.0352V50.6318C42.123 51.0633 41.7732 51.413 41.3418 51.413H38.7451Z" fill="#74D674"/>
<path d="M30.5674 48.0352C32.4345 48.0352 33.9453 49.546 33.9453 51.413H31.3486C30.9171 51.413 30.5674 51.0633 30.5674 50.6318V48.0352Z" fill="#74D674"/>
<path d="M33.9453 29.5469C33.9453 31.414 32.4344 32.9248 30.5674 32.9248V30.3281C30.5674 29.8966 30.9171 29.5469 31.3486 29.5469H33.9453Z" fill="#74D674"/>
<path d="M42.123 32.9248C40.2559 32.9248 38.7451 31.4139 38.7451 29.5469H41.3418C41.7732 29.5469 42.123 29.8966 42.123 30.3281V32.9248Z" fill="#74D674"/>
<path d="M45.5713 51.4132H51.6325C52.0639 51.4132 52.4137 51.0634 52.4137 50.632V48.8438H45.5713V51.4132Z" fill="#FDF385"/>
<path d="M49.2881 48.8438V50.632C49.2881 51.0634 48.9383 51.4132 48.5068 51.4132H51.6318C52.0633 51.4132 52.4131 51.0634 52.4131 50.632V48.8438H49.2881Z" fill="#FAEE6E"/>
<path d="M52.4141 48.8438H45.5716V46.2743H52.4141V48.8438Z" fill="#FED23A"/>
<path d="M49.2881 46.2734H52.4131V48.8429H49.2881V46.2734Z" fill="#FFC600"/>
<path d="M45.5713 46.2745H52.4137V44.4863C52.4137 44.0548 52.0639 43.7051 51.6325 43.7051H45.5713V46.2745Z" fill="#FDF385"/>
<path d="M51.6318 43.7051H48.5068C48.9383 43.7051 49.2881 44.0548 49.2881 44.4863V46.2745H52.4131V44.4863C52.4131 44.0548 52.0633 43.7051 51.6318 43.7051Z" fill="#FAEE6E"/>
<path d="M39.5098 51.4132H45.5709V48.8438H38.7285V50.632C38.7285 51.0634 39.0783 51.4132 39.5098 51.4132Z" fill="#FED23A"/>
<path d="M42.4463 48.8438H45.5713V51.4132H42.4463V48.8438Z" fill="#FFC600"/>
<path d="M45.5713 48.8438H38.7289V46.2743H45.5713V48.8438Z" fill="#FDF385"/>
<path d="M42.4463 46.2734H45.5713V48.8429H42.4463V46.2734Z" fill="#FAEE6E"/>
<path d="M45.5713 46.2754H38.7289V43.7059H45.5713V46.2754Z" fill="#FED23A"/>
<path d="M42.4463 43.7051H45.5713V46.2745H42.4463V43.7051Z" fill="#FFC600"/>
<path d="M45.5713 43.7051H38.7289V41.1356H45.5713V43.7051Z" fill="#FDF385"/>
<path d="M42.4463 41.1348H45.5713V43.7042H42.4463V41.1348Z" fill="#FAEE6E"/>
<path d="M45.5713 41.1367H38.7289V38.5673H45.5713V41.1367Z" fill="#FED23A"/>
<path d="M42.4463 38.5664H45.5713V41.1359H42.4463V38.5664Z" fill="#FFC600"/>
<path d="M38.7285 38.5655H45.5709V36.7773C45.5709 36.3459 45.2212 35.9961 44.7897 35.9961H39.5098C39.0783 35.9961 38.7285 36.3459 38.7285 36.7773V38.5655Z" fill="#FDF385"/>
<path d="M44.79 35.9961H41.665C42.0965 35.9961 42.4463 36.3459 42.4463 36.7773V38.5655H45.5713V36.7773C45.5713 36.3459 45.2215 35.9961 44.79 35.9961Z" fill="#FAEE6E"/>
<path d="M33.7568 17.9395C33.7568 17.6158 33.4944 17.3535 33.1708 17.3535H26.3614C25.6281 17.3535 25.5947 18.5254 26.3614 18.5254H33.1708C33.4944 18.5254 33.7568 18.2631 33.7568 17.9395Z" fill="#060606"/>
<path d="M26.3614 21.5566C25.6281 21.5566 25.5947 22.7285 26.3614 22.7285H30.3721C31.1054 22.7285 31.1387 21.5566 30.3721 21.5566H26.3614Z" fill="#060606"/>
<path d="M25.7833 41.8867C26.5166 41.8867 26.55 40.7148 25.7833 40.7148H18.0801C17.3468 40.7148 17.3135 41.8867 18.0801 41.8867H25.7833Z" fill="#060606"/>
<path d="M20.2435 27.8424C20.5671 27.8424 20.8294 27.5801 20.8294 27.2564V26.5716C22.1493 26.3135 22.9201 25.2257 23.091 24.2094C23.3105 22.9036 22.6274 21.7682 21.3507 21.317C21.1795 21.2564 21.0042 21.1929 20.8295 21.1268V18.3406C21.2698 18.4454 21.5323 18.6681 21.5553 18.6882C22.0964 19.1783 22.907 18.3407 22.3459 17.8232C22.3125 17.7923 21.7501 17.2857 20.8295 17.1482V16.5782C20.8295 15.8449 19.6576 15.8115 19.6576 16.5782V17.1932C18.679 17.4082 17.9374 18.1467 17.7502 19.1396C17.5947 19.9647 17.8589 20.7602 18.4398 21.2158C18.7481 21.4577 19.1318 21.6792 19.6576 21.9131V25.4441C19.2016 25.4108 18.8861 25.3 18.3691 24.9617C17.7554 24.5604 17.086 25.5227 17.7275 25.9424C18.4798 26.4345 18.9935 26.5808 19.6576 26.618V27.2564C19.6575 27.5801 19.9199 27.8424 20.2435 27.8424ZM20.8294 22.375C20.8728 22.3906 20.9154 22.4061 20.9602 22.4218C22.0488 22.8067 21.9818 23.7386 21.9353 24.0151C21.8445 24.5553 21.4678 25.1279 20.8294 25.3548V22.375ZM19.163 20.2938C18.9277 20.1093 18.8276 19.7502 18.9018 19.3568C18.9683 19.0036 19.2019 18.5791 19.6575 18.4086V20.6096C19.4714 20.5087 19.303 20.4036 19.163 20.2938Z" fill="#060606"/>
<path d="M51.6328 43.1198H46.1576V36.7787C46.1576 36.0249 45.5442 35.4116 44.7904 35.4116H42.7092V32.9255V30.3288C42.7092 29.575 42.0959 28.9616 41.342 28.9616C40.4494 28.9616 39.5567 28.9616 38.6641 28.9616V24.4219C38.6641 23.6886 37.4922 23.6552 37.4922 24.4219V28.9616H31.3491C30.5952 28.9616 29.9819 29.5749 29.9819 30.3288V32.3083H18.0799C17.3466 32.3083 17.3133 33.4802 18.0799 33.4802H29.9819V36.5119H18.0799C17.3466 36.5119 17.3133 37.6838 18.0799 37.6838H29.9819V46.5267H14.3607C14.2566 46.5267 14.1719 46.4419 14.1719 46.3376V13.361C14.1719 13.2567 14.2566 13.1719 14.3607 13.1719H37.3033C37.4074 13.1719 37.4921 13.2567 37.4921 13.361V18.224C37.4921 18.9573 38.664 18.9906 38.664 18.224V13.361C38.6641 12.6105 38.0537 12 37.3034 12H14.3607C13.6104 12 13 12.6105 13 13.361V46.3377C13 47.088 13.6104 47.6987 14.3607 47.6987H29.9818V48.0362V50.6328C29.9818 51.3866 30.5952 52 31.349 52H47.4362C48.1695 52 48.2028 50.8281 47.4362 50.8281H46.1575V49.4305H51.8281V50.6328C51.8281 50.7405 51.7405 50.8281 51.6328 50.8281H50.5455C49.8122 50.8281 49.7788 52 50.5455 52H51.6328C52.3866 52 53 51.3866 53 50.6328V44.487C53 43.7332 52.3866 43.1198 51.6328 43.1198ZM41.342 30.1334C41.4497 30.1334 41.5373 30.221 41.5373 30.3288V32.2776C40.4671 32.0481 39.6226 31.2036 39.3931 30.1334H41.342ZM31.1537 30.3288C31.1537 30.221 31.2414 30.1334 31.3491 30.1334H33.298C33.0685 31.2036 32.224 32.0482 31.1537 32.2776V30.3288ZM31.3491 50.8281C31.2414 50.8281 31.1537 50.7405 31.1537 50.6328V48.684C32.224 48.9134 33.0685 49.758 33.298 50.8281H31.3491ZM38.1433 42.0805C37.6861 42.595 37.0391 42.8874 36.3455 42.8874C35.0186 42.8874 33.939 41.8079 33.939 40.4809C33.939 39.1538 35.0185 38.0742 36.3455 38.0742C37.0344 38.0742 37.689 38.3726 38.1433 38.8821V42.0805ZM38.155 50.8281C38.1562 50.8203 38.1575 50.8187 38.1588 50.8281H38.155ZM38.1433 36.7787V37.3888C37.6038 37.0752 36.9846 36.9023 36.3455 36.9023C34.3724 36.9023 32.7671 38.5077 32.7671 40.4809C32.7671 42.454 34.3723 44.0593 36.3455 44.0593C36.9893 44.0593 37.6054 43.8891 38.1433 43.5759V50.8282H34.488C34.2324 49.1107 32.8713 47.7495 31.1537 47.4939V33.4678C32.8713 33.2122 34.2324 31.851 34.488 30.1335H38.203C38.4587 31.851 39.8198 33.2122 41.5374 33.4678V35.4116H39.5105C38.7566 35.4116 38.1433 36.0249 38.1433 36.7787ZM44.9857 50.8281H39.5105C39.4028 50.8281 39.3152 50.7405 39.3152 50.6328V49.4305H44.9857V50.8281ZM44.9857 48.2587H39.3152V46.8611H44.9857V48.2587ZM44.9857 45.6893H39.3152V44.2917H44.9857V45.6893ZM44.9857 43.1198H39.3152V41.7223H44.9857V43.1198ZM44.9857 40.5504H39.3152V39.1528H44.9857V40.5504ZM44.9857 37.981H39.3152V36.7787C39.3152 36.671 39.4028 36.5834 39.5105 36.5834H44.7904C44.898 36.5834 44.9857 36.671 44.9857 36.7787V37.981ZM51.8281 48.2587H46.1576V46.8611H51.8281V48.2587ZM51.8281 45.6893H46.1576V44.2917H51.6328C51.7405 44.2917 51.8281 44.3793 51.8281 44.487V45.6893Z" fill="#060606"/>
<path d="M33.5964 25.8181C33.8726 26.0469 34.1489 26.0469 34.425 25.8181L41.1756 19.0676L44.283 22.175C44.5592 22.4037 44.8354 22.4037 45.1116 22.175L51.2762 16.0103V17.61C51.2762 18.3433 52.4481 18.3766 52.4481 17.61V14.5959C52.4482 14.2769 52.1812 14.0098 51.8621 14.0098H48.8478C48.1146 14.0098 48.0812 15.1816 48.8478 15.1816H50.4475L44.6972 20.932L41.5898 17.8245C41.361 17.5958 40.99 17.5958 40.7612 17.8245L33.5964 24.9894C33.3676 25.2183 33.3676 25.5892 33.5964 25.8181Z" fill="#060606"/>
</g>
</g>
<defs>
<clipPath id="clip0_105_3070">
<rect x="0.5" width="64" height="64" rx="32" fill="white"/>
</clipPath>
<clipPath id="clip1_105_3070">
<rect width="40" height="40" fill="white" transform="translate(13 12)"/>
</clipPath>
</defs>
</svg>
