<svg width="65" height="64" viewBox="0 0 65 64" fill="none" xmlns="http://www.w3.org/2000/svg">
<g clip-path="url(#clip0_105_3031)">
<rect x="0.5" width="64" height="64" rx="32" fill="#EAEBFF"/>
<path d="M17 40L28.5 62.5L30.5 68L53.5 64.5L67 34L49 25.5V29L42.5 32.5L17 40Z" fill="#23232B" fill-opacity="0.03"/>
<g clip-path="url(#clip1_105_3031)">
<path d="M16.0059 30.5664C16.0059 38.3115 22.2844 44.5901 30.0295 44.5901H41.9589V41.5872L47.8262 46.2642L41.9589 51.2246V48.2769H30.0295C22.2845 48.2769 16.0059 41.9984 16.0059 34.2533V30.5664Z" fill="#49DD8A"/>
<path d="M48.9945 33.4354C48.9945 25.6903 42.716 19.4118 34.9709 19.4118H22.2599V22.4147L16.3926 17.7376L22.2599 12.7773V15.7248H34.9709C42.7159 15.7248 48.9945 22.0034 48.9945 29.7485V33.4354Z" fill="#8CC8FF"/>
<path d="M32.5379 41.2965C37.6518 41.2965 41.7975 37.1508 41.7975 32.0369C41.7975 26.923 37.6518 22.7773 32.5379 22.7773C27.424 22.7773 23.2783 26.923 23.2783 32.0369C23.2783 37.1508 27.424 41.2965 32.5379 41.2965Z" fill="#FFC135"/>
<path d="M48.3136 45.6514L42.4463 40.9744C41.9439 40.5739 41.1778 40.9445 41.1778 41.5854V43.8069H30.0297C22.7279 43.8069 16.7875 37.8664 16.7875 30.5646C16.7875 30.1331 16.4375 29.7832 16.006 29.7832C15.5745 29.7832 15.2246 30.1331 15.2246 30.5646V34.2517C15.2246 42.4152 21.8662 49.0567 30.0297 49.0567H41.1777V51.2228C41.1777 51.8725 41.9644 52.2416 42.4636 51.8196L48.3309 46.8592C48.7013 46.5462 48.6929 45.9537 48.3136 45.6514ZM42.7406 49.5389V48.2752C42.7406 47.8437 42.3907 47.4938 41.9592 47.4938H30.0297C24.1518 47.4938 19.156 43.644 17.4311 38.3337C20.0425 42.5533 24.7131 45.3697 30.0297 45.3697H41.9591C42.3906 45.3697 42.7405 45.0198 42.7405 44.5883V43.2077L46.595 46.2802L42.7406 49.5389Z" fill="black" stroke="#EAEBFF" stroke-width="0.3"/>
<path d="M34.9711 14.9429H23.0415V12.7767C23.0415 12.1258 22.2538 11.7587 21.7556 12.1799L15.8883 17.1403C15.7096 17.2914 15.608 17.5145 15.6114 17.7484C15.6148 17.9822 15.7228 18.2024 15.9057 18.3481L21.773 23.0251C22.2753 23.4256 23.0415 23.055 23.0415 22.4141V20.1927H29.151C29.6179 20.1927 29.9894 19.7667 29.925 19.3039C29.8694 18.886 29.4915 18.588 29.0726 18.6298H22.2601C21.8286 18.6298 21.4786 18.9797 21.4786 19.4112V20.7919L17.6241 17.7193L21.4786 14.4606V15.7243C21.4786 16.1558 21.8286 16.5057 22.2601 16.5057H34.9711C40.84 16.5057 45.8296 20.3438 47.5617 25.6416C47.0599 24.8325 46.4771 24.0676 45.8177 23.3582C43.2847 20.6329 39.8562 18.9711 36.1606 18.6772C35.704 18.627 35.2925 18.9945 35.2925 19.4541C35.2925 19.8622 35.6064 20.2015 36.0133 20.2332C39.3265 20.491 42.4019 21.9786 44.673 24.4222C46.956 26.8784 48.2134 30.0793 48.2134 33.4348C48.2134 33.8663 48.5633 34.2162 48.9948 34.2162C49.4263 34.2162 49.7762 33.8663 49.7762 33.4348V29.7479C49.7761 21.5843 43.1346 14.9429 34.9711 14.9429Z" fill="black" stroke="#EAEBFF" stroke-width="0.3"/>
<path d="M32.5381 41.9281C27.0843 41.9281 22.6471 37.4909 22.6471 32.0371C22.6471 26.5833 27.0843 22.1461 32.5381 22.1461C37.9918 22.1461 42.4291 26.5833 42.4291 32.0371C42.4291 37.4909 37.9918 41.9281 32.5381 41.9281ZM41.1662 32.0371C41.1662 27.2794 37.2958 23.409 32.5381 23.409C27.7804 23.409 23.9099 27.2794 23.9099 32.0371C23.9099 36.7948 27.7804 40.6652 32.5381 40.6652C37.2958 40.6652 41.1662 36.7948 41.1662 32.0371Z" fill="black" stroke="#EAEBFF" stroke-width="0.3"/>
<path d="M32.7501 20.1784C33.451 20.0363 33.602 19.0617 32.9659 18.7233C32.6661 18.5638 32.2859 18.6188 32.0453 18.8594C31.8112 19.0935 31.7516 19.461 31.8975 19.7573C32.0511 20.069 32.408 20.2479 32.7501 20.1784Z" fill="black"/>
<path d="M33.9799 31.1926C33.7886 31.125 33.5973 31.0561 33.4088 30.9856V27.8068C33.8467 27.9317 34.1089 28.148 34.1431 28.1774C34.2823 28.3067 34.4683 28.3863 34.6733 28.3863C35.1043 28.3863 35.4537 28.0369 35.4537 27.6059C35.4537 27.3764 35.3541 27.1708 35.1965 27.028L35.1991 27.0251C35.1589 26.9881 34.4955 26.3912 33.4088 26.208V25.9865C33.4088 25.555 33.0588 25.2051 32.6273 25.2051C32.1958 25.2051 31.8459 25.555 31.8459 25.9865V26.2656C31.7589 26.286 31.6712 26.3085 31.5816 26.3354C30.5265 26.6531 29.7387 27.5319 29.5254 28.6284C29.3291 29.6379 29.6602 30.6007 30.4109 31.2038C30.7975 31.5144 31.2773 31.7823 31.8459 32.0371V36.1246C31.3366 36.0771 30.9945 35.938 30.4261 35.5662C30.0649 35.3299 29.5806 35.4312 29.3444 35.7923C29.1082 36.1535 29.2093 36.6377 29.5705 36.874C30.4588 37.4552 31.0734 37.6395 31.8459 37.6913V38.0527C31.8459 38.4842 32.1958 38.8341 32.6273 38.8341C33.0588 38.8341 33.4088 38.4842 33.4088 38.0527V37.6216C34.9285 37.2825 35.9043 36.0051 36.1161 34.7452C36.3858 33.1411 35.5473 31.7468 33.9799 31.1926ZM31.846 30.2897C31.3128 29.9838 30.9316 29.5852 31.0596 28.9267C31.1309 28.5606 31.3746 28.1223 31.846 27.9035V30.2897ZM34.575 34.4859C34.4756 35.0773 34.0796 35.7039 33.4089 35.9888V32.6482C34.2143 32.9337 34.7206 33.6195 34.575 34.4859Z" fill="black"/>
</g>
</g>
<defs>
<clipPath id="clip0_105_3031">
<rect x="0.5" width="64" height="64" rx="32" fill="white"/>
</clipPath>
<clipPath id="clip1_105_3031">
<rect width="40" height="40" fill="white" transform="translate(12.5 12)"/>
</clipPath>
</defs>
</svg>
