<svg width="24" height="24" viewBox="0 0 24 24" fill="none" xmlns="http://www.w3.org/2000/svg">
<rect width="24" height="24" rx="12" fill="#FA8C28"/>
<g clip-path="url(#clip0_381_2724)">
<path d="M8.48084 11.4392C8.51358 11.4339 8.5467 11.4315 8.57985 11.4319H14.2237L14.1006 11.3746C13.9803 11.3177 13.8709 11.2402 13.7772 11.1457L12.1945 9.56301C11.9861 9.36404 11.9511 9.04394 12.1115 8.80459C12.2983 8.54953 12.6565 8.49415 12.9115 8.68092C12.9322 8.69601 12.9517 8.71247 12.9701 8.73018L15.8321 11.5922C16.0558 11.8156 16.056 12.178 15.8326 12.4017C15.8324 12.4018 15.8323 12.402 15.8321 12.4021L12.9701 15.2641C12.7463 15.4873 12.3839 15.4868 12.1606 15.2629C12.1431 15.2453 12.1267 15.2266 12.1115 15.2068C11.9511 14.9675 11.9861 14.6474 12.1945 14.4484L13.7744 12.8629C13.8583 12.7788 13.9549 12.7083 14.0606 12.654L14.2323 12.5767H8.61135C8.31894 12.5875 8.0624 12.3833 8.00747 12.0959C7.95687 11.7838 8.1688 11.4898 8.48084 11.4392Z" fill="white"/>
</g>
<defs>
<clipPath id="clip0_381_2724">
<rect width="8" height="8" fill="white" transform="matrix(-1 0 0 1 16 8)"/>
</clipPath>
</defs>
</svg>
