<svg width="12" height="12" viewBox="0 0 12 12" fill="none" xmlns="http://www.w3.org/2000/svg">
<g clip-path="url(#clip0_172_6322)">
<path d="M0.721263 5.15785C0.770364 5.14989 0.820055 5.14621 0.869773 5.14685H9.33554L9.15094 5.06099C8.9705 4.97559 8.80635 4.85936 8.66583 4.71756L6.29182 2.34355C5.97916 2.04508 5.92662 1.56493 6.16732 1.20591C6.44747 0.823325 6.9847 0.740256 7.36732 1.0204C7.39823 1.04304 7.42761 1.06773 7.45521 1.09429L11.7482 5.38726C12.0837 5.72238 12.084 6.266 11.7489 6.6015C11.7486 6.60171 11.7484 6.60196 11.7482 6.60217L7.45521 10.8951C7.11945 11.23 6.57583 11.2292 6.24097 10.8934C6.21463 10.867 6.19002 10.8389 6.16732 10.8093C5.92662 10.4503 5.97916 9.97011 6.29182 9.67164L8.66154 7.29334C8.78751 7.16723 8.93234 7.06149 9.09084 6.97995L9.34841 6.86404H0.917022C0.478415 6.88033 0.0936031 6.57394 0.0112057 6.14282C-0.0647001 5.67475 0.253195 5.23379 0.721263 5.15785Z" fill="#212237"/>
</g>
<defs>
<clipPath id="clip0_172_6322">
<rect width="12" height="12" fill="white" transform="matrix(-1 0 0 1 12 0)"/>
</clipPath>
</defs>
</svg>
