<svg width="12" height="12" viewBox="0 0 12 12" fill="none" xmlns="http://www.w3.org/2000/svg">
<g clip-path="url(#clip0_172_6302)">
<path d="M11.2787 5.15785C11.2296 5.14989 11.1799 5.14621 11.1302 5.14685H2.66447L2.84906 5.06099C3.0295 4.97559 3.19365 4.85936 3.33417 4.71756L5.70818 2.34355C6.02084 2.04508 6.07338 1.56493 5.83268 1.20591C5.55253 0.823325 5.0153 0.740256 4.63268 1.0204C4.60177 1.04304 4.57239 1.06773 4.54479 1.09429L0.251816 5.38726C-0.0836792 5.72238 -0.0839744 6.266 0.251146 6.6015C0.25136 6.60171 0.251602 6.60196 0.251816 6.60217L4.54479 10.8951C4.88055 11.23 5.42417 11.2292 5.75903 10.8934C5.78537 10.867 5.80998 10.8389 5.83268 10.8093C6.07338 10.4503 6.02084 9.97011 5.70818 9.67164L3.33846 7.29334C3.21249 7.16723 3.06766 7.06149 2.90916 6.97995L2.65159 6.86404H11.083C11.5216 6.88033 11.9064 6.57394 11.9888 6.14282C12.0647 5.67475 11.7468 5.23379 11.2787 5.15785Z" fill="#212237"/>
</g>
<defs>
<clipPath id="clip0_172_6302">
<rect width="12" height="12" fill="white"/>
</clipPath>
</defs>
</svg>
