<svg width="140" height="140" viewBox="0 0 140 140" fill="none" xmlns="http://www.w3.org/2000/svg">
<path d="M126.309 31.582C127.818 31.582 129.043 32.807 129.043 34.3164C129.043 35.8258 127.818 37.0508 126.309 37.0508C124.799 37.0508 123.574 35.8258 123.574 34.3164C123.574 32.807 124.799 31.582 126.309 31.582Z" fill="#EAEAEA"/>
<path d="M126.309 102.676C127.818 102.676 129.043 103.901 129.043 105.41C129.043 106.92 127.818 108.145 126.309 108.145C124.799 108.145 123.574 106.92 123.574 105.41C123.574 103.901 124.799 102.676 126.309 102.676Z" fill="#EAEAEA"/>
<path d="M112.637 119.082C115.658 119.082 118.105 121.529 118.105 124.551C118.105 127.572 115.658 130.02 112.637 130.02C109.615 130.02 107.168 127.572 107.168 124.551C107.168 121.529 109.615 119.082 112.637 119.082Z" fill="#2E305C"/>
<path d="M107.168 6.97266C108.677 6.97266 109.902 8.19766 109.902 9.70703C109.902 11.2164 108.677 12.4414 107.168 12.4414C105.659 12.4414 104.434 11.2164 104.434 9.70703C104.434 8.19766 105.659 6.97266 107.168 6.97266Z" fill="#EAEAEA"/>
<path d="M68.8867 15.1758C38.6828 15.1758 14.1992 39.6594 14.1992 69.8633C14.1992 100.067 38.6828 124.551 68.8867 124.551C99.0906 124.551 123.574 100.067 123.574 69.8633C123.574 39.6594 99.0906 15.1758 68.8867 15.1758Z" fill="#FA8C28"/>
<path d="M68.8867 110.879C46.2352 110.879 27.8711 92.5148 27.8711 69.8633C27.8711 47.2117 46.2352 28.8477 68.8867 28.8477C91.5383 28.8477 109.902 47.2117 109.902 69.8633C109.902 92.5148 91.5383 110.879 68.8867 110.879Z" fill="white"/>
<path d="M89.2165 56.9354C91.3523 59.0709 91.3523 62.5326 89.2165 64.6682L69.8818 84.0057L62.1489 91.7385L54.4134 84.0057L48.6138 78.2033C47.5477 77.1369 47.0117 75.7369 47.0117 74.3369C47.0117 72.9369 47.5477 71.5369 48.6138 70.4702C50.7496 68.3347 54.2113 68.3347 56.3466 70.4702L62.1489 76.2698L81.484 56.9354C82.5531 55.8689 83.9504 55.333 85.3504 55.333C86.7504 55.333 88.1477 55.8689 89.2165 56.9354Z" fill="#2E305C"/>
<path d="M27.8711 124.551C29.3805 124.551 30.6055 125.776 30.6055 127.285C30.6055 128.795 29.3805 130.02 27.8711 130.02C26.3614 130.02 25.1367 128.795 25.1367 127.285C25.1367 125.776 26.3614 124.551 27.8711 124.551Z" fill="#EAEAEA"/>
<path d="M21.0352 12.4414C24.8113 12.4414 27.8711 15.5012 27.8711 19.2773C27.8711 23.0535 24.8113 26.1133 21.0352 26.1133C17.2587 26.1133 14.1992 23.0535 14.1992 19.2773C14.1992 15.5012 17.2587 12.4414 21.0352 12.4414Z" fill="#2E305C"/>
<path d="M11.4648 34.3164C12.9742 34.3164 14.1992 35.5414 14.1992 37.0508C14.1992 38.5602 12.9742 39.7852 11.4648 39.7852C9.9552 39.7852 8.73047 38.5602 8.73047 37.0508C8.73047 35.5414 9.9552 34.3164 11.4648 34.3164Z" fill="#EAEAEA"/>
<path d="M11.4648 102.676C12.9742 102.676 14.1992 103.901 14.1992 105.41C14.1992 106.92 12.9742 108.145 11.4648 108.145C9.9552 108.145 8.73047 106.92 8.73047 105.41C8.73047 103.901 9.9552 102.676 11.4648 102.676Z" fill="#EAEAEA"/>
</svg>
