<svg width="40" height="40" viewBox="0 0 40 40" fill="none" xmlns="http://www.w3.org/2000/svg">
<circle cx="20" cy="20" r="20" fill="white"/>
<path d="M27.3632 24.2944C28.4355 22.7899 29 21.0479 29 19.2308C29 14.0459 24.4312 10 19 10C13.5669 10 9 14.0478 9 19.2308C9 24.4156 13.5688 28.4615 19 28.4615C20.4573 28.4615 21.9093 28.1646 23.2238 27.6001L27.7796 29.9165C28.0561 30.057 28.39 30.0178 28.6264 29.8169C28.8627 29.6161 28.9553 29.2929 28.8612 28.9973L27.3632 24.2944ZM15.8718 20C15.447 20 15.1026 19.6556 15.1026 19.2308C15.1026 18.8059 15.447 18.4615 15.8718 18.4615C16.2966 18.4615 16.641 18.8059 16.641 19.2308C16.641 19.6556 16.2966 20 15.8718 20ZM18.9487 20C18.5239 20 18.1795 19.6556 18.1795 19.2308C18.1795 18.8059 18.5239 18.4615 18.9487 18.4615C19.3735 18.4615 19.7179 18.8059 19.7179 19.2308C19.7179 19.6556 19.3735 20 18.9487 20ZM22.0256 20C21.6008 20 21.2564 19.6556 21.2564 19.2308C21.2564 18.8059 21.6008 18.4615 22.0256 18.4615C22.4505 18.4615 22.7949 18.8059 22.7949 19.2308C22.7949 19.6556 22.4505 20 22.0256 20Z" fill="#FA8C28"/>
</svg>
