<svg id="default-avatar" xmlns="http://www.w3.org/2000/svg" xmlns:xlink="http://www.w3.org/1999/xlink" width="32" height="32" viewBox="0 0 32 32">
  <defs>
    <clipPath id="clip-path">
      <rect id="Rectangle_654" data-name="Rectangle 654" width="16" height="16" transform="translate(8 8)" fill="#fff"/>
    </clipPath>
  </defs>
  <rect id="Rectangle_653" data-name="Rectangle 653" width="32" height="32" rx="16"/>
  <g id="Group_2020" data-name="Group 2020" clip-path="url(#clip-path)">
    <path id="Path_3052" data-name="Path 3052" d="M15.886,15.707a3.854,3.854,0,0,0,3.854-3.854A3.854,3.854,0,0,0,15.886,8a3.855,3.855,0,0,0-3.854,3.854,3.855,3.855,0,0,0,3.854,3.854Z" fill="#fff"/>
    <path id="Path_3053" data-name="Path 3053" d="M22.629,20.3a9.529,9.529,0,0,0-.13-1.011,7.979,7.979,0,0,0-.249-1.017,5.024,5.024,0,0,0-.418-.948,3.581,3.581,0,0,0-.63-.821,2.78,2.78,0,0,0-.905-.569,3.131,3.131,0,0,0-1.156-.209,1.173,1.173,0,0,0-.626.266c-.188.122-.407.264-.653.421a3.737,3.737,0,0,1-.844.372,3.28,3.28,0,0,1-2.065,0,3.727,3.727,0,0,1-.844-.372c-.243-.155-.463-.3-.653-.421a1.171,1.171,0,0,0-.626-.266,3.125,3.125,0,0,0-1.155.209,2.776,2.776,0,0,0-.905.569,3.578,3.578,0,0,0-.63.821,5.031,5.031,0,0,0-.418.948,7.982,7.982,0,0,0-.249,1.016,9.489,9.489,0,0,0-.13,1.011c-.021.306-.032.624-.032.945a2.657,2.657,0,0,0,.789,2.01A2.84,2.84,0,0,0,12.135,24h7.7a2.84,2.84,0,0,0,2.033-.742,2.655,2.655,0,0,0,.789-2.01C22.661,20.926,22.65,20.608,22.629,20.3Z" fill="#fff"/>
  </g>
</svg>
