<svg width="24" height="24" viewBox="0 0 24 24" fill="none" xmlns="http://www.w3.org/2000/svg">
<g clip-path="url(#clip0_172_7505)">
<path d="M24 12C24 5.37258 18.6274 0 12 0C5.37258 0 0 5.37258 0 12C0 18.6274 5.37258 24 12 24C18.6274 24 24 18.6274 24 12Z" fill="white"/>
<path opacity="0.1" d="M21.0314 4.1055C19.282 7.31708 16.8078 10.6297 13.7162 13.7213C10.6246 16.8129 7.31197 19.2823 4.10513 21.0318C3.90408 20.8571 3.70881 20.675 3.51934 20.4855C2.37406 19.3785 1.46064 18.0545 0.832344 16.5908C0.204046 15.1271 -0.126556 13.5529 -0.140186 11.9601C-0.153815 10.3673 0.1498 8.78772 0.752957 7.31347C1.35611 5.83922 2.24674 4.49981 3.37291 3.37333C4.49907 2.24684 5.83824 1.35584 7.31232 0.752273C8.7864 0.148705 10.3659 -0.155352 11.9587 -0.142167C13.5515 -0.128982 15.1258 0.201181 16.5896 0.82907C18.0535 1.45696 19.3778 2.37001 20.4851 3.51498C20.6746 3.70445 20.8567 3.90129 21.0314 4.1055Z" fill="white"/>
<path d="M14.8415 5.68457H9.15728C8.236 5.68457 7.35245 6.05055 6.70101 6.70199C6.04957 7.35343 5.68359 8.23698 5.68359 9.15826V14.8425C5.68359 15.7637 6.04957 16.6473 6.70101 17.2987C7.35245 17.9502 8.236 18.3162 9.15728 18.3162H14.8415C15.7628 18.3162 16.6463 17.9502 17.2978 17.2987C17.9492 16.6473 18.3152 15.7637 18.3152 14.8425V9.15826C18.3152 8.23698 17.9492 7.35343 17.2978 6.70199C16.6463 6.05055 15.7628 5.68457 14.8415 5.68457ZM17.2099 14.3435C17.2099 15.104 16.9078 15.8333 16.3701 16.3711C15.8323 16.9088 15.103 17.2109 14.3425 17.2109H9.65623C8.89575 17.2109 8.16643 16.9088 7.62869 16.3711C7.09095 15.8333 6.78886 15.104 6.78886 14.3435V9.6572C6.78886 8.89673 7.09095 8.1674 7.62869 7.62967C8.16643 7.09193 8.89575 6.78983 9.65623 6.78983H14.3425C15.103 6.78983 15.8323 7.09193 16.3701 7.62967C16.9078 8.1674 17.2099 8.89673 17.2099 9.6572V14.3435Z" fill="url(#paint0_linear_172_7505)"/>
<path d="M14.3029 9.72001L14.2729 9.69001L14.2476 9.66475C13.6506 9.06981 12.8421 8.73593 11.9992 8.73633C11.5736 8.73922 11.1527 8.82595 10.7606 8.99155C10.3685 9.15715 10.0129 9.39838 9.71409 9.70147C9.41526 10.0046 9.17908 10.3635 9.01903 10.7579C8.85899 11.1523 8.77822 11.5744 8.78134 12C8.78069 12.8638 9.12117 13.6929 9.7287 14.3069C10.0263 14.6081 10.3809 14.847 10.7718 15.0096C11.1627 15.1723 11.5821 15.2554 12.0055 15.2542C12.6407 15.2409 13.2582 15.0431 13.7828 14.6848C14.3074 14.3266 14.7164 13.8234 14.9599 13.2367C15.2035 12.65 15.2711 12.0051 15.1544 11.3807C15.0377 10.7562 14.7419 10.1792 14.3029 9.72001ZM11.9992 14.1411C11.5745 14.147 11.1577 14.0265 10.8017 13.7949C10.4456 13.5633 10.1666 13.231 9.99989 12.8404C9.83323 12.4497 9.78653 12.0183 9.86572 11.601C9.94492 11.1837 10.1464 10.7994 10.4446 10.497C10.7428 10.1945 11.1242 9.98763 11.5404 9.90256C11.9565 9.81749 12.3885 9.8581 12.7815 10.0192C13.1745 10.1804 13.5106 10.4547 13.7473 10.8074C13.9839 11.1602 14.1102 11.5753 14.1103 12C14.1124 12.2792 14.0594 12.5561 13.9544 12.8149C13.8494 13.0736 13.6945 13.3092 13.4984 13.508C13.3024 13.7068 13.0691 13.8651 12.8118 13.9737C12.5546 14.0823 12.2785 14.1392 11.9992 14.1411Z" fill="url(#paint1_linear_172_7505)"/>
<path d="M16.1724 8.58716C16.1732 8.68848 16.1541 8.78897 16.116 8.88287C16.0779 8.97678 16.0217 9.06226 15.9506 9.13441C15.8795 9.20657 15.7948 9.26399 15.7015 9.30339C15.6081 9.34278 15.5079 9.36338 15.4066 9.364C15.3061 9.36395 15.2067 9.34397 15.114 9.30521C15.0213 9.26646 14.9372 9.20969 14.8666 9.13821C14.7596 9.02968 14.6869 8.89214 14.6573 8.74264C14.6278 8.59315 14.6428 8.43827 14.7005 8.29722C14.7581 8.15617 14.8559 8.03515 14.9817 7.94915C15.1075 7.86316 15.2558 7.81599 15.4082 7.81348C15.5865 7.81344 15.7592 7.87603 15.8961 7.99032L15.9119 8.00611C15.9373 8.02684 15.9606 8.05012 15.9813 8.07558L15.9987 8.09453C16.1117 8.23377 16.1731 8.40782 16.1724 8.58716Z" fill="url(#paint2_linear_172_7505)"/>
</g>
<defs>
<linearGradient id="paint0_linear_172_7505" x1="7.53346" y1="7.53443" x2="16.4653" y2="16.4663" gradientUnits="userSpaceOnUse">
<stop stop-color="#FAE100"/>
<stop offset="0.15" stop-color="#FCB720"/>
<stop offset="0.3" stop-color="#FF7950"/>
<stop offset="0.5" stop-color="#FF1C74"/>
<stop offset="1" stop-color="#6C1CD1"/>
</linearGradient>
<linearGradient id="paint1_linear_172_7505" x1="9.72273" y1="9.69086" x2="14.3311" y2="14.2363" gradientUnits="userSpaceOnUse">
<stop stop-color="#FAE100"/>
<stop offset="0.15" stop-color="#FCB720"/>
<stop offset="0.3" stop-color="#FF7950"/>
<stop offset="0.5" stop-color="#FF1C74"/>
<stop offset="1" stop-color="#6C1CD1"/>
</linearGradient>
<linearGradient id="paint2_linear_172_7505" x1="14.8666" y1="8.04055" x2="15.9629" y2="9.1222" gradientUnits="userSpaceOnUse">
<stop stop-color="#FAE100"/>
<stop offset="0.15" stop-color="#FCB720"/>
<stop offset="0.3" stop-color="#FF7950"/>
<stop offset="0.5" stop-color="#FF1C74"/>
<stop offset="1" stop-color="#6C1CD1"/>
</linearGradient>
<clipPath id="clip0_172_7505">
<rect width="24" height="24" fill="white"/>
</clipPath>
</defs>
</svg>
