<svg width="14" height="14" viewBox="0 0 14 14" fill="none" xmlns="http://www.w3.org/2000/svg">
<g clip-path="url(#clip0_861_8576)">
<path d="M8.59483 12.2342V12.6432C8.59483 12.9687 8.35574 13.2395 8.04462 13.2856L7.9438 13.6572C7.88907 13.8588 7.70759 14 7.4973 14H6.49771C6.28742 14 6.10594 13.8588 6.05121 13.6572L5.95327 13.2856C5.63927 13.2366 5.40018 12.9687 5.40018 12.6403V12.2313C5.40018 12.0123 5.5759 11.8366 5.79483 11.8366H8.20018C8.41911 11.8395 8.59483 12.0152 8.59483 12.2342ZM10.4471 6.72058C10.4471 7.65103 10.0784 8.49506 9.47919 9.1144C9.02405 9.58683 8.73022 10.1889 8.63228 10.8313C8.58907 11.1078 8.34997 11.3123 8.06767 11.3123H5.92734C5.64792 11.3123 5.40594 11.1107 5.36561 10.8342C5.26479 10.1918 4.96808 9.58107 4.51294 9.11152C3.92528 8.50082 3.55944 7.67119 3.5508 6.75802C3.53063 4.83951 5.05738 3.28683 6.9759 3.27243C8.89154 3.25802 10.4471 4.80782 10.4471 6.72058ZM7.38783 4.6321C7.38783 4.41893 7.21499 4.24321 6.99895 4.24321C5.62775 4.24321 4.51006 5.35802 4.51006 6.7321C4.51006 6.94527 4.6829 7.12099 4.89895 7.12099C5.11211 7.12099 5.28783 6.94815 5.28783 6.7321C5.28783 5.78724 6.05697 5.02099 6.99895 5.02099C7.21499 5.02099 7.38783 4.84815 7.38783 4.6321ZM6.99895 2.14033C7.21211 2.14033 7.38783 1.96749 7.38783 1.75144V0.388889C7.38783 0.17572 7.21499 0 6.99895 0C6.7829 0 6.61006 0.17284 6.61006 0.388889V1.75144C6.61006 1.96749 6.78578 2.14033 6.99895 2.14033ZM2.42158 6.7177C2.42158 6.50453 2.24874 6.32881 2.03269 6.32881H0.670139C0.45697 6.32881 0.28125 6.50165 0.28125 6.7177C0.28125 6.93086 0.454089 7.10658 0.670139 7.10658H2.03269C2.24874 7.10658 2.42158 6.93374 2.42158 6.7177ZM13.3278 6.32881H11.9652C11.752 6.32881 11.5763 6.50165 11.5763 6.7177C11.5763 6.93086 11.7492 7.10658 11.9652 7.10658H13.3278C13.5409 7.10658 13.7166 6.93374 13.7166 6.7177C13.7166 6.50453 13.5438 6.32881 13.3278 6.32881ZM3.21376 9.95556L2.24874 10.9206C2.09606 11.0733 2.09606 11.3181 2.24874 11.4708C2.32364 11.5457 2.42446 11.5831 2.5224 11.5831C2.62034 11.5831 2.72117 11.5457 2.79606 11.4708L3.76109 10.5058C3.91376 10.3531 3.91376 10.1082 3.76109 9.95556C3.61129 9.80288 3.36355 9.80288 3.21376 9.95556ZM10.5105 3.59506C10.6084 3.59506 10.7092 3.55761 10.7841 3.48272L11.7492 2.5177C11.9018 2.36502 11.9018 2.12016 11.7492 1.96749C11.5965 1.81481 11.3516 1.81481 11.1989 1.96749L10.2339 2.93251C10.0813 3.08519 10.0813 3.33004 10.2339 3.48272C10.3117 3.55761 10.4096 3.59506 10.5105 3.59506ZM3.21376 3.47984C3.28866 3.55473 3.38948 3.59218 3.48742 3.59218C3.58537 3.59218 3.68619 3.55473 3.76109 3.47984C3.91376 3.32716 3.91376 3.0823 3.76109 2.92963L2.79606 1.96461C2.64339 1.81193 2.39853 1.81193 2.24586 1.96461C2.09318 2.11728 2.09318 2.36214 2.24586 2.51481L3.21376 3.47984ZM10.7841 9.95556C10.6315 9.80288 10.3866 9.80288 10.2339 9.95556C10.0813 10.1082 10.0813 10.3531 10.2339 10.5058L11.1989 11.4708C11.2738 11.5457 11.3747 11.5831 11.4726 11.5831C11.5705 11.5831 11.6714 11.5457 11.7463 11.4708C11.8989 11.3181 11.8989 11.0733 11.7463 10.9206L10.7841 9.95556Z" fill="#FA8C28"/>
</g>
<defs>
<clipPath id="clip0_861_8576">
<rect width="14" height="14" fill="white"/>
</clipPath>
</defs>
</svg>
