<svg width="56" height="56" viewBox="0 0 56 56" fill="none" xmlns="http://www.w3.org/2000/svg">
<rect x="0.5" y="0.5" width="55" height="55" fill="#FCFCFC"/>
<path d="M27.3832 38.1818V16.3636H28.7809V38.1818H27.3832ZM31.4144 23.3438C31.3349 22.5994 30.9996 22.0199 30.4087 21.6051C29.8235 21.1903 29.0621 20.983 28.1246 20.983C27.4656 20.983 26.9002 21.0824 26.4286 21.2812C25.957 21.4801 25.5962 21.75 25.3462 22.0909C25.0962 22.4318 24.9684 22.821 24.9627 23.2585C24.9627 23.6222 25.0451 23.9375 25.2099 24.2045C25.3803 24.4716 25.6104 24.6989 25.9002 24.8864C26.19 25.0682 26.511 25.2216 26.8633 25.3466C27.2156 25.4716 27.5707 25.5767 27.9286 25.6619L29.565 26.071C30.2241 26.2244 30.8576 26.4318 31.4656 26.6932C32.0792 26.9545 32.6275 27.2841 33.1104 27.6818C33.5991 28.0795 33.9854 28.5597 34.2695 29.1222C34.5536 29.6847 34.6957 30.3437 34.6957 31.0994C34.6957 32.1222 34.4343 33.0227 33.9116 33.8011C33.3889 34.5739 32.6332 35.179 31.6445 35.6165C30.6616 36.0483 29.4712 36.2642 28.0735 36.2642C26.7156 36.2642 25.5366 36.054 24.5366 35.6335C23.5423 35.2131 22.7638 34.5994 22.2013 33.7926C21.6445 32.9858 21.3434 32.0028 21.2979 30.8438H24.4087C24.4542 31.4517 24.6417 31.9574 24.9712 32.3608C25.3008 32.7642 25.7298 33.0653 26.2582 33.2642C26.7923 33.4631 27.3888 33.5625 28.0479 33.5625C28.7354 33.5625 29.3377 33.4602 29.8548 33.2557C30.3775 33.0455 30.7866 32.7557 31.082 32.3864C31.3775 32.0114 31.5281 31.5739 31.5337 31.0739C31.5281 30.6193 31.3945 30.2443 31.1332 29.9489C30.8718 29.6477 30.5053 29.3977 30.0337 29.1989C29.5678 28.9943 29.0224 28.8125 28.3974 28.6534L26.4116 28.142C24.9741 27.7727 23.8377 27.2131 23.0025 26.4631C22.1729 25.7074 21.7582 24.7045 21.7582 23.4545C21.7582 22.4261 22.0366 21.5256 22.5934 20.7528C23.1559 19.9801 23.9201 19.3807 24.886 18.9545C25.8519 18.5227 26.9457 18.3068 28.1673 18.3068C29.4059 18.3068 30.4911 18.5227 31.4229 18.9545C32.3604 19.3807 33.0962 19.9744 33.6303 20.7358C34.1644 21.4915 34.44 22.3608 34.457 23.3438H31.4144Z" fill="#888993"/>
<rect x="0.5" y="0.5" width="55" height="55" stroke="#E0E0E0"/>
</svg>
