<svg width="51" height="52" viewBox="0 0 51 52" fill="none" xmlns="http://www.w3.org/2000/svg">
<g clip-path="url(#clip0_294_5575)">
<path d="M44.3865 7.11648C36.9613 -0.308672 16.6517 -0.684995 7.91656 5.98542C-0.0284486 13.9304 0.406145 36.2465 7.8313 43.6717C15.2565 51.0968 37.1176 51.9863 45.5176 43.5864C52.188 34.8513 51.8117 14.5416 44.3865 7.11648Z" fill="#F3F4FF"/>
<path d="M9.04586 42.4542C1.62081 35.0291 1.24449 14.7194 7.9148 5.98438C7.44704 6.34157 7.01075 6.7179 6.61311 7.11544C-1.20958 14.9382 -1.20958 37.0643 6.61311 44.887C14.4359 52.7097 36.5619 52.7097 44.3846 44.887C44.7823 44.4894 45.1585 44.053 45.5157 43.5853C36.7808 50.2557 16.4711 49.8794 9.04586 42.4542Z" fill="#D6D7F4"/>
<path d="M16.0547 37.8318V17.7349C16.0547 16.3044 17.6373 15.4404 18.8406 16.214L34.4718 26.2623C35.5789 26.9741 35.5789 28.5925 34.4718 29.3043L18.8406 39.3527C17.6373 40.1263 16.0547 39.2623 16.0547 37.8318Z" fill="#D6D7F4"/>
<path d="M36.2956 24.4376L20.6644 14.3892C20.3578 14.192 20.0265 14.1018 19.7031 14.0996L18.1523 36.5723L20.6212 37.1354L37.0873 26.319C37.2261 25.6272 36.9642 24.8673 36.2956 24.4376Z" fill="#FA8C28"/>
<path d="M19.7035 34.1825V14.0996C18.7577 14.0933 17.8789 14.8442 17.8789 15.9101V36.007C17.8789 37.4375 19.4615 38.3015 20.6648 37.528L36.296 27.4796C36.7347 27.1976 36.9966 26.7729 37.0877 26.319L22.4893 35.7035C21.286 36.477 19.7035 35.613 19.7035 34.1825Z" fill="#EB7B15"/>
<path d="M25.4999 51.5017C21.6091 51.5017 17.8067 50.9839 14.5036 50.0041C10.9417 48.9477 8.03097 47.361 6.08571 45.4158C4.14065 43.4707 2.55397 40.5598 1.49742 36.9981C0.517768 33.6951 0 29.8927 0 26.0019C0 22.111 0.517767 18.3087 1.49752 15.0055C2.55397 11.4437 4.14065 8.53293 6.08581 6.58766C8.03098 4.6426 10.9418 3.05593 14.5037 1.99937C17.8067 1.01972 21.6091 0.501953 25.4999 0.501953C29.3907 0.501953 33.1931 1.01972 36.4962 1.99947C40.0581 3.05593 42.9688 4.6426 44.9141 6.58776C45.2058 6.87962 45.2058 7.35256 44.9141 7.64432C44.6221 7.93607 44.1492 7.93587 43.8575 7.64432C40.3734 4.16039 33.3392 1.99609 25.4999 1.99609C17.6606 1.99609 10.6264 4.16039 7.14236 7.64432C3.65834 11.1282 1.49413 18.1625 1.49413 26.0019C1.49413 33.8412 3.65844 40.8754 7.14236 44.3593C10.6264 47.8434 17.6606 50.0076 25.4999 50.0076C33.3392 50.0076 40.3734 47.8433 43.8574 44.3593C46.9844 41.2325 49.0735 35.209 49.4459 28.2465C49.8143 21.3599 48.4855 14.6527 45.8916 10.3049C45.6801 9.95046 45.796 9.49196 46.1503 9.28059C46.5045 9.06912 46.9632 9.18497 47.1746 9.53938C49.9147 14.1319 51.3214 21.1552 50.9378 28.3263C50.5405 35.7562 48.3449 41.985 44.914 45.4158C42.9688 47.3609 40.058 48.9476 36.4961 50.0041C33.1931 50.9839 29.3907 51.5017 25.4999 51.5017ZM19.6916 38.5667C19.2731 38.5667 18.8534 38.461 18.4643 38.2487C17.6311 37.7938 17.1336 36.9555 17.1336 36.006V15.9092C17.1336 14.9598 17.6311 14.1215 18.4643 13.6665C19.2974 13.2116 20.2718 13.2461 21.0706 13.7598L27.9083 18.1556C28.2554 18.3786 28.3559 18.8409 28.1328 19.1879C27.9096 19.5349 27.4474 19.6352 27.1004 19.4123L20.2627 15.0166C19.9311 14.8034 19.5265 14.7891 19.1804 14.9778C18.8344 15.1667 18.6278 15.5149 18.6278 15.9092V36.006C18.6278 36.4002 18.8344 36.7484 19.1804 36.9373C19.5266 37.1263 19.9311 37.1117 20.2627 36.8986L35.8938 26.8501C36.2035 26.651 36.3811 26.3258 36.3812 25.9576C36.3812 25.5895 36.2036 25.2641 35.8938 25.065L30.1551 21.3759C29.8081 21.1529 29.7076 20.6906 29.9307 20.3436C30.1536 19.9964 30.6159 19.8959 30.9631 20.1191L36.7017 23.8083C37.4365 24.2806 37.8752 25.0842 37.8752 25.9577C37.8751 26.8312 37.4364 27.6346 36.7017 28.107L21.0706 38.1553C20.645 38.429 20.1691 38.5667 19.6916 38.5667Z" fill="#2E305C"/>
</g>
<defs>
<clipPath id="clip0_294_5575">
<rect width="51" height="51" fill="white" transform="translate(0 0.5)"/>
</clipPath>
</defs>
</svg>
