<svg width="13" height="13" viewBox="0 0 13 13" fill="none" xmlns="http://www.w3.org/2000/svg">
<g clip-path="url(#clip0_172_6381)">
<path d="M6.50001 0C2.91135 0 0 2.90768 0 6.49658C0 10.0889 2.91135 13 6.49998 13C10.0906 13 12.9995 10.0889 12.9995 6.49658C12.9995 2.90768 10.0906 0 6.50001 0ZM6.9632 10.1134C6.81224 10.2477 6.63728 10.3152 6.43909 10.3152C6.23403 10.3152 6.05516 10.2489 5.90248 10.116C5.74955 9.98341 5.67294 9.7977 5.67294 9.55911C5.67294 9.34746 5.74709 9.16931 5.89489 9.02494C6.04269 8.88057 6.224 8.80838 6.43909 8.80838C6.65074 8.80838 6.82889 8.88057 6.9735 9.02494C7.11787 9.16931 7.1903 9.34743 7.1903 9.55911C7.19003 9.79427 7.11441 9.97904 6.9632 10.1134ZM8.84562 5.4466C8.72963 5.66169 8.59188 5.84715 8.4321 6.00353C8.27279 6.15988 7.98628 6.42268 7.57272 6.79216C7.4587 6.89641 7.36694 6.98792 7.29819 7.0667C7.22943 7.14575 7.17805 7.2179 7.14451 7.2835C7.11074 7.34906 7.08482 7.41466 7.06646 7.48022C7.04809 7.54554 7.02046 7.66081 6.98301 7.82547C6.91941 8.1749 6.71949 8.34958 6.38352 8.34958C6.2088 8.34958 6.06199 8.29257 5.94233 8.1783C5.82316 8.06403 5.7637 7.89446 5.7637 7.66935C5.7637 7.38723 5.8075 7.14277 5.89486 6.93602C5.98174 6.72925 6.09796 6.54794 6.24234 6.39159C6.38695 6.23523 6.58171 6.04974 6.82714 5.83466C7.04222 5.64648 7.19761 5.50458 7.29328 5.40888C7.38919 5.31298 7.46971 5.20629 7.53504 5.08883C7.60087 4.97113 7.63317 4.84364 7.63317 4.70589C7.63317 4.43699 7.53359 4.2104 7.33344 4.02566C7.13353 3.84092 6.87561 3.74842 6.55971 3.74842C6.18999 3.74842 5.91789 3.84165 5.74317 4.0281C5.56846 4.21456 5.42092 4.48909 5.29979 4.85198C5.18528 5.23176 4.96848 5.42162 4.64963 5.42162C4.46146 5.42162 4.30267 5.3553 4.17323 5.22267C4.04403 5.09003 3.97943 4.94641 3.97943 4.79178C3.97943 4.47269 4.08196 4.14921 4.28677 3.82157C4.49183 3.49393 4.79084 3.22255 5.18405 3.00771C5.57701 2.79263 6.03583 2.68495 6.55971 2.68495C7.04689 2.68495 7.47682 2.77499 7.84973 2.95485C8.22264 3.13444 8.51087 3.37891 8.71422 3.68818C8.91732 3.99722 9.0191 4.33319 9.0191 4.69608C9.01958 4.98118 8.9616 5.23152 8.84562 5.4466Z" fill="white"/>
</g>
<defs>
<clipPath id="clip0_172_6381">
<rect width="13" height="13" fill="white"/>
</clipPath>
</defs>
</svg>
