<svg xmlns="http://www.w3.org/2000/svg" width="40" height="40" viewBox="0 0 40 40">
  <g id="Group_6681" data-name="Group 6681" transform="translate(-6433 -226)">
    <circle id="Ellipse_297" data-name="Ellipse 297" cx="20" cy="20" r="20" transform="translate(6433 226)" fill="#fff"/>
    <path id="contact_support_FILL0_wght400_GRAD0_opsz48" d="M18.532,29.382l-.317-3.49H16.946a10.548,10.548,0,0,1-7.741-3.2A10.548,10.548,0,0,1,6,14.946,10.521,10.521,0,0,1,9.22,7.2,10.637,10.637,0,0,1,17.009,4a10.632,10.632,0,0,1,4.172.809,10.141,10.141,0,0,1,3.347,2.269,10.58,10.58,0,0,1,2.237,3.442,11.356,11.356,0,0,1,.809,4.331,14.716,14.716,0,0,1-.619,4.188,16.492,16.492,0,0,1-1.793,4,17.971,17.971,0,0,1-2.855,3.522A19.322,19.322,0,0,1,18.532,29.382Zm1.586-3.427A15.988,15.988,0,0,0,24.2,20.8a13.252,13.252,0,0,0,1.475-5.949A8.81,8.81,0,0,0,23.212,8.41a8.325,8.325,0,0,0-6.2-2.506,8.786,8.786,0,0,0-6.457,2.649A8.712,8.712,0,0,0,7.9,14.946a8.712,8.712,0,0,0,2.649,6.393,8.712,8.712,0,0,0,6.393,2.649h3.173Zm-3.109-3.649a1.192,1.192,0,1,0-.857-.349A1.165,1.165,0,0,0,17.009,22.307Zm-.857-4.315h1.586a2.86,2.86,0,0,1,.27-1.317,6.33,6.33,0,0,1,1.126-1.38,6.178,6.178,0,0,0,1.206-1.571,3.457,3.457,0,0,0,.349-1.539,3.1,3.1,0,0,0-.968-2.348,3.6,3.6,0,0,0-2.586-.92,4.173,4.173,0,0,0-3.934,2.6l1.459.6a2.6,2.6,0,0,1,.968-1.222,2.559,2.559,0,0,1,1.412-.4,2.226,2.226,0,0,1,1.491.46,1.525,1.525,0,0,1,.539,1.222,2.473,2.473,0,0,1-.349,1.222,8.276,8.276,0,0,1-1.237,1.539,5.653,5.653,0,0,0-1.095,1.428,4.2,4.2,0,0,0-.238,1.618ZM16.787,15.929Z" transform="translate(6436.213 230.309)" fill="#666dff" stroke="#666dff" stroke-width="1"/>
  </g>
</svg>
