<svg width="32" height="32" viewBox="0 0 32 32" fill="none" xmlns="http://www.w3.org/2000/svg">
<rect width="32" height="32" rx="16" fill="white"/>
<g clip-path="url(#clip0_172_7428)">
<path d="M12.049 23.9865L12.3436 23.9041C12.6269 23.825 12.7924 23.5311 12.7132 23.2477L9.34542 11.1957C9.2979 11.0256 9.18475 10.8813 9.03088 10.7947C8.877 10.708 8.69501 10.686 8.52492 10.7336L8.48688 10.7442C8.13268 10.8431 7.92577 11.2105 8.02473 11.5647L11.3926 23.6168C11.4718 23.9001 11.7657 24.0656 12.049 23.9865Z" fill="#2E305C"/>
<path d="M23.9093 15.5644C22.8413 15.0319 21.8533 14.3521 20.9741 13.5451C20.9002 13.4774 20.8713 13.3736 20.8996 13.2775C21.3352 11.6295 21.6587 9.95399 21.8679 8.26232C21.901 7.98094 21.7493 7.89819 21.5893 8.09129C18.45 11.8458 13.0183 7.40439 9.78516 10.8168C9.82397 10.8895 9.85451 10.9663 9.87619 11.0458L12.061 18.8692C15.2996 15.4982 20.7121 19.912 23.8458 16.1658C24.0058 15.9727 24.0362 15.6196 23.9093 15.5644Z" fill="#2E305C"/>
</g>
<defs>
<clipPath id="clip0_172_7428">
<rect width="16" height="16" fill="white" transform="translate(8 8)"/>
</clipPath>
</defs>
</svg>
