<svg width="32" height="32" viewBox="0 0 32 32" fill="none" xmlns="http://www.w3.org/2000/svg">
<rect width="32" height="32" rx="16" fill="white"/>
<path d="M16 8.5C14.5166 8.5 13.0666 8.93987 11.8332 9.76398C10.5999 10.5881 9.63856 11.7594 9.07091 13.1299C8.50325 14.5003 8.35472 16.0083 8.64411 17.4632C8.9335 18.918 9.64781 20.2544 10.6967 21.3033C11.7456 22.3522 13.082 23.0665 14.5368 23.3559C15.9917 23.6453 17.4997 23.4968 18.8701 22.9291C20.2406 22.3614 21.4119 21.4001 22.236 20.1668C23.0601 18.9334 23.5 17.4834 23.5 16C23.5 15.0151 23.306 14.0398 22.9291 13.1299C22.5522 12.2199 21.9997 11.3931 21.3033 10.6967C20.6069 10.0003 19.7801 9.44781 18.8701 9.0709C17.9602 8.69399 16.9849 8.5 16 8.5V8.5ZM20.26 15.655L18.6625 17.29L19.0375 19.615C19.0635 19.7563 19.0483 19.9022 18.9938 20.0351C18.9393 20.1681 18.8477 20.2826 18.73 20.365C18.6144 20.4452 18.4785 20.4913 18.3379 20.4979C18.1973 20.5045 18.0577 20.4715 17.935 20.4025L16 19.315L14.05 20.3875C13.9409 20.4517 13.8166 20.4854 13.69 20.485C13.5345 20.4862 13.3825 20.439 13.255 20.35C13.1373 20.2676 13.0457 20.1531 12.9912 20.0201C12.9367 19.8872 12.9215 19.7413 12.9475 19.6L13.33 17.275L11.725 15.655C11.628 15.5561 11.5602 15.4323 11.5293 15.2973C11.4983 15.1622 11.5054 15.0213 11.5497 14.89C11.5939 14.7588 11.6737 14.6423 11.7801 14.5536C11.8865 14.4649 12.0154 14.4074 12.1525 14.3875L14.335 14.05L15.3175 11.965C15.3733 11.8292 15.4677 11.7128 15.589 11.6301C15.7103 11.5474 15.8532 11.5022 16 11.5C16.1426 11.499 16.2826 11.5387 16.4035 11.6144C16.5244 11.6901 16.6212 11.7987 16.6825 11.9275L17.6575 14.05L19.84 14.3875C19.9766 14.4079 20.1049 14.4656 20.2107 14.5543C20.3166 14.6429 20.3959 14.7591 20.44 14.89C20.4837 15.0217 20.49 15.1629 20.4582 15.298C20.4264 15.433 20.3578 15.5566 20.26 15.655V15.655Z" fill="#2E305C"/>
</svg>
