<svg width="32" height="32" viewBox="0 0 32 32" fill="none" xmlns="http://www.w3.org/2000/svg">
<rect width="32" height="32" rx="16" fill="#FFCD82"/>
<path d="M23.0047 26.0447C23.0047 25.9395 23.0047 11.9144 23.0047 11.5754C23.0047 8.49634 20.5084 6 17.4293 6H14.6276C11.5485 6 9.05213 8.49634 9.05213 11.5754V26.0015C8.03174 26.7636 7.37109 27.9806 7.37109 29.3518V31.5517C7.37109 31.7994 7.5717 32 7.81937 32H24.1814C24.4291 32 24.6297 31.7994 24.6297 31.5517V29.3518C24.6297 28.0059 23.9932 26.8084 23.0047 26.0447Z" fill="#FFD6A6"/>
<path d="M10.4526 17.3263C10.4526 19.6388 11.8675 21.6207 13.8791 22.4534L13.8707 22.4741V22.8569C13.8707 24.1401 12.8287 25.1733 11.5492 25.1733C10.6129 25.1733 9.74883 25.4815 9.05176 26.0015C9.05176 25.5542 9.05176 11.1509 9.05176 11.5754C9.05176 8.49622 11.548 6 14.6272 6H17.4289C20.5081 6 23.0043 8.49622 23.0043 11.5754V26.0447C22.2983 25.4983 21.4124 25.1733 20.4509 25.1733C19.1666 25.1733 18.1293 24.1354 18.1293 22.8569V22.4741L18.1209 22.4534C20.1326 21.6207 21.5474 19.6388 21.5474 17.3263C21.5474 17.2883 21.5474 14.0769 21.5474 14.1556C21.5474 13.8767 21.2954 13.6655 21.0208 13.7143C20.3131 13.84 19.6055 13.9655 18.8979 14.0913C18.7176 14.1233 18.5414 14.0123 18.4963 13.8349C18.4325 13.584 18.3252 13.2868 18.1417 12.9802C17.9861 12.7206 17.6178 12.7678 17.5171 13.0324C17.387 13.374 17.2502 13.7217 17.1137 14.0598C17.0617 14.1887 16.9379 14.2744 16.799 14.2792C14.8567 14.3467 12.9036 14.1684 10.9969 13.7477C10.7172 13.686 10.4527 13.899 10.4527 14.1854L10.4526 17.3263Z" fill="#42434D"/>
<path d="M21.547 17.3267C21.547 20.3916 19.062 22.8741 15.9996 22.8741C12.9373 22.8741 10.4521 20.3917 10.4521 17.3267V14.1859C10.4521 13.8994 10.7167 13.6864 10.9964 13.7481C12.902 14.1686 14.8551 14.3472 16.7984 14.2797C16.9374 14.2748 17.0611 14.1892 17.1131 14.0603C17.2441 13.7358 17.3818 13.3867 17.5165 13.0329C17.6189 12.764 17.9887 12.7277 18.1372 12.9741C18.2909 13.229 18.4153 13.5185 18.4958 13.8353C18.5409 14.0127 18.7171 14.1238 18.8973 14.0917C19.605 13.966 20.3126 13.8404 21.0203 13.7147C21.2949 13.6659 21.5469 13.8771 21.5469 14.156C21.547 14.6369 21.547 16.958 21.547 17.3267Z" fill="#FFDFBA"/>
<path d="M24.6297 29.3522V31.5521C24.6297 31.7998 24.4291 32.0004 24.1814 32.0004H7.81937C7.5717 32.0004 7.37109 31.7998 7.37109 31.5521V29.3522C7.37109 27.0445 9.24192 25.1737 11.5496 25.1737C11.8931 25.1737 12.2192 25.0992 12.5123 24.9658L12.5263 24.9961C12.8794 25.2695 15.423 27.2389 15.7258 27.4734C15.8878 27.5983 16.113 27.5983 16.275 27.4734C16.5771 27.2395 19.1217 25.2692 19.4745 24.9961L19.4886 24.9658C20.2715 25.3221 20.5783 25.041 21.6033 25.3345C23.351 25.8349 24.6297 27.4442 24.6297 29.3522Z" fill="#FFA4B8"/>
<path d="M14.6756 20.8691C15.5915 21.4621 14.851 22.8647 13.8456 22.4405C11.8545 21.6005 10.4521 19.6287 10.4521 17.3265V14.1858C10.4521 13.8994 10.7166 13.6859 10.9962 13.7481C11.1325 13.7782 11.2722 13.8078 11.4154 13.8366C11.8323 13.9206 12.1332 14.2859 12.1332 14.7112V16.2058C12.1332 18.0957 13.0863 19.84 14.6756 20.8691Z" fill="#FFEBD2"/>
<path d="M18.1929 23.3939C16.8124 23.9718 15.2952 24.0167 13.8076 23.3939C13.8836 23.0787 13.8709 22.8745 13.8709 22.4739L13.8793 22.4531C15.2288 23.0132 16.7691 23.0144 18.1212 22.4531L18.1296 22.4739C18.1296 22.8747 18.1169 23.0788 18.1929 23.3939Z" fill="#F7C388"/>
<path d="M19.5287 6.40888C20.2116 6.68676 19.9854 7.70065 19.2482 7.68272C19.1352 7.67997 16.252 7.68103 16.3082 7.68103C13.229 7.68103 10.7328 10.1773 10.7328 13.2565C10.7328 13.8709 10.4526 13.8701 10.4526 14.1855C10.4526 17.5294 10.3799 18.0056 10.7328 19.0717V25.2529C10.1119 25.3762 9.54094 25.6368 9.05176 26.0015V11.5754C9.05176 8.49622 11.548 6 14.6272 6H17.4289C18.1718 6 18.8807 6.14524 19.5287 6.40888Z" fill="#4D4E59"/>
<path d="M13.4504 25.7116C13.7164 25.9175 13.5758 26.3491 13.2395 26.3504C10.8674 26.3593 9.05213 28.264 9.05213 30.5289V32.0004H7.81937C7.57181 32.0004 7.37109 31.7997 7.37109 31.5521V29.3522C7.37109 27.0457 9.24096 25.1737 11.5496 25.1737C11.8931 25.1737 12.2192 25.0992 12.5123 24.9658L12.5263 24.9961L13.4504 25.7116Z" fill="#FFB1BF"/>
<path d="M18.5501 25.7116C18.2842 25.9175 18.4247 26.3491 18.7611 26.3504C21.1332 26.3593 22.9485 28.264 22.9485 30.5289V32.0004H24.1812C24.4288 32.0004 24.6295 31.7997 24.6295 31.5521V29.3522C24.6295 27.0457 22.7596 25.1737 20.451 25.1737C20.1075 25.1737 19.7814 25.0992 19.4883 24.9658L19.4743 24.9961L18.5501 25.7116Z" fill="#FF99AF"/>
</svg>
