<svg width="10" height="10" viewBox="0 0 10 10" fill="none" xmlns="http://www.w3.org/2000/svg">
<path d="M3.04513 8.49445C3.04513 8.76419 2.82144 8.98129 2.55829 8.98129H1.21618C0.946443 8.98129 0.729338 8.76419 0.729338 8.49445V4.6655C0.729338 4.39576 0.946443 4.17866 1.21618 4.17866H2.55829C2.82802 4.17866 3.04513 4.39576 3.04513 4.6655V8.49445ZM8.75565 5.49445C9.04513 5.72471 9.09118 6.14576 8.86092 6.43524C8.76881 6.55366 8.63723 6.63261 8.4925 6.6655C8.78197 6.89576 8.82802 7.31682 8.59776 7.59971C8.50565 7.71813 8.37407 7.79708 8.22276 7.83655C8.51223 8.06682 8.55829 8.48787 8.32144 8.77734C8.19644 8.93524 8.00565 9.02734 7.80171 9.02734L4.01881 8.98787C3.74907 8.98787 3.53197 8.77076 3.53197 8.50103V4.67208C3.53197 4.06682 5.46618 2.95498 5.56486 2.35629C5.63065 1.97471 5.54513 0.981291 5.80829 0.981291C6.26223 0.981291 6.8346 1.15234 6.8346 2.15234C6.8346 3.03392 6.25565 4.17866 6.25565 4.17866H8.61092C8.97934 4.17866 9.27539 4.47471 9.27539 4.84313C9.27539 5.15892 9.05829 5.42866 8.75565 5.49445V5.49445Z" fill="url(#paint0_linear_433_2589)"/>
<defs>
<linearGradient id="paint0_linear_433_2589" x1="7.88855" y1="9.21899" x2="1.92947" y2="3.25991" gradientUnits="userSpaceOnUse">
<stop stop-color="#5DEF50"/>
<stop offset="1" stop-color="#28C667"/>
</linearGradient>
</defs>
</svg>
