<svg width="10" height="10" viewBox="0 0 10 10" fill="none" xmlns="http://www.w3.org/2000/svg">
<path d="M6.95487 1.50555C6.95487 1.23581 7.17856 1.01871 7.44171 1.01871H8.78382C9.05356 1.01871 9.27066 1.23581 9.27066 1.50555V5.3345C9.27066 5.60424 9.05356 5.82134 8.78382 5.82134H7.44171C7.17198 5.82134 6.95487 5.60424 6.95487 5.3345V1.50555ZM1.24435 4.50555C0.954873 4.27529 0.90882 3.85424 1.13908 3.56476C1.23119 3.44634 1.36277 3.36739 1.5075 3.3345C1.21803 3.10424 1.17198 2.68318 1.40224 2.40029C1.49435 2.28187 1.62593 2.20292 1.77724 2.16345C1.48777 1.93318 1.44171 1.51213 1.67856 1.22266C1.80356 1.06476 1.99435 0.972656 2.19829 0.972656L5.98119 1.01213C6.25093 1.01213 6.46803 1.22924 6.46803 1.49897V5.32792C6.46803 5.93318 4.53382 7.04502 4.43514 7.64371C4.36935 8.02529 4.45487 9.01871 4.19171 9.01871C3.73777 9.01871 3.1654 8.84766 3.1654 7.84766C3.1654 6.96608 3.74435 5.82134 3.74435 5.82134H1.38908C1.02066 5.82134 0.724609 5.52529 0.724609 5.15687C0.724609 4.84108 0.941715 4.57134 1.24435 4.50555V4.50555Z" fill="url(#paint0_linear_433_2587)"/>
<defs>
<linearGradient id="paint0_linear_433_2587" x1="2.11145" y1="0.781012" x2="8.07053" y2="6.74009" gradientUnits="userSpaceOnUse">
<stop stop-color="#EF5350"/>
<stop offset="1" stop-color="#C62828"/>
</linearGradient>
</defs>
</svg>
