<svg width="40" height="40" viewBox="0 0 40 40" fill="none" xmlns="http://www.w3.org/2000/svg">
<g clip-path="url(#clip0_944_4616)">
<path d="M38.532 12.5011H19.9995C15.8576 12.497 12.4966 15.8514 12.4924 19.9933C12.4912 21.2798 12.8209 22.545 13.4498 23.6672L4.18359 7.76794C10.9327 -0.967216 23.4853 -2.57714 32.2205 4.17201C35.0257 6.33949 37.2041 9.21412 38.532 12.5011Z" fill="#F44336"/>
<path d="M39.999 20.0016C39.9898 31.043 31.0413 39.9915 19.9999 40.0007C19.1637 40.0039 18.3283 39.9482 17.5 39.8341L26.4996 23.7515C28.5622 20.1607 27.3327 15.578 23.7497 13.5019C22.6153 12.8451 21.3273 12.5001 20.0165 12.502H38.5323C39.5056 14.8823 40.0038 17.43 39.999 20.0016Z" fill="#FFC107"/>
<path d="M26.5004 23.7502L17.5008 39.8329H17.4842C6.53246 38.4492 -1.2239 28.4493 0.159783 17.4976C0.607653 13.9528 1.99751 10.5929 4.18476 7.76758L13.451 23.6669L13.501 23.7502C15.5674 27.3399 20.1525 28.5748 23.7422 26.5085C24.8888 25.8484 25.8404 24.8968 26.5004 23.7502Z" fill="#4CAF50"/>
<path d="M26.5003 23.7515C24.4339 27.3412 19.8488 28.5761 16.2591 26.5098C15.1125 25.8497 14.1609 24.8981 13.5009 23.7515L13.4509 23.6682C11.4259 20.055 12.7135 15.4843 16.3267 13.4593C17.449 12.8304 18.7142 12.5007 20.0006 12.502H20.0172C21.328 12.5001 22.616 12.8451 23.7504 13.5019C27.3335 15.5781 28.563 20.1608 26.5003 23.7515Z" fill="#F44336"/>
<path d="M26.5003 23.7515C24.4339 27.3412 19.8488 28.5761 16.2591 26.5098C15.1125 25.8497 14.1609 24.8981 13.5009 23.7515L13.4509 23.6682C11.4259 20.055 12.7135 15.4843 16.3267 13.4593C17.449 12.8304 18.7142 12.5007 20.0006 12.502H20.0172C21.328 12.5001 22.616 12.8451 23.7504 13.5019C27.3335 15.5781 28.563 20.1608 26.5003 23.7515Z" fill="#2196F3"/>
<path d="M19.971 28.3339C18.5181 28.3337 17.0908 27.9508 15.8328 27.2239C14.5643 26.4903 13.5109 25.4363 12.7779 24.1674C10.4769 20.1818 11.8424 15.0855 15.828 12.7844C17.0962 12.0523 18.5349 11.6672 19.9993 11.668C24.6015 11.6644 28.3352 15.3923 28.3387 19.9945C28.3399 21.4594 27.9548 22.8987 27.2223 24.1674C25.7205 26.7493 22.9579 28.3367 19.971 28.3339ZM20.0143 13.3345C17.6227 13.3218 15.4086 14.5946 14.2162 16.6677C12.3753 19.8598 13.4706 23.9398 16.6627 25.7807C19.8547 27.6216 23.9348 26.5262 25.7756 23.3342C27.6165 20.1457 26.524 16.0686 23.3356 14.2277C22.3261 13.6449 21.1815 13.337 20.0159 13.3346H20.0143V13.3345Z" fill="#FAFAFA"/>
</g>
<defs>
<clipPath id="clip0_944_4616">
<rect width="40" height="40" fill="white"/>
</clipPath>
</defs>
</svg>
