<svg width="40" height="40" viewBox="0 0 40 40" fill="none" xmlns="http://www.w3.org/2000/svg">
<g clip-path="url(#clip0_944_4638)">
<path d="M37.9597 13.4153C37.1174 11.3892 35.4114 9.20177 34.0718 8.51046C35.1621 10.6479 35.7931 12.7921 36.0342 14.3923C36.0342 14.3954 36.0355 14.4032 36.0381 14.4246C33.8465 8.96233 30.1306 6.75979 27.0962 1.96402C26.943 1.72153 26.7893 1.47841 26.6397 1.22209C26.5635 1.09123 26.4922 0.957481 26.4263 0.821156C26.3002 0.577723 26.203 0.320462 26.1365 0.0545302C26.1375 0.0284369 26.1184 0.00593738 26.0925 0.00257807C26.0806 -0.000859358 26.0679 -0.000859358 26.0561 0.00257807C26.0533 0.00351556 26.0493 0.00671862 26.0464 0.00781235C26.0421 0.00953106 26.0129 0.0268745 26.0142 0.025312C21.1457 2.87658 19.5202 8.13062 19.3684 10.7696C17.4243 10.9032 15.5655 11.6195 14.0344 12.825C13.8741 12.6896 13.7065 12.563 13.5324 12.4459C13.0907 10.9005 13.0719 9.26474 13.478 7.70954C11.4871 8.61608 9.93857 10.049 8.81281 11.3143H8.80383C8.03556 10.3412 8.0897 7.13111 8.13353 6.46089C8.12431 6.41933 7.56041 6.75362 7.48651 6.80401C6.80855 7.2879 6.17474 7.83086 5.59248 8.42655C4.92992 9.09842 4.32454 9.82442 3.78267 10.5969C3.78267 10.5978 3.78213 10.599 3.78181 10.5999C3.78181 10.5989 3.78236 10.5978 3.78267 10.5969C2.53645 12.363 1.65256 14.3585 1.18218 16.4682C1.17288 16.5102 1.16507 16.5537 1.15608 16.5961C1.1196 16.7667 0.988353 17.6203 0.965384 17.8057C0.963588 17.82 0.962806 17.8337 0.961088 17.848C0.791325 18.7305 0.686249 19.6241 0.646562 20.5219C0.646562 20.555 0.644531 20.5877 0.644531 20.6209C0.645 31.3235 9.32225 39.9993 20.0256 39.9993C29.6114 39.9993 37.5705 33.0407 39.1287 23.9004C39.1615 23.6523 39.1878 23.403 39.2168 23.1528C39.602 19.8294 39.174 16.3363 37.9597 13.4153ZM15.6218 28.5839C15.7124 28.6272 15.7976 28.6745 15.8907 28.7161C15.8946 28.7187 15.8999 28.7217 15.9038 28.7241C15.8091 28.6789 15.7151 28.6321 15.6218 28.5839ZM36.0395 14.4293L36.037 14.4105C36.0379 14.4174 36.0392 14.4246 36.0402 14.4314L36.0395 14.4293Z" fill="url(#paint0_linear_944_4638)"/>
<path d="M37.9595 13.4165C37.1172 11.3904 35.4112 9.20303 34.0715 8.51172C35.1618 10.6492 35.7929 12.7934 36.034 14.3936C36.034 14.3889 36.0349 14.3975 36.0369 14.4118C36.0378 14.4186 36.0391 14.4258 36.0401 14.4326C37.8686 19.3898 36.8725 24.4307 35.437 27.511C33.2162 32.2771 27.8392 37.1617 19.4231 36.9234C10.33 36.666 2.31934 29.9191 0.823981 21.0823C0.551486 19.6888 0.823981 18.9813 0.961088 17.8498C0.79406 18.7221 0.730467 18.974 0.646562 20.5237C0.646562 20.5568 0.644531 20.5895 0.644531 20.6227C0.644766 31.3247 9.32202 40.0006 20.0254 40.0006C29.6112 40.0006 37.5703 33.0419 39.1285 23.9017C39.1613 23.6536 39.1876 23.4042 39.2165 23.154C39.6017 19.8306 39.1738 16.3376 37.9595 13.4165Z" fill="url(#paint1_radial_944_4638)"/>
<path d="M37.9595 13.4165C37.1172 11.3904 35.4112 9.20303 34.0715 8.51172C35.1618 10.6492 35.7929 12.7934 36.034 14.3936C36.034 14.3889 36.0349 14.3975 36.0369 14.4118C36.0378 14.4186 36.0391 14.4258 36.0401 14.4326C37.8686 19.3898 36.8725 24.4307 35.437 27.511C33.2162 32.2771 27.8392 37.1617 19.4231 36.9234C10.33 36.666 2.31934 29.9191 0.823981 21.0823C0.551486 19.6888 0.823981 18.9813 0.961088 17.8498C0.79406 18.7221 0.730467 18.974 0.646562 20.5237C0.646562 20.5568 0.644531 20.5895 0.644531 20.6227C0.644766 31.3247 9.32202 40.0006 20.0254 40.0006C29.6112 40.0006 37.5703 33.0419 39.1285 23.9017C39.1613 23.6536 39.1876 23.4042 39.2165 23.154C39.6017 19.8306 39.1738 16.3376 37.9595 13.4165Z" fill="url(#paint2_radial_944_4638)"/>
<path d="M28.5398 15.6938C28.5821 15.7234 28.6204 15.753 28.6602 15.7824C28.1738 14.9192 27.5681 14.1289 26.861 13.4347C20.8366 7.41103 26.0162 0.025 26.0176 0.0234375C21.1491 2.87471 19.519 8.13094 19.3672 10.7698C19.593 10.7542 19.8182 10.7352 20.048 10.7352C23.681 10.7353 26.8453 12.7328 28.5398 15.6938Z" fill="url(#paint3_radial_944_4638)"/>
<path d="M20.0605 16.8977C20.0288 17.3798 18.3256 19.0423 17.73 19.0423C12.2188 19.0423 11.3242 22.3757 11.3242 22.3757C11.5684 25.1829 13.5226 27.4946 15.8895 28.7178C15.9975 28.7736 16.1068 28.8239 16.2162 28.8738C16.4037 28.9568 16.5935 29.0344 16.7854 29.1065C17.597 29.3939 18.447 29.5578 19.3073 29.5929C28.9668 30.0459 30.8382 18.0452 23.8673 14.5602C25.6525 14.2498 27.5055 14.9677 28.5403 15.6947C26.8458 12.7339 23.6815 10.7363 20.0485 10.7363C19.8187 10.7363 19.5936 10.7553 19.3677 10.7709C17.4236 10.9046 15.5648 11.6208 14.0338 12.8264C14.3292 13.0764 14.6628 13.4106 15.3655 14.1028C16.6802 15.3985 20.0533 16.7403 20.0605 16.8977Z" fill="url(#paint4_radial_944_4638)"/>
<path d="M20.0605 16.8977C20.0288 17.3798 18.3256 19.0423 17.73 19.0423C12.2188 19.0423 11.3242 22.3757 11.3242 22.3757C11.5684 25.1829 13.5226 27.4946 15.8895 28.7178C15.9975 28.7736 16.1068 28.8239 16.2162 28.8738C16.4037 28.9568 16.5935 29.0344 16.7854 29.1065C17.597 29.3939 18.447 29.5578 19.3073 29.5929C28.9668 30.0459 30.8382 18.0452 23.8673 14.5602C25.6525 14.2498 27.5055 14.9677 28.5403 15.6947C26.8458 12.7339 23.6815 10.7363 20.0485 10.7363C19.8187 10.7363 19.5936 10.7553 19.3677 10.7709C17.4236 10.9046 15.5648 11.6208 14.0338 12.8264C14.3292 13.0764 14.6628 13.4106 15.3655 14.1028C16.6802 15.3985 20.0533 16.7403 20.0605 16.8977Z" fill="url(#paint5_radial_944_4638)"/>
<path d="M13.1304 12.1812C13.2654 12.2683 13.3993 12.357 13.5321 12.4473C13.0904 10.9019 13.0716 9.26614 13.4777 7.71094C11.4868 8.61748 9.93826 10.0504 8.8125 11.3157C8.90562 11.3131 11.7168 11.2625 13.1304 12.1812Z" fill="url(#paint6_radial_944_4638)"/>
<path d="M0.824507 21.081C2.31987 29.9178 10.3306 36.6647 19.4236 36.9222C27.8397 37.1604 33.2167 32.2755 35.4375 27.5098C36.8729 24.4292 37.8693 19.3889 36.0406 14.4314L36.04 14.4293L36.0374 14.4105C36.0354 14.3961 36.0342 14.3876 36.0345 14.3923C36.0345 14.3954 36.0358 14.4033 36.0383 14.4246C36.7258 18.9133 34.4424 23.2618 30.8731 26.2022L30.8624 26.2274C23.9073 31.8904 17.2518 29.6441 15.9042 28.7246C15.8095 28.6791 15.7154 28.6322 15.622 28.5841C11.567 26.6463 9.89191 22.9521 10.251 19.7839C6.82712 19.7839 5.65965 16.8962 5.65965 16.8962C5.65965 16.8962 8.73373 14.7043 12.7852 16.6106C16.5376 18.3761 20.0616 16.8963 20.0619 16.8962C20.0548 16.7388 16.6816 15.397 15.3666 14.1014C14.664 13.4091 14.3303 13.0754 14.0349 12.8249C13.8746 12.6895 13.707 12.563 13.5329 12.4459C13.3999 12.3557 13.266 12.267 13.1311 12.1798C11.7177 11.2611 8.90638 11.3117 8.81326 11.3141H8.80427C8.03601 10.341 8.09015 7.1309 8.13397 6.4606C8.12475 6.41904 7.56086 6.75333 7.48695 6.80372C6.809 7.28761 6.17518 7.83065 5.59293 8.42626C4.93036 9.09828 4.32499 9.82444 3.78312 10.5971C3.78312 10.598 3.78257 10.5992 3.78226 10.6001C3.78226 10.5991 3.78281 10.598 3.78312 10.5971C2.53689 12.3631 1.65301 14.3586 1.18262 16.4684C1.17333 16.5102 0.484982 19.52 0.824507 21.081Z" fill="url(#paint7_radial_944_4638)"/>
<path d="M26.8626 13.435C27.5697 14.1292 28.1754 14.9195 28.6618 15.7827C28.7685 15.8629 28.8682 15.9428 28.9527 16.0208C33.3464 20.069 31.0443 25.7948 30.8726 26.2028C34.442 23.2626 36.7253 18.914 36.0379 14.4252C33.8464 8.96308 30.1304 6.76055 27.096 1.96478C26.9428 1.72229 26.7892 1.47917 26.6395 1.22284C26.5633 1.09199 26.4921 0.958239 26.4261 0.821914C26.3 0.578481 26.2028 0.32122 26.1364 0.0552882C26.1373 0.0291949 26.1182 0.00669538 26.0923 0.00333607C26.0804 -0.000101366 26.0735 -0.00142946 26.0615 0.00200797C26.0588 0.00294545 26.0491 0.00747661 26.0462 0.00857034C26.0419 0.0102891 26.0366 0.0142734 26.032 0.0166171C25.294 0.396453 20.8381 7.41132 26.8626 13.435Z" fill="url(#paint8_radial_944_4638)"/>
<path d="M28.9527 16.0198C28.8681 15.9418 28.7684 15.8619 28.6618 15.7817C28.6223 15.7521 28.5837 15.7225 28.5414 15.6931C27.5066 14.9661 25.6536 14.2482 23.8684 14.5586C30.8393 18.0436 28.9679 30.0443 19.3084 29.5913C18.4482 29.5562 17.5981 29.3923 16.7865 29.1049C16.5946 29.0327 16.4048 28.9552 16.2173 28.8722C16.1079 28.8223 15.9987 28.772 15.8906 28.7162C15.8945 28.7188 15.8998 28.7218 15.9037 28.7242C17.2513 29.6436 23.9068 31.89 30.8619 26.227L30.8726 26.2018C31.0443 25.7941 33.3463 20.0682 28.9527 16.0198Z" fill="url(#paint9_radial_944_4638)"/>
<path d="M11.3261 22.3747C11.3261 22.3747 12.2207 19.0412 17.7319 19.0412C18.3276 19.0412 20.031 17.3787 20.0625 16.8966C20.094 16.4145 16.5383 18.3766 12.7857 16.6111C8.73424 14.7048 5.66016 16.8966 5.66016 16.8966C5.66016 16.8966 6.82763 19.7844 10.2516 19.7844C9.89242 22.9525 11.5675 26.6471 15.6225 28.5845C15.7131 28.6278 15.7982 28.6752 15.8913 28.7167C13.5246 27.4935 11.5703 25.1819 11.3261 22.3747Z" fill="url(#paint10_radial_944_4638)"/>
<path d="M37.9594 13.416C37.117 11.3899 35.411 9.20253 34.0714 8.51122C35.1617 10.6487 35.7928 12.7929 36.0338 14.3931C36.0338 14.3962 36.0351 14.404 36.0377 14.4253C33.8461 8.96308 30.1302 6.76055 27.0958 1.96478C26.9426 1.72229 26.7889 1.47917 26.6393 1.22284C26.5631 1.09199 26.4918 0.958239 26.4259 0.821914C26.2998 0.578481 26.2026 0.32122 26.1361 0.0552882C26.1371 0.0291949 26.118 0.00669538 26.0921 0.00333607C26.0802 -0.000101366 26.0733 -0.00142946 26.0613 0.00200797C26.0586 0.00294545 26.0489 0.00747661 26.046 0.00857034C26.0417 0.0102891 26.0262 0.019117 26.0244 0.0202107C21.0179 3.01703 19.5198 8.13146 19.368 10.7703C19.5938 10.7547 19.8189 10.7357 20.0488 10.7357C23.682 10.7357 26.8463 12.7332 28.5405 15.694C27.5057 14.9671 25.6527 14.2492 23.8675 14.5596C30.8385 18.0445 28.967 30.0453 19.3075 29.5923C18.4473 29.5572 17.5972 29.3932 16.7857 29.106C16.5938 29.0338 16.404 28.9562 16.2164 28.8732C16.107 28.8234 15.9978 28.773 15.8898 28.7172C15.8937 28.7199 15.899 28.7229 15.9029 28.7253C15.8082 28.6797 15.7141 28.6329 15.6206 28.5847C15.7113 28.628 15.7964 28.6754 15.8895 28.7169C13.5226 27.4937 11.5683 25.1821 11.3242 22.3749C11.3242 22.3749 12.2188 19.0414 17.73 19.0414C18.3257 19.0414 20.0291 17.3789 20.0606 16.8968C20.0534 16.7394 16.6802 15.3976 15.3653 14.102C14.6626 13.4098 14.3289 13.076 14.0335 12.8256C13.8732 12.6902 13.7056 12.5636 13.5315 12.4465C13.0898 10.9011 13.0709 9.26534 13.4771 7.71014C11.4862 8.61668 9.93763 10.0496 8.81187 11.3149H8.80289C8.03462 10.3418 8.08876 7.13171 8.13259 6.46141C8.12337 6.41985 7.55947 6.75414 7.48557 6.80453C6.80761 7.28843 6.1738 7.83139 5.59154 8.42708C4.92921 9.0991 4.32399 9.8251 3.78228 10.5977C3.78228 10.5986 3.78174 10.5998 3.78142 10.6007C3.78142 10.5997 3.78197 10.5986 3.78228 10.5977C2.53606 12.3637 1.65217 14.3592 1.18179 16.469C1.17249 16.511 1.16468 16.5545 1.15569 16.5968C1.11921 16.7675 0.955228 17.6334 0.932338 17.8191C0.930541 17.8334 0.934057 17.8049 0.932338 17.8191C0.782732 18.7138 0.687343 19.6168 0.646562 20.5231C0.646562 20.5561 0.644531 20.5889 0.644531 20.6221C0.644531 31.3241 9.32178 40 20.0252 40C29.6109 40 37.5701 33.0414 39.1282 23.9011C39.161 23.653 39.1874 23.4037 39.2163 23.1534C39.6016 19.8301 39.1736 16.3371 37.9594 13.416ZM36.0367 14.4113C36.0377 14.4181 36.0389 14.4253 36.0399 14.4321L36.0393 14.43L36.0367 14.4113Z" fill="url(#paint11_linear_944_4638)"/>
</g>
<defs>
<linearGradient id="paint0_linear_944_4638" x1="34.4076" y1="6.18725" x2="3.28844" y2="36.2167" gradientUnits="userSpaceOnUse">
<stop offset="0.05" stop-color="#FFF339"/>
<stop offset="0.37" stop-color="#FF9800"/>
<stop offset="0.53" stop-color="#FF3346"/>
<stop offset="0.7" stop-color="#FF0D8A"/>
</linearGradient>
<radialGradient id="paint1_radial_944_4638" cx="0" cy="0" r="1" gradientUnits="userSpaceOnUse" gradientTransform="translate(34.5996 8.51378) scale(39.6384 40.3059)">
<stop offset="0.13" stop-color="#FFBD44"/>
<stop offset="0.28" stop-color="#FF9800"/>
<stop offset="0.47" stop-color="#FF3450"/>
<stop offset="0.78" stop-color="#FF027B"/>
<stop offset="0.86" stop-color="#FF0083"/>
</radialGradient>
<radialGradient id="paint2_radial_944_4638" cx="0" cy="0" r="1" gradientUnits="userSpaceOnUse" gradientTransform="translate(19.6104 21.1216) scale(40.6293 40.3059)">
<stop offset="0.3" stop-color="#AF0611"/>
<stop offset="0.35" stop-color="#CE1223" stop-opacity="0.74"/>
<stop offset="0.43" stop-color="#FD243B" stop-opacity="0.34"/>
<stop offset="0.5" stop-color="#FF304B" stop-opacity="0.09"/>
<stop offset="0.53" stop-color="#FF3450" stop-opacity="0"/>
</radialGradient>
<radialGradient id="paint3_radial_944_4638" cx="0" cy="0" r="1" gradientUnits="userSpaceOnUse" gradientTransform="translate(23.8274 -1.86682) scale(13.0097 22.0872)">
<stop offset="0.13" stop-color="#FFF339"/>
<stop offset="0.53" stop-color="#FF9800"/>
</radialGradient>
<radialGradient id="paint4_radial_944_4638" cx="0" cy="0" r="1" gradientUnits="userSpaceOnUse" gradientTransform="translate(15.2415 31.5177) scale(17.2167 18.8697)">
<stop offset="0.35" stop-color="#008EE9"/>
<stop offset="0.67" stop-color="#A059FF"/>
<stop offset="1" stop-color="#DF36EA"/>
</radialGradient>
<radialGradient id="paint5_radial_944_4638" cx="0" cy="0" r="1" gradientUnits="userSpaceOnUse" gradientTransform="translate(19.3812 16.9601) scale(9.14123 11.1321)">
<stop offset="0.21" stop-color="#A059FF" stop-opacity="0"/>
<stop offset="0.97" stop-color="#80008E" stop-opacity="0.6"/>
</radialGradient>
<radialGradient id="paint6_radial_944_4638" cx="0" cy="0" r="1" gradientUnits="userSpaceOnUse" gradientTransform="translate(18.7239 2.97399) scale(13.687 13.7357)">
<stop offset="0.1" stop-color="#FFE200"/>
<stop offset="0.79" stop-color="#FF7232"/>
</radialGradient>
<radialGradient id="paint7_radial_944_4638" cx="0" cy="0" r="1" gradientUnits="userSpaceOnUse" gradientTransform="translate(31.2207 -6.03504) scale(65.345 54.8535)">
<stop offset="0.11" stop-color="#FFF339"/>
<stop offset="0.46" stop-color="#FF9800"/>
<stop offset="0.72" stop-color="#FF3346"/>
<stop offset="0.9" stop-color="#FF0D8A"/>
</radialGradient>
<radialGradient id="paint8_radial_944_4638" cx="0" cy="0" r="1" gradientUnits="userSpaceOnUse" gradientTransform="translate(25.6949 -4.96157) rotate(83.9544) scale(42.9589 43.2805)">
<stop stop-color="#FFF339"/>
<stop offset="0.3" stop-color="#FF9800"/>
<stop offset="0.57" stop-color="#FF3346"/>
<stop offset="0.74" stop-color="#FF0D8A"/>
</radialGradient>
<radialGradient id="paint9_radial_944_4638" cx="0" cy="0" r="1" gradientUnits="userSpaceOnUse" gradientTransform="translate(18.8643 7.91336) scale(37.5168 36.8578)">
<stop offset="0.14" stop-color="#FFF339"/>
<stop offset="0.48" stop-color="#FF9800"/>
<stop offset="0.66" stop-color="#FF3346"/>
<stop offset="0.9" stop-color="#FF0D8A"/>
</radialGradient>
<radialGradient id="paint10_radial_944_4638" cx="0" cy="0" r="1" gradientUnits="userSpaceOnUse" gradientTransform="translate(28.6038 10.0672) scale(45.094 40.342)">
<stop offset="0.09" stop-color="#FFF339"/>
<stop offset="0.63" stop-color="#FF9800"/>
</radialGradient>
<linearGradient id="paint11_linear_944_4638" x1="32.4995" y1="6.41663" x2="7.61097" y2="33.6104" gradientUnits="userSpaceOnUse">
<stop offset="0.17" stop-color="#FFF339" stop-opacity="0.8"/>
<stop offset="0.6" stop-color="#FFF339" stop-opacity="0"/>
</linearGradient>
<clipPath id="clip0_944_4638">
<rect width="40" height="40" fill="white"/>
</clipPath>
</defs>
</svg>
