<svg width="40" height="40" viewBox="0 0 40 40" fill="none" xmlns="http://www.w3.org/2000/svg">
<g clip-path="url(#clip0_944_4812)">
<path d="M24.6025 39.4858C29.8075 38.2819 34.2341 35.0459 37.0027 30.6588C37.3405 30.1234 36.7448 29.4832 36.187 29.7825C34.0586 30.9243 31.5325 31.5859 28.8228 31.5859C21.3125 31.5859 15.2094 26.5056 15.0836 20.1985C15.0411 18.0673 16.313 16.183 18.1588 15.3954L18.1576 15.3945C17.0664 15.7765 15.8394 15.9344 14.8904 16.5923C11.2911 19.0873 9.10616 23.7038 9.45421 27.8541C9.79202 31.8815 12.2548 36.6009 16.5146 38.7093C18.7423 39.8119 21.6161 39.6324 24.6025 39.4858Z" fill="url(#paint0_linear_944_4812)"/>
<path d="M24.4205 26.048C25.7698 26.5404 27.258 26.8133 28.8217 26.8133C34.9495 26.8133 39.917 22.6248 39.9172 17.4582C39.9172 7.21529 30.3637 0.0924765 20.2626 0.000835831C9.24961 -0.0992423 0.178438 8.8006 0.078125 19.8136C0.078125 19.8136 2.83344 11.3042 12.6758 11.3042C19.3356 11.3042 23.992 15.2574 24.7568 18.2458C24.9615 18.7916 25.074 19.3826 25.074 19.9999C25.074 21.2944 24.5816 22.474 23.7741 23.3615C22.9739 24.2409 23.3036 25.6404 24.4205 26.048Z" fill="url(#paint1_linear_944_4812)"/>
<path d="M24.7576 18.2452C23.9929 15.2568 21.4458 9.49805 13.1723 9.49805C0.45038 9.49805 0.078973 19.813 0.078973 19.813C-0.0223552 30.9441 8.97038 39.9993 20.0781 39.9993C21.6341 39.9993 23.1485 39.8215 24.6023 39.4853C8.46835 40.2776 6.81132 19.3656 18.1574 15.3941L18.1587 15.3949C18.7325 15.1501 19.3611 15.01 20.0237 15.0029C22.1894 14.9798 24.0412 16.335 24.7576 18.2452Z" fill="url(#paint2_linear_944_4812)"/>
</g>
<defs>
<linearGradient id="paint0_linear_944_4812" x1="9.41805" y1="27.495" x2="37.1012" y2="27.495" gradientUnits="userSpaceOnUse">
<stop stop-color="#00376F"/>
<stop offset="1" stop-color="#004E99"/>
</linearGradient>
<linearGradient id="paint1_linear_944_4812" x1="8.25693" y1="7.05319" x2="31.4172" y2="20.7536" gradientUnits="userSpaceOnUse">
<stop stop-color="#00C2DD"/>
<stop offset="1" stop-color="#00D34F"/>
</linearGradient>
<linearGradient id="paint2_linear_944_4812" x1="10.4269" y1="11.074" x2="16.6655" y2="39.6981" gradientUnits="userSpaceOnUse">
<stop offset="0.0016" stop-color="#006393"/>
<stop offset="0.4" stop-color="#0086DE"/>
<stop offset="1" stop-color="#006393"/>
</linearGradient>
<clipPath id="clip0_944_4812">
<rect width="40" height="40" fill="white"/>
</clipPath>
</defs>
</svg>
