<svg width="40" height="40" viewBox="0 0 40 40" fill="none" xmlns="http://www.w3.org/2000/svg">
<g clip-path="url(#clip0_944_4737)">
<g opacity="0.08">
<path d="M20.0008 39.9996C30.5033 39.9996 39.0172 31.4857 39.0172 20.9832C39.0172 10.4807 30.5033 1.9668 20.0008 1.9668C9.49831 1.9668 0.984375 10.4807 0.984375 20.9832C0.984375 31.4857 9.49831 39.9996 20.0008 39.9996Z" fill="black"/>
</g>
<path d="M20 39.3438C30.8645 39.3438 39.6719 30.5364 39.6719 19.6719C39.6719 8.8074 30.8645 0 20 0C9.13552 0 0.328125 8.8074 0.328125 19.6719C0.328125 30.5364 9.13552 39.3438 20 39.3438Z" fill="url(#paint0_linear_944_4737)"/>
<g opacity="0.08">
<path d="M20.0002 0C9.13531 0 0.328125 8.80719 0.328125 19.6721C0.328125 30.537 9.13531 39.3443 20.0002 39.3443C30.8652 39.3443 39.6723 30.5371 39.6723 19.6722C39.6723 8.80727 30.8652 0 20.0002 0ZM20.0002 38.0328C9.87633 38.0328 1.63961 29.7961 1.63961 19.6722C1.63961 9.54828 9.87633 1.31148 20.0002 1.31148C30.1241 1.31148 38.3609 9.5482 38.3609 19.6721C38.3609 29.796 30.1241 38.0328 20.0002 38.0328Z" fill="url(#paint1_linear_944_4737)"/>
</g>
<g opacity="0.16">
<path d="M20.0002 0C9.13531 0 0.328125 8.80719 0.328125 19.6721C0.328125 30.537 9.13531 39.3443 20.0002 39.3443C30.8652 39.3443 39.6723 30.5371 39.6723 19.6722C39.6723 8.80727 30.8652 0 20.0002 0ZM20.0002 38.6885C9.49797 38.6885 0.983828 30.1745 0.983828 19.6721C0.983828 9.16977 9.49797 0.655703 20.0002 0.655703C30.5025 0.655703 39.0166 9.16977 39.0166 19.6721C39.0166 30.1745 30.5025 38.6885 20.0002 38.6885Z" fill="black"/>
</g>
<path d="M20.0016 37.3762C29.7796 37.3762 37.7062 29.4495 37.7062 19.6715C37.7062 9.89346 29.7796 1.9668 20.0016 1.9668C10.2235 1.9668 2.29688 9.89346 2.29688 19.6715C2.29688 29.4495 10.2235 37.3762 20.0016 37.3762Z" fill="url(#paint2_linear_944_4737)"/>
<g opacity="0.16">
<path d="M20.0018 1.9668C10.2234 1.9668 2.29688 9.89336 2.29688 19.6717C2.29688 29.4501 10.2234 37.3766 20.0018 37.3766C29.7802 37.3766 37.7067 29.4501 37.7067 19.6717C37.7067 9.89336 29.7802 1.9668 20.0018 1.9668ZM20.0018 36.7209C10.5861 36.7209 2.95266 29.0875 2.95266 19.6718C2.95266 10.2561 10.5861 2.62258 20.0018 2.62258C29.4175 2.62258 37.0509 10.256 37.0509 19.6717C37.0509 29.0874 29.4175 36.7209 20.0018 36.7209Z" fill="url(#paint3_linear_944_4737)"/>
</g>
<g opacity="0.36">
<path d="M20 6.50383C19.849 6.50383 19.7266 6.38141 19.7266 6.23039V3.60742C19.7266 3.45641 19.849 3.33398 20 3.33398C20.151 3.33398 20.2734 3.45641 20.2734 3.60742V6.23039C20.2734 6.38141 20.151 6.50383 20 6.50383Z" fill="white"/>
<path d="M18.0732 5.31918C17.9381 5.31918 17.8206 5.21902 17.8024 5.08144L17.6313 3.78175C17.6116 3.63199 17.717 3.49465 17.8667 3.47496C18.016 3.45558 18.1538 3.56066 18.1735 3.71035L18.3446 5.01004C18.3643 5.1598 18.2589 5.29714 18.1092 5.31683C18.0972 5.31839 18.0852 5.31918 18.0732 5.31918Z" fill="white"/>
<path d="M14.354 6.31743C14.2467 6.31743 14.145 6.25391 14.1013 6.1486L13.599 4.9368C13.5412 4.79727 13.6074 4.63735 13.7469 4.57946C13.8866 4.52173 14.0465 4.5879 14.1043 4.72735L14.6065 5.93915C14.6643 6.07868 14.5982 6.2386 14.4586 6.29649C14.4243 6.31071 14.3889 6.31743 14.354 6.31743Z" fill="white"/>
<path d="M11.0176 8.24174C10.9355 8.24174 10.8544 8.20494 10.8005 8.13479L10.0019 7.09416C9.9099 6.9744 9.93248 6.80276 10.0523 6.7108C10.1721 6.61893 10.3438 6.64143 10.4357 6.76127L11.2344 7.8019C11.3263 7.92166 11.3037 8.0933 11.1839 8.18526C11.1343 8.22338 11.0757 8.24174 11.0176 8.24174Z" fill="white"/>
<path d="M8.29443 10.9647C8.23631 10.9647 8.17779 10.9462 8.12818 10.9081L7.08748 10.1095C6.96763 10.0175 6.94506 9.84586 7.03701 9.72609C7.12896 9.60633 7.30068 9.58375 7.42037 9.67562L8.46107 10.4743C8.58092 10.5662 8.60349 10.7379 8.51154 10.8577C8.45771 10.9279 8.37654 10.9647 8.29443 10.9647Z" fill="white"/>
<path d="M6.36802 14.3013C6.33318 14.3013 6.29771 14.2946 6.26341 14.2804L5.05161 13.7781C4.91208 13.7203 4.84591 13.5603 4.90372 13.4208C4.96154 13.2813 5.12146 13.215 5.26107 13.2729L6.47286 13.7752C6.61239 13.833 6.67857 13.993 6.62075 14.1325C6.57708 14.2377 6.47529 14.3013 6.36802 14.3013Z" fill="white"/>
<path d="M5.37035 18.0207C5.35848 18.0207 5.34645 18.0199 5.33434 18.0183L4.03465 17.8472C3.88488 17.8275 3.77949 17.6901 3.79926 17.5404C3.81895 17.3907 3.95629 17.2859 4.10605 17.305L5.40574 17.4761C5.55551 17.4958 5.6609 17.6333 5.64113 17.7829C5.62301 17.9205 5.50543 18.0207 5.37035 18.0207Z" fill="white"/>
<path d="M16.5184 6.96357C16.3977 6.96357 16.2872 6.88303 16.2545 6.76084L15.5758 4.22709C15.5367 4.08123 15.6233 3.93123 15.7691 3.89217C15.9149 3.85318 16.0649 3.93959 16.1041 4.08553L16.7827 6.61928C16.8218 6.76514 16.7352 6.91514 16.5894 6.9542C16.5656 6.96053 16.5418 6.96357 16.5184 6.96357Z" fill="white"/>
<path d="M13.2767 8.30469C13.1821 8.30469 13.0903 8.25571 13.0396 8.16797L11.7281 5.89649C11.6526 5.76571 11.6974 5.59852 11.8281 5.52297C11.9589 5.44758 12.1261 5.49219 12.2017 5.62305L13.5131 7.89454C13.5886 8.02532 13.5439 8.19251 13.4131 8.26805C13.37 8.29282 13.323 8.30469 13.2767 8.30469Z" fill="white"/>
<path d="M10.4951 10.4423C10.4251 10.4423 10.3551 10.4156 10.3017 10.3622L8.44729 8.50783C8.34049 8.40104 8.34049 8.22791 8.44729 8.12111C8.55408 8.01432 8.72721 8.01432 8.834 8.12111L10.6885 9.97549C10.7953 10.0823 10.7953 10.2554 10.6885 10.3622C10.635 10.4156 10.565 10.4423 10.4951 10.4423Z" fill="white"/>
<path d="M8.35724 13.2255C8.31084 13.2255 8.26389 13.2137 8.22076 13.1889L5.94928 11.8774C5.81849 11.8019 5.77365 11.6347 5.8492 11.5039C5.92475 11.3731 6.09201 11.3284 6.22271 11.4038L8.4942 12.7153C8.62498 12.7908 8.66982 12.958 8.59428 13.0888C8.54373 13.1766 8.45178 13.2255 8.35724 13.2255Z" fill="white"/>
<path d="M7.01445 16.4679C6.99109 16.4679 6.96727 16.4648 6.94352 16.4585L4.40977 15.7798C4.26391 15.7408 4.17734 15.5908 4.21641 15.4449C4.25547 15.2991 4.40516 15.2125 4.55133 15.2515L7.08508 15.9302C7.23094 15.9693 7.3175 16.1192 7.27844 16.2651C7.2457 16.3872 7.13524 16.4679 7.01445 16.4679Z" fill="white"/>
<path d="M6.55656 19.9473H3.93359C3.78258 19.9473 3.66016 19.8248 3.66016 19.6738C3.66016 19.5228 3.78258 19.4004 3.93359 19.4004H6.55656C6.70758 19.4004 6.83 19.5228 6.83 19.6738C6.83 19.8248 6.70758 19.9473 6.55656 19.9473Z" fill="white"/>
<path d="M4.07002 22.0441C3.93487 22.0441 3.81737 21.9441 3.79924 21.8064C3.77955 21.6566 3.88494 21.5193 4.03463 21.4996L5.33432 21.3285C5.4844 21.309 5.62143 21.4141 5.64111 21.5639C5.6608 21.7137 5.55541 21.851 5.40572 21.8707L4.10604 22.0418C4.09393 22.0434 4.0819 22.0441 4.07002 22.0441Z" fill="white"/>
<path d="M5.15646 26.0962C5.04911 26.0962 4.94739 26.0326 4.90372 25.9273C4.84591 25.7879 4.91208 25.6279 5.05161 25.5701L6.26341 25.0678C6.4031 25.0099 6.56294 25.0762 6.62075 25.2158C6.67857 25.3552 6.61239 25.5152 6.47286 25.573L5.26107 26.0753C5.22685 26.0894 5.1913 26.0962 5.15646 26.0962Z" fill="white"/>
<path d="M7.25412 29.7264C7.17201 29.7264 7.09084 29.6896 7.03701 29.6195C6.94506 29.4997 6.96763 29.3281 7.08748 29.2361L8.12818 28.4375C8.24802 28.3454 8.41967 28.368 8.51154 28.4879C8.60349 28.6077 8.58092 28.7793 8.46107 28.8713L7.42037 29.67C7.37076 29.7081 7.31224 29.7264 7.25412 29.7264Z" fill="white"/>
<path d="M10.2186 32.693C10.1604 32.693 10.1019 32.6746 10.0523 32.6364C9.93248 32.5445 9.9099 32.3728 10.0019 32.2531L10.8005 31.2125C10.8925 31.0927 11.0642 31.07 11.1839 31.162C11.3037 31.2539 11.3263 31.4256 11.2344 31.5453L10.4357 32.586C10.3818 32.6563 10.3006 32.693 10.2186 32.693Z" fill="white"/>
<path d="M13.8515 34.7902C13.8167 34.7902 13.7812 34.7835 13.7469 34.7693C13.6074 34.7115 13.5412 34.5515 13.599 34.412L14.1013 33.2001C14.1591 33.0607 14.319 32.9943 14.4586 33.0522C14.5982 33.11 14.6643 33.27 14.6065 33.4094L14.1043 34.6213C14.0606 34.7267 13.9588 34.7902 13.8515 34.7902Z" fill="white"/>
<path d="M17.9027 35.8759C17.8908 35.8759 17.8788 35.8751 17.8667 35.8735C17.7169 35.8538 17.6115 35.7164 17.6313 35.5667L17.8025 34.267C17.8222 34.1173 17.9596 34.012 18.1093 34.0316C18.259 34.0513 18.3644 34.1888 18.3446 34.3384L18.1735 35.6381C18.1554 35.7757 18.0379 35.8759 17.9027 35.8759Z" fill="white"/>
<path d="M4.48039 24.1046C4.35961 24.1046 4.24914 24.0241 4.21641 23.9018C4.17734 23.7559 4.26391 23.606 4.40977 23.567L6.94352 22.8882C7.08969 22.8494 7.23938 22.9357 7.27844 23.0816C7.3175 23.2275 7.23094 23.3774 7.08508 23.4165L4.55133 24.0952C4.52766 24.1016 4.50383 24.1046 4.48039 24.1046Z" fill="white"/>
<path d="M6.08627 27.9796C5.99174 27.9796 5.89987 27.9306 5.84916 27.8428C5.77369 27.712 5.81846 27.5449 5.94924 27.4693L8.22073 26.1578C8.35159 26.0822 8.51877 26.1271 8.59424 26.2579C8.66971 26.3887 8.62494 26.5559 8.49416 26.6314L6.22268 27.9429C6.17963 27.9678 6.13268 27.9796 6.08627 27.9796Z" fill="white"/>
<path d="M11.9647 33.8614C11.9183 33.8614 11.8713 33.8496 11.8282 33.8247C11.6974 33.7492 11.6526 33.582 11.7281 33.4512L13.0396 31.1797C13.1151 31.0489 13.2824 31.0042 13.4131 31.0796C13.5439 31.1552 13.5887 31.3224 13.5132 31.4532L12.2017 33.7246C12.1511 33.8125 12.0591 33.8614 11.9647 33.8614Z" fill="white"/>
<path d="M15.8401 35.4656C15.8166 35.4656 15.7929 35.4625 15.7691 35.4562C15.6233 35.4172 15.5367 35.2672 15.5758 35.1214L16.2545 32.5875C16.2935 32.4417 16.4432 32.3551 16.5894 32.3941C16.7352 32.4332 16.8218 32.5831 16.7827 32.729L16.1041 35.2628C16.0713 35.385 15.9609 35.4656 15.8401 35.4656Z" fill="white"/>
<path d="M20 36.0135C19.849 36.0135 19.7266 35.8911 19.7266 35.7401V33.1172C19.7266 32.9662 19.849 32.8438 20 32.8438C20.151 32.8438 20.2734 32.9662 20.2734 33.1172V35.7401C20.2734 35.8911 20.151 36.0135 20 36.0135Z" fill="white"/>
<path d="M22.0965 35.8759C21.9614 35.8759 21.8439 35.7758 21.8258 35.6381L21.6547 34.3385C21.635 34.1887 21.7404 34.0514 21.8901 34.0317C22.0402 34.012 22.1772 34.1173 22.1969 34.2671L22.368 35.5667C22.3878 35.7165 22.2823 35.8539 22.1326 35.8735C22.1205 35.8751 22.1084 35.8759 22.0965 35.8759Z" fill="white"/>
<path d="M26.147 34.7901C26.0397 34.7901 25.9379 34.7266 25.8943 34.6213L25.392 33.4094C25.3342 33.2699 25.4004 33.1099 25.54 33.0521C25.679 32.9944 25.8394 33.0605 25.8972 33.2001L26.3996 34.412C26.4574 34.5514 26.3912 34.7114 26.2516 34.7692C26.2175 34.7834 26.182 34.7901 26.147 34.7901Z" fill="white"/>
<path d="M29.7794 32.693C29.6973 32.693 29.6161 32.6562 29.5623 32.586L28.7636 31.5454C28.6716 31.4256 28.6942 31.254 28.814 31.162C28.9337 31.0701 29.1054 31.0926 29.1974 31.2125L29.9961 32.2531C30.0881 32.3729 30.0655 32.5445 29.9457 32.6365C29.8961 32.6745 29.8376 32.693 29.7794 32.693Z" fill="white"/>
<path d="M32.7435 29.7265C32.6855 29.7265 32.627 29.7082 32.5773 29.67L31.5366 28.8713C31.4169 28.7793 31.3943 28.6077 31.4862 28.4879C31.578 28.3681 31.7496 28.3454 31.8695 28.4375L32.9102 29.2361C33.0299 29.3281 33.0525 29.4997 32.9606 29.6195C32.9068 29.6898 32.8255 29.7265 32.7435 29.7265Z" fill="white"/>
<path d="M34.8407 26.0962C34.8058 26.0962 34.7704 26.0894 34.7361 26.0752L33.5243 25.573C33.3848 25.5151 33.3186 25.3551 33.3764 25.2157C33.4342 25.0761 33.5942 25.0101 33.7336 25.0677L34.9454 25.57C35.085 25.6278 35.1512 25.7878 35.0934 25.9272C35.0498 26.0326 34.948 26.0962 34.8407 26.0962Z" fill="white"/>
<path d="M35.929 22.0442C35.9171 22.0442 35.905 22.0434 35.8929 22.0418L34.5932 21.8708C34.4436 21.8511 34.3381 21.7137 34.3578 21.564C34.3775 21.4143 34.515 21.3087 34.6646 21.3286L35.9643 21.4997C36.114 21.5193 36.2195 21.6567 36.1997 21.8065C36.1816 21.944 36.0641 22.0442 35.929 22.0442Z" fill="white"/>
<path d="M24.1591 35.4656C24.0384 35.4656 23.9279 35.3851 23.8952 35.2628L23.2164 32.729C23.1773 32.5831 23.2639 32.4332 23.4098 32.3941C23.5553 32.3551 23.7056 32.4416 23.7447 32.5876L24.4234 35.1214C24.4625 35.2672 24.3759 35.4172 24.23 35.4562C24.2063 35.4625 24.1826 35.4656 24.1591 35.4656Z" fill="white"/>
<path d="M28.0344 33.8614C27.9399 33.8614 27.8479 33.8124 27.7973 33.7246L26.4859 31.4532C26.4104 31.3224 26.4552 31.1552 26.586 31.0796C26.7166 31.0042 26.884 31.0489 26.9595 31.1797L28.2709 33.4512C28.3465 33.582 28.3016 33.7492 28.1708 33.8247C28.1279 33.8496 28.0808 33.8614 28.0344 33.8614Z" fill="white"/>
<path d="M31.3584 31.3074C31.2884 31.3074 31.2185 31.2807 31.165 31.2274L29.3106 29.373C29.2038 29.2663 29.2038 29.0931 29.3106 28.9863C29.4172 28.8796 29.5904 28.8796 29.6972 28.9863L31.5517 30.8407C31.6585 30.9474 31.6585 31.1206 31.5517 31.2274C31.4984 31.2807 31.4284 31.3074 31.3584 31.3074Z" fill="white"/>
<path d="M33.9119 27.9796C33.8654 27.9796 33.8184 27.9678 33.7754 27.9429L31.504 26.6314C31.3732 26.5558 31.3283 26.3886 31.4039 26.2579C31.4794 26.127 31.6468 26.0823 31.7774 26.1578L34.0488 27.4693C34.1796 27.5448 34.2244 27.712 34.1489 27.8428C34.0983 27.9305 34.0063 27.9796 33.9119 27.9796Z" fill="white"/>
<path d="M35.5184 24.1047C35.495 24.1047 35.4712 24.1016 35.4476 24.0953L32.9137 23.4165C32.7679 23.3775 32.6812 23.2276 32.7203 23.0817C32.7594 22.9358 32.9096 22.8493 33.0552 22.8883L35.589 23.567C35.7348 23.6061 35.8215 23.756 35.7824 23.9018C35.7497 24.0241 35.6392 24.1047 35.5184 24.1047Z" fill="white"/>
<path d="M36.0644 19.9473H33.4414C33.2904 19.9473 33.168 19.8248 33.168 19.6738C33.168 19.5228 33.2904 19.4004 33.4414 19.4004H36.0644C36.2154 19.4004 36.3378 19.5228 36.3378 19.6738C36.3378 19.8248 36.2153 19.9473 36.0644 19.9473Z" fill="white"/>
<path d="M36.0644 19.9473H33.4414C33.2904 19.9473 33.168 19.8248 33.168 19.6738C33.168 19.5228 33.2904 19.4004 33.4414 19.4004H36.0644C36.2154 19.4004 36.3378 19.5228 36.3378 19.6738C36.3378 19.8248 36.2153 19.9473 36.0644 19.9473Z" fill="white"/>
<path d="M34.6286 18.0207C34.4935 18.0207 34.376 17.9206 34.3578 17.783C34.3381 17.6332 34.4436 17.4959 34.5932 17.4762L35.8929 17.305C36.0426 17.2858 36.18 17.3907 36.1997 17.5404C36.2195 17.6902 36.114 17.8275 35.9643 17.8472L34.6646 18.0184C34.6525 18.0199 34.6405 18.0207 34.6286 18.0207Z" fill="white"/>
<path d="M33.629 14.3012C33.5218 14.3012 33.42 14.2377 33.3764 14.1324C33.3186 13.9929 33.3847 13.833 33.5243 13.7751L34.7361 13.2728C34.8753 13.2151 35.0356 13.2812 35.0934 13.4207C35.1512 13.5602 35.085 13.7201 34.9454 13.778L33.7336 14.2803C33.6994 14.2945 33.664 14.3012 33.629 14.3012Z" fill="white"/>
<path d="M31.7033 10.9647C31.6212 10.9647 31.5401 10.9279 31.4862 10.8577C31.3943 10.738 31.4169 10.5663 31.5367 10.4744L32.5773 9.67571C32.6972 9.58368 32.8687 9.60634 32.9607 9.72618C33.0526 9.84595 33.0301 10.0176 32.9102 10.1095L31.8696 10.9082C31.8199 10.9463 31.7614 10.9647 31.7033 10.9647Z" fill="white"/>
<path d="M28.9802 8.24189C28.9222 8.24189 28.8637 8.22345 28.814 8.18532C28.6942 8.09337 28.6716 7.92173 28.7635 7.80196L29.5623 6.76134C29.6542 6.6415 29.8256 6.61884 29.9456 6.71087C30.0654 6.80282 30.088 6.97446 29.9961 7.09423L29.1973 8.13485C29.1435 8.20509 29.0623 8.24189 28.9802 8.24189Z" fill="white"/>
<path d="M25.6446 6.31744C25.6096 6.31744 25.5742 6.31072 25.54 6.2965C25.4004 6.23869 25.3342 6.07869 25.392 5.93916L25.8943 4.72736C25.9521 4.58783 26.1125 4.52174 26.2516 4.57947C26.3911 4.63728 26.4574 4.79728 26.3996 4.93682L25.8972 6.14861C25.8536 6.25385 25.7518 6.31744 25.6446 6.31744Z" fill="white"/>
<path d="M21.9262 5.31916C21.9143 5.31916 21.9022 5.31838 21.8901 5.31682C21.7404 5.29713 21.635 5.15971 21.6547 5.01002L21.8258 3.71033C21.8455 3.56057 21.9828 3.45565 22.1326 3.47494C22.2823 3.49463 22.3878 3.63205 22.368 3.78174L22.1969 5.08143C22.1789 5.21901 22.0614 5.31916 21.9262 5.31916Z" fill="white"/>
<path d="M32.9843 16.4679C32.8635 16.4679 32.753 16.3873 32.7203 16.2652C32.6813 16.1193 32.7678 15.9693 32.9138 15.9302L35.4476 15.2516C35.5933 15.2125 35.7433 15.2991 35.7824 15.4449C35.8215 15.5908 35.7349 15.7408 35.589 15.7798L33.0552 16.4585C33.0316 16.4648 33.0077 16.4679 32.9843 16.4679Z" fill="white"/>
<path d="M31.6409 13.2256C31.5465 13.2256 31.4545 13.1766 31.4039 13.0888C31.3283 12.9581 31.3732 12.7909 31.504 12.7153L33.7754 11.4038C33.906 11.3284 34.0733 11.3731 34.1489 11.5039C34.2244 11.6347 34.1796 11.8019 34.0488 11.8774L31.7774 13.1889C31.7344 13.2138 31.6872 13.2256 31.6409 13.2256Z" fill="white"/>
<path d="M26.7225 8.30468C26.6761 8.30468 26.629 8.29288 26.586 8.26804C26.4552 8.19249 26.4104 8.0253 26.4859 7.89452L27.7973 5.62303C27.8729 5.49225 28.0402 5.44757 28.1708 5.52296C28.3016 5.5985 28.3465 5.76569 28.2709 5.89647L26.9595 8.16796C26.9089 8.25561 26.8169 8.30468 26.7225 8.30468Z" fill="white"/>
<path d="M23.4807 6.96356C23.4573 6.96356 23.4335 6.96052 23.4098 6.95419C23.264 6.91513 23.1773 6.7652 23.2164 6.61927L23.8952 4.08552C23.9342 3.93973 24.0844 3.85317 24.23 3.89216C24.3759 3.93122 24.4625 4.08114 24.4234 4.22708L23.7447 6.76083C23.7119 6.88302 23.6015 6.96356 23.4807 6.96356Z" fill="white"/>
<path d="M20 6.50383C19.849 6.50383 19.7266 6.38141 19.7266 6.23039V3.60742C19.7266 3.45641 19.849 3.33398 20 3.33398C20.151 3.33398 20.2734 3.45641 20.2734 3.60742V6.23039C20.2734 6.38141 20.151 6.50383 20 6.50383Z" fill="white"/>
</g>
<path d="M31.5341 8.13672L17.6797 17.3537L19.9984 19.6724L31.5341 8.13672Z" fill="#F4413D"/>
<path d="M31.5357 8.13672L20 19.6724L22.3187 21.9911L31.5357 8.13672Z" fill="#CC2B2B"/>
<path d="M17.6819 17.3535L8.46484 31.208L20.0005 19.6722L17.6819 17.3535Z" fill="white"/>
<path d="M8.46484 31.2077L22.3192 21.9905L20.0005 19.6719L8.46484 31.2077Z" fill="#D8D8D8"/>
</g>
<defs>
<linearGradient id="paint0_linear_944_4737" x1="20" y1="39.3438" x2="20" y2="0" gradientUnits="userSpaceOnUse">
<stop stop-color="#F2F2F2"/>
<stop offset="1" stop-color="white"/>
</linearGradient>
<linearGradient id="paint1_linear_944_4737" x1="20.0002" y1="39.3443" x2="20.0002" y2="0" gradientUnits="userSpaceOnUse">
<stop/>
<stop offset="0.36" stop-opacity="0"/>
</linearGradient>
<linearGradient id="paint2_linear_944_4737" x1="20.0016" y1="37.3762" x2="20.0016" y2="1.9668" gradientUnits="userSpaceOnUse">
<stop stop-color="#3871E9"/>
<stop offset="1" stop-color="#61C5F6"/>
</linearGradient>
<linearGradient id="paint3_linear_944_4737" x1="20.0018" y1="37.3766" x2="20.0018" y2="1.9668" gradientUnits="userSpaceOnUse">
<stop/>
<stop offset="0.36" stop-opacity="0"/>
</linearGradient>
<clipPath id="clip0_944_4737">
<rect width="40" height="40" fill="white"/>
</clipPath>
</defs>
</svg>
